<svg xmlns="http://www.w3.org/2000/svg" xmlns:xlink="http://www.w3.org/1999/xlink" width="350" height="227" viewBox="0 0 350 227">
  <defs>
    <linearGradient id="notif-all-b" x1="50%" x2="50%" y1="0%" y2="100%">
      <stop offset="0%" stop-color="#FFF"/>
      <stop offset="100%" stop-color="#F5F7FF"/>
    </linearGradient>
    <rect id="notif-all-a" width="350" height="227"/>
    <linearGradient id="notif-all-f" x1="0%" y1="0%" y2="100%">
      <stop offset="0%" stop-color="#96AAFF"/>
      <stop offset="100%" stop-color="#123597"/>
    </linearGradient>
    <rect id="notif-all-e" width="713.6" height="423.04" rx="10.24"/>
    <filter id="notif-all-d" width="110.5%" height="117.7%" x="-5.2%" y="-6.5%" filterUnits="objectBoundingBox">
      <feMorphology in="SourceAlpha" operator="dilate" radius=".96" result="shadowSpreadOuter1"/>
      <feOffset dy="10" in="shadowSpreadOuter1" result="shadowOffsetOuter1"/>
      <feGaussianBlur in="shadowOffsetOuter1" result="shadowBlurOuter1" stdDeviation="10.5"/>
      <feComposite in="shadowBlurOuter1" in2="SourceAlpha" operator="out" result="shadowBlurOuter1"/>
      <feColorMatrix in="shadowBlurOuter1" values="0 0 0 0 0.137254902   0 0 0 0 0.243137255   0 0 0 0 0.470588235  0 0 0 0.2 0"/>
    </filter>
    <path id="notif-all-g" d="M12.0729989,9.49037051 C11.1171997,8.52286787 10.9090333,7.0911935 10.7076209,5.70678026 C10.4090528,3.6548037 10.0723842,1.34862982 7.07111581,1.04683381 L7.07111581,0.675158859 C7.07111581,0.30230238 6.76094433,0 6.37838219,0 C5.99582006,0 5.68564858,0.30230238 5.68564858,0.675158859 L5.68564858,1.04734018 C2.70914541,1.35116167 2.37524779,3.65649159 2.07927736,5.70745541 C1.87942372,7.09237503 1.67281591,8.52438697 0.724983139,9.49239599 C0.533615476,9.68785447 0.480101804,9.97564094 0.589207349,10.2240994 C0.698312894,10.4727267 0.94890928,10.633752 1.22617591,10.633752 L4.1283834,10.633752 C4.14396991,11.8306399 5.14652864,12.7999992 6.37838219,12.7999992 C7.61023575,12.7999992 8.6126213,11.8306399 8.62838099,10.633752 L11.5738843,10.633752 C11.8516705,10.633752 12.1026133,10.4720515 12.2113724,10.2227491 C12.3201316,9.97378425 12.2655789,9.68549142 12.0729989,9.49037051 Z M6.38034742,11.4146013 C5.95526087,11.4146013 5.60983871,11.0811714 5.59582659,10.666666 L6.38034742,10.666666 L7.16486823,10.666666 C7.15085613,11.0811714 6.80543395,11.4146013 6.38034742,11.4146013 Z M6.38034742,9.04314809 L2.90298209,9.04314809 C3.41560497,8.06080602 3.57446139,6.95019783 3.71946313,5.93752986 C4.03229533,3.75066219 4.27601161,2.69946798 6.38034742,2.69946798 C8.5073545,2.69946798 8.75343237,3.75081691 9.06909849,5.93830349 C9.21520231,6.95050728 9.3751608,8.06096075 9.89171966,9.04314809 L6.38034742,9.04314809 Z"/>
    <path id="notif-all-i" d="M7.46666622,0 L7.46666622,2.13333321 L2.98666649,2.13333321 C2.51538353,2.13333321 2.13333321,2.51538353 2.13333321,2.98666649 L2.13333321,9.81333275 C2.13333321,10.2846157 2.51538353,10.666666 2.98666649,10.666666 L9.81333275,10.666666 C10.2846157,10.666666 10.666666,10.2846157 10.666666,9.81333275 L10.666666,5.33333302 L12.7999992,5.33333302 L12.7999992,10.666666 C12.7999992,11.844906 11.844906,12.7999992 10.666666,12.7999992 L2.13333321,12.7999992 C0.955093276,12.7999992 0,11.844906 0,10.666666 L0,2.13333321 C0,0.955093276 0.955093276,0 2.13333321,0 L7.46666622,0 Z M11.1999993,3.19999981 C10.3163727,3.19999981 9.59999943,2.48362652 9.59999943,1.5999999 C9.59999943,0.716373291 10.3163727,0 11.1999993,0 C12.0836259,0 12.7999992,0.716373291 12.7999992,1.5999999 C12.7999992,2.48362652 12.0836259,3.19999981 11.1999993,3.19999981 Z"/>
    <polygon id="notif-all-j" points=".16 .64 647.097 .64 647.097 417.92 .16 417.92"/>
    <polygon id="notif-all-l" points="0 0 808.671 0 808.671 521.6 0 521.6"/>
    <path id="notif-all-m" d="M21.5723678,8.64245576 C21.2020683,6.61508097 20.3178575,4.84438449 18.9212648,3.33322465 C18.3330873,2.69671442 17.6681464,2.13798176 16.9421749,1.67024649 C15.5841417,0.793799917 14.1047952,0.256678306 12.5005128,0.066394993 C12.3048981,0.0431199955 12.1066269,0.0462233285 11.9138296,0 L10.529634,0 C10.514661,0.0350349963 10.4825415,0.022213331 10.4571841,0.0246633307 C10.1007305,0.0561866608 9.746048,0.0969383232 9.39426347,0.163904983 C6.82366039,0.652761598 4.71263119,1.91998313 3.07864436,3.96703958 C1.73477915,5.65043441 0.99450213,7.58160587 0.834629342,9.73491064 C0.756710275,10.7730748 0.832688335,11.8172238 1.06002904,12.832527 C1.22803232,13.5908019 1.48369998,14.3267002 1.82163853,15.0253584 C1.85150399,15.0849751 1.88096695,15.1445917 1.91131541,15.2042901 C2.46942117,16.3076066 3.18723872,17.2909549 4.08690552,18.1402064 C4.56056689,18.5872497 5.06675022,18.9917447 5.61479349,19.3411963 C7.29402126,20.4112745 9.12700383,20.9724061 11.1182492,20.9973961 C11.2405285,20.9991928 11.273775,21.0294095 11.27297,21.1548494 C11.267335,22.2249277 11.26975,23.2951692 11.270072,24.3654108 C11.2701525,24.4069791 11.2733725,24.4483024 11.275707,24.4999974 C11.3102414,24.4858691 11.3318154,24.4779474 11.3526649,24.4680658 C13.3544557,23.5237542 15.1925098,22.3305227 16.8310851,20.8347161 C17.1566963,20.5370492 17.4696681,20.2254538 17.7691503,19.9007762 C17.8976282,19.7619429 18.0250595,19.6206596 18.1537788,19.481908 C18.3526941,19.2683496 18.5248028,19.0298013 18.7122871,18.8048914 C18.9288318,18.5455997 19.123239,18.2698931 19.3149093,17.9924714 C19.7388217,17.3792365 20.1174127,16.7395416 20.4356288,16.06375 C20.5966286,15.7221383 20.7499004,15.3779134 20.8855427,15.0255218 C20.8900507,15.0188251 20.8960882,15.0130268 20.8990667,15.0057584 C21.2687222,14.0408669 21.5056334,13.0424103 21.6317767,12.0179837 C21.6758102,11.6611004 21.7042266,11.3020938 21.7223391,10.9432505 C21.7611014,10.1730089 21.7107677,9.40081235 21.5723678,8.64245576 Z M8.0937877,15.0836684 C7.91411194,15.1326684 7.73089418,15.1607617 7.54775692,15.1876301 C7.40607711,15.2084551 7.31382424,15.1294834 7.26109681,15.0012668 L7.2625458,13.8153852 C7.26946879,13.6990102 7.22277886,13.5742236 7.31559523,13.4715686 C7.36156067,13.4207719 7.4137246,13.3858186 7.48408151,13.3682603 C7.69032224,13.3160753 7.89921946,13.2744253 8.08702571,13.1619703 C8.43277275,12.9546186 8.64802946,12.6554737 8.74350234,12.265597 C8.75831432,12.2041837 8.7724823,12.1424437 8.78673078,12.0807854 C7.95637438,12.0791521 7.12633998,12.0777637 6.29606409,12.0767021 C6.22417768,12.0765387 6.15341828,12.0740071 6.08338337,12.0545704 C5.87174915,11.9957704 5.70970287,11.8018938 5.70946137,11.5826188 C5.70785137,10.3221756 5.71042737,9.06156905 5.71131286,7.80104418 C5.69392489,7.5996542 5.71147386,7.41084089 5.88012114,7.26694424 C5.97173002,7.18903425 6.07235488,7.14191258 6.19278272,7.14191258 C7.4135636,7.14166758 8.63434448,7.14256592 9.85512536,7.14125925 C10.1782519,7.14068758 10.4457531,7.46784422 10.3423107,7.78756918 C10.3672657,7.84800251 10.3625967,7.9119475 10.3625967,7.97507583 C10.3628382,9.34854568 10.3705662,10.7225872 10.3601012,12.0961387 C10.3533392,13.0076203 9.99978367,13.7742252 9.33525705,14.3958718 C9.3004811,14.4281302 9.26699314,14.4618585 9.23302219,14.4948518 C8.88880464,14.7597784 8.51625114,14.9689268 8.0937877,15.0836684 Z M14.8475677,14.9960401 C14.8320265,15.0002792 14.8165165,15.0046348 14.8010388,15.0091068 L14.7746348,15.0241334 C14.5383676,15.0912634 14.299927,15.1468784 14.0562538,15.1825667 C13.870299,15.2100067 13.7298267,15.1045751 13.7275727,14.9169051 C13.7257212,14.7853401 13.7247552,14.6535301 13.7237087,14.5218835 L13.7304707,13.8146502 C13.7294242,13.7626286 13.7275727,13.7109336 13.7276532,13.6591569 C13.7279752,13.4781019 13.7972856,13.4017436 14.0214778,13.3502936 C14.3058034,13.2849603 14.5732241,13.1928403 14.7945183,12.986632 C15.0601679,12.7390187 15.1942003,12.4298287 15.2551387,12.0805404 L12.9544517,12.0761304 C12.8709734,12.0759671 12.787495,12.0771921 12.7039361,12.0757221 C12.3907915,12.0705771 12.1763398,11.8530988 12.1763398,11.5369671 C12.1767423,10.2920406 12.1784328,9.04727738 12.1792378,7.80226918 C12.1792378,7.79026418 12.1779498,7.77825918 12.1771448,7.76633585 C12.1529948,7.53334088 12.2197292,7.3424859 12.4258894,7.21304424 C12.5059868,7.16241091 12.5930877,7.14166758 12.6852601,7.14166758 C13.8979105,7.14101425 15.1104804,7.14207592 16.3233723,7.14060592 C16.6463378,7.14019758 16.913678,7.46727255 16.8103966,7.78707918 C16.8350296,7.84751251 16.8305216,7.9112125 16.8305216,7.97434083 C16.8305216,9.35026068 16.8313266,10.7261805 16.8301191,12.1022637 C16.8290726,13.3313469 16.0619086,14.4817035 14.9311266,14.9539001 C14.9026297,14.9661501 14.8754207,14.9819934 14.8475677,14.9960401 Z"/>
    <linearGradient id="notif-all-o" x1="63.506%" x2="0%" y1="50%" y2="50%">
      <stop offset="0%" stop-color="#FFF"/>
      <stop offset="100%" stop-opacity="0"/>
    </linearGradient>
  </defs>
  <g fill="none" fill-rule="evenodd">
    <mask id="notif-all-c" fill="#fff">
      <use xlink:href="#notif-all-a"/>
    </mask>
    <use fill="url(#notif-all-b)" xlink:href="#notif-all-a"/>
    <g mask="url(#notif-all-c)">
      <g transform="translate(44 -232)">
        <g transform="translate(.64 1.28)">
          <g stroke-linecap="round" stroke-linejoin="round">
            <use fill="#000" filter="url(#notif-all-d)" xlink:href="#notif-all-e"/>
            <use fill="#FFF" stroke="url(#notif-all-f)" stroke-width="1.92" xlink:href="#notif-all-e"/>
          </g>
          <path stroke="#6D86DF" stroke-linecap="square" stroke-width="1.92" d="M55.3599934,2.87999966 L55.3599934,422.07995"/>
          <path fill="#5A77DD" d="M29.4399965,346.239959 C18.8361306,346.239959 10.2399988,337.643827 10.2399988,327.039961 C10.2399988,316.436095 18.8361306,307.839963 29.4399965,307.839963 C40.0438624,307.839963 48.6399942,316.436095 48.6399942,327.039961 C48.6399942,337.643827 40.0438624,346.239959 29.4399965,346.239959 Z M37.6306987,324.212805 C37.3362705,322.624055 36.6333533,321.236351 35.5230015,320.052092 C35.056059,319.553853 34.5273919,319.115988 33.9495551,318.748896 C32.8698794,318.061982 31.6937477,317.641112 30.4183137,317.492023 C30.2628243,317.473765 30.1051213,317.476165 29.9518457,317.439962 L28.851403,317.439962 C28.839491,317.467401 28.8139802,317.457385 28.7937402,317.459263 C28.5103807,317.48399 28.2283916,317.515915 27.9487217,317.568393 C25.9050123,317.951496 24.2266764,318.944621 22.9276291,320.548811 C21.8591276,321.868074 21.2706928,323.381497 21.1435605,325.068943 C21.0816031,325.882452 21.1419972,326.700556 21.3227685,327.496513 C21.4563396,328.090695 21.6595529,328.667411 21.9282808,329.214945 C21.9519995,329.261685 21.975402,329.308426 21.9995424,329.355166 C22.4432403,330.21986 23.0139652,330.990447 23.729216,331.655973 C24.1057637,332.006316 24.5082439,332.323273 24.9439302,332.597141 C26.2789246,333.435752 27.736202,333.875507 29.3193468,333.895121 C29.4165408,333.896477 29.4430003,333.92016 29.4423678,334.01844 C29.4379403,334.857051 29.4398378,335.695766 29.4400487,336.534481 C29.4401541,336.567033 29.4426841,336.59948 29.4445816,336.63996 C29.4719899,336.628901 29.4891728,336.622641 29.5057231,336.61492 C31.0971958,335.874902 32.5584791,334.939785 33.861216,333.767629 C34.1202087,333.534222 34.3690413,333.290005 34.6070377,333.035644 C34.7091862,332.926827 34.8104915,332.816132 34.9128509,332.707419 C35.0709756,332.540072 35.2078062,332.353111 35.3568651,332.176897 C35.5290102,331.97366 35.6835508,331.757591 35.835983,331.540166 C36.1729995,331.059618 36.4739636,330.558309 36.7269632,330.028726 C36.8549388,329.761013 36.9768002,329.491213 37.0846413,329.21505 C37.0882255,329.209833 37.0930746,329.205243 37.0953938,329.199609 C37.3892949,328.443419 37.5776742,327.660938 37.6779253,326.858112 C37.7129236,326.578506 37.7355881,326.297126 37.7499247,326.015954 C37.7807534,325.412364 37.7407441,324.807271 37.6306987,324.212805 Z M26.9147968,329.260642 C26.7719575,329.299036 26.6262719,329.32105 26.4806917,329.342125 C26.3681069,329.3584 26.294737,329.296532 26.2527813,329.196061 L26.2539408,328.266683 C26.2594225,328.175497 26.2223159,328.07774 26.2961074,327.9973 C26.332687,327.957446 26.3741156,327.930111 26.4300918,327.91634 C26.5940144,327.875442 26.7601508,327.842787 26.9094206,327.754627 C27.1843467,327.592184 27.3554377,327.357753 27.4313376,327.052168 C27.4431442,327.004071 27.4544238,326.955662 27.4657033,326.907357 C26.8055853,326.906105 26.1456781,326.904957 25.4855601,326.904122 C25.4284244,326.904018 25.372132,326.902036 25.3164721,326.886803 C25.1482273,326.840689 25.0194084,326.688784 25.0191976,326.516951 C25.0179326,325.529147 25.0199355,324.541238 25.0206734,323.553434 C25.0068638,323.395582 25.0207788,323.247641 25.1548686,323.134859 C25.2277114,323.073826 25.3077225,323.036892 25.4034407,323.036892 C26.3740102,323.036684 27.3445798,323.037414 28.3151494,323.036371 C28.5720493,323.035953 28.7846744,323.292294 28.7024495,323.542897 C28.7222678,323.590263 28.7185783,323.640342 28.7185783,323.689795 C28.7187891,324.766175 28.7249032,325.842974 28.7165753,326.919355 C28.7111991,327.633708 28.4301588,328.234444 27.9018113,328.721565 C27.8741922,328.746917 27.8475218,328.773313 27.8205352,328.799187 C27.546874,329.006805 27.2506537,329.170709 26.9147968,329.260642 Z M32.2842908,329.191992 C32.272168,329.195227 32.2598342,329.19867 32.2472897,329.202217 L32.2263118,329.214006 C32.0384596,329.266589 31.8489208,329.310199 31.6551653,329.33816 C31.5073714,329.359652 31.3956299,329.277022 31.3938378,329.129916 C31.392362,329.026837 31.3916241,328.923549 31.3907807,328.820366 L31.396157,328.266161 C31.3953136,328.225368 31.3938378,328.184887 31.3939432,328.144303 C31.3941541,328.002413 31.4492869,327.942527 31.6275461,327.902255 C31.8535591,327.851029 32.0661841,327.778832 32.2421243,327.617223 C32.4532735,327.423168 32.5598495,327.180912 32.6083411,326.907148 L30.7791543,326.903705 C30.7128473,326.903601 30.6464349,326.90454 30.5800225,326.903392 C30.3310288,326.899323 30.1605704,326.728951 30.1605704,326.481165 C30.1608866,325.505568 30.162257,324.530075 30.1628895,323.554373 C30.1628895,323.544983 30.1618353,323.535594 30.1612028,323.526204 C30.142017,323.343625 30.1950415,323.194015 30.3589642,323.092605 C30.4226357,323.052959 30.4918944,323.036684 30.5651588,323.036684 C31.529298,323.036162 32.4933317,323.036997 33.4575763,323.035849 C33.7143709,323.035536 33.9268905,323.291877 33.8447711,323.542479 C33.8643785,323.589846 33.8607944,323.63982 33.8607944,323.689273 C33.8607944,324.767532 33.8614269,325.845791 33.8604781,326.924154 C33.8596348,327.88744 33.249695,328.788858 32.3507032,329.15892 C32.3280387,329.168518 32.3064283,329.180933 32.2842908,329.191992 Z" opacity=".123"/>
          <path fill="#5A77DD" d="M29.4399965,294.399965 C18.8361306,294.399965 10.2399988,285.803833 10.2399988,275.199967 C10.2399988,264.596101 18.8361306,255.999969 29.4399965,255.999969 C40.0438624,255.999969 48.6399942,264.596101 48.6399942,275.199967 C48.6399942,285.803833 40.0438624,294.399965 29.4399965,294.399965 Z M38.2352004,272.559871 C36.2551283,265.959631 33.4001407,264.424691 26.7999004,266.404763 C20.1996601,268.384835 18.6647205,271.239823 20.6447926,277.840063 C22.6248646,284.440304 25.4798523,285.975243 32.0800926,283.995171 C38.6803329,282.015099 40.2152725,279.160111 38.2352004,272.559871 Z M34.9043815,276.842353 L33.6610804,277.256786 L34.0908635,278.546136 C34.2597069,279.068015 33.9834177,279.635943 33.4615383,279.804786 C33.3540925,279.835485 33.2312973,279.866184 33.1238515,279.850834 C32.7247672,279.835485 32.3410323,279.574545 32.2028878,279.175461 L31.7731047,277.886112 L29.2097555,278.745678 L29.6395386,280.035027 C29.808382,280.556906 29.5320929,281.124834 29.0102134,281.293677 C28.9027676,281.324376 28.7799725,281.355075 28.6725267,281.339726 C28.2734424,281.324376 27.8897075,281.063436 27.7515629,280.664352 L27.3217798,279.375003 L26.0784788,279.789437 C25.971033,279.820135 25.8482378,279.850834 25.740792,279.835485 C25.3417077,279.820135 24.9579728,279.559196 24.8198283,279.160111 C24.6509849,278.638232 24.9272741,278.070304 25.4491535,277.901461 L26.6924546,277.487027 L25.8635872,275.015774 L24.6202861,275.430208 C24.5128404,275.460907 24.3900452,275.491606 24.2825994,275.476256 C23.8835151,275.460907 23.4997802,275.199967 23.3616357,274.800883 C23.1927923,274.279003 23.4690814,273.711076 23.9909609,273.542232 L25.234262,273.127799 L24.8044789,271.838449 C24.6356355,271.31657 24.9119247,270.748642 25.4338041,270.579799 C25.9556836,270.410956 26.5236112,270.687245 26.6924546,271.209124 L27.1222377,272.498473 L29.6855868,271.638907 L29.2558037,270.349558 C29.0869604,269.827679 29.3632495,269.259751 29.885129,269.090908 C30.4070084,268.922064 30.9749361,269.198353 31.1437795,269.720233 L31.5735625,271.009582 L32.8168636,270.595148 C33.3387431,270.426305 33.9066707,270.702594 34.0755141,271.224474 C34.2443575,271.746353 33.9680683,272.314281 33.4461889,272.483124 L32.2028878,272.897558 L33.0317552,275.368811 L34.2750562,274.954377 C34.7969357,274.785534 35.3648634,275.061823 35.5337067,275.583702 C35.7025501,276.105582 35.426261,276.673509 34.9043815,276.842353 Z M27.8025841,274.366575 L28.6253193,276.822864 L31.168301,275.971091 L30.3455659,273.514802 L27.8025841,274.366575 Z" opacity=".12"/>
          <path fill="#5A77DD" d="M29.4399965,241.919971 C18.8361306,241.919971 10.2399988,233.323839 10.2399988,222.719973 C10.2399988,212.116108 18.8361306,203.519976 29.4399965,203.519976 C40.0438624,203.519976 48.6399942,212.116108 48.6399942,222.719973 C48.6399942,233.323839 40.0438624,241.919971 29.4399965,241.919971 Z M25.4879238,213.759993 L19.8400159,217.46045 L23.7452955,220.598509 L29.4398319,217.069982 L25.4879238,213.759993 Z M19.8399976,223.736897 L25.4879055,227.437355 L29.4399965,224.127182 L23.7452772,220.598472 L19.8399976,223.736897 Z M29.4399233,224.127127 L33.3920143,227.4373 L39.0399222,223.736842 L35.1348255,220.5986 L29.4399233,224.127127 Z M39.0399953,217.460432 L33.3920874,213.759975 L29.4399965,217.069964 L35.1347158,220.59849 L39.0399953,217.460432 Z M29.4516079,224.839255 L25.487997,228.139702 L23.7918143,227.028482 L23.7918143,228.274201 L29.4516079,231.679972 L35.1114015,228.274201 L35.1114015,227.028482 L33.4152189,228.139702 L29.4516079,224.839255 Z" opacity=".123"/>
          <g transform="translate(22.4 368.8)">
            <mask id="notif-all-h" fill="#fff">
              <use xlink:href="#notif-all-g"/>
            </mask>
            <g fill="#5E7EEE" mask="url(#notif-all-h)">
              <rect width="13" height="13"/>
            </g>
          </g>
          <path stroke="#7991E9" stroke-linecap="square" stroke-width="1.6" d="M0,354.319979 L55.3599934,354.319979"/>
          <use fill="#6D86DF" fill-rule="nonzero" opacity=".592" transform="translate(22.4 395.2)" xlink:href="#notif-all-i"/>
          <g opacity=".51" transform="translate(56.16 1.92)">
            <mask id="notif-all-k" fill="#fff">
              <use xlink:href="#notif-all-j"/>
            </mask>
            <use fill="#FFF" xlink:href="#notif-all-j"/>
            <g mask="url(#notif-all-k)">
              <use fill="#FFF" transform="translate(0 .8)" xlink:href="#notif-all-l"/>
            </g>
            <rect width="56.8" height="11.2" x="229.6" y="263.2" fill="#D8D8D8" mask="url(#notif-all-k)"/>
            <rect width="55.2" height="11.2" x="229.6" y="288" fill="#D8D8D8" mask="url(#notif-all-k)"/>
            <rect width="52.8" height="11.2" x="229.6" y="312.8" fill="#D8D8D8" mask="url(#notif-all-k)"/>
            <rect width="55.2" height="11.2" x="229.6" y="337.6" fill="#D8D8D8" mask="url(#notif-all-k)"/>
            <polygon fill="#D8D8D8" points="37.6 244.8 69.6 244.8 69.6 256 37.6 256" mask="url(#notif-all-k)" opacity=".703"/>
            <rect width="46.4" height="11.2" x="229.6" y="238.4" fill="#D8D8D8" mask="url(#notif-all-k)"/>
            <rect width="51.2" height="11.2" x="229.6" y="362.4" fill="#D8D8D8" mask="url(#notif-all-k)"/>
            <rect width="9.6" height="9.6" x="206.4" y="239.2" stroke="#D8D8D8" stroke-width="1.6" mask="url(#notif-all-k)" rx="2.4"/>
            <rect width="9.6" height="9.6" x="206.4" y="264" stroke="#D8D8D8" stroke-width="1.6" mask="url(#notif-all-k)" rx="2.4"/>
            <rect width="9.6" height="9.6" x="206.4" y="288.8" stroke="#D8D8D8" stroke-width="1.6" mask="url(#notif-all-k)" rx="2.4"/>
            <rect width="9.6" height="9.6" x="206.4" y="313.6" stroke="#D8D8D8" stroke-width="1.6" mask="url(#notif-all-k)" rx="2.4"/>
            <rect width="9.6" height="9.6" x="206.4" y="338.4" stroke="#D8D8D8" stroke-width="1.6" mask="url(#notif-all-k)" rx="2.4"/>
            <rect width="9.6" height="9.6" x="206.4" y="363.2" stroke="#D8D8D8" stroke-width="1.6" mask="url(#notif-all-k)" rx="2.4"/>
            <g mask="url(#notif-all-k)" opacity=".698">
              <g transform="translate(40 292)">
                <mask id="notif-all-n" fill="#fff">
                  <use xlink:href="#notif-all-m"/>
                </mask>
                <use fill="#FFF" fill-rule="nonzero" xlink:href="#notif-all-m"/>
                <g mask="url(#notif-all-n)" opacity=".1">
                  <rect width="23" height="24" fill="#292929"/>
                </g>
              </g>
            </g>
          </g>
          <rect width="156.4" height="21.4" x="49.8" y="364.8" fill="#FFF" stroke="#5891E4" stroke-width="1.6" rx="5.6"/>
          <path fill="#3070CD" d="M60.8061523,370.840332 L64.1958008,370.840332 C66.9316406,370.840332 68.550293,372.49707 68.550293,375.397949 C68.550293,378.298828 66.9379883,380 64.1958008,380 L60.8061523,380 L60.8061523,370.840332 Z M62.4438477,372.224121 L62.4438477,378.616211 L64.0244141,378.616211 C65.8652344,378.616211 66.8808594,377.492676 66.8808594,375.404297 C66.8808594,373.354004 65.8525391,372.224121 64.0244141,372.224121 L62.4438477,372.224121 Z M69.7563477,380 L69.7563477,373.062012 L71.3369141,373.062012 L71.3369141,380 L69.7563477,380 Z M70.543457,372.179688 C70.0546875,372.179688 69.6547852,371.798828 69.6547852,371.310059 C69.6547852,370.814941 70.0546875,370.44043 70.543457,370.44043 C71.0385742,370.44043 71.4321289,370.814941 71.4321289,371.310059 C71.4321289,371.798828 71.0385742,372.179688 70.543457,372.179688 Z M72.6064453,375.067871 C72.6064453,373.811035 73.7236328,372.966797 75.3930664,372.966797 C76.9926758,372.966797 78.1098633,373.830078 78.1416016,375.086914 L76.6689453,375.086914 C76.6181641,374.50293 76.1166992,374.134766 75.3613281,374.134766 C74.625,374.134766 74.1425781,374.471191 74.1425781,374.979004 C74.1425781,375.366211 74.4663086,375.632812 75.1518555,375.791504 L76.3706055,376.070801 C77.7670898,376.394531 78.300293,376.921387 78.300293,377.943359 C78.300293,379.231934 77.0942383,380.101562 75.3549805,380.101562 C73.6538086,380.101562 72.5302734,379.244629 72.4287109,377.956055 L73.9838867,377.956055 C74.0791016,378.584473 74.5932617,378.933594 75.418457,378.933594 C76.2246094,378.933594 76.7260742,378.609863 76.7260742,378.095703 C76.7260742,377.689453 76.472168,377.473633 75.7802734,377.308594 L74.5234375,377.003906 C73.2539062,376.705566 72.6064453,376.051758 72.6064453,375.067871 Z M81.8613281,378.86377 C82.8198242,378.86377 83.5498047,378.26709 83.5498047,377.422852 L83.5498047,376.895996 L81.9628906,376.997559 C81.0996094,377.054688 80.6425781,377.384766 80.6425781,377.949707 C80.6425781,378.508301 81.125,378.86377 81.8613281,378.86377 Z M81.3979492,380.076172 C80.0332031,380.076172 79.0556641,379.244629 79.0556641,378.013184 C79.0556641,376.775391 80.0014648,376.070801 81.7470703,375.962891 L83.5498047,375.85498 L83.5498047,375.347168 C83.5498047,374.61084 83.0546875,374.210938 82.2041016,374.210938 C81.4868164,374.210938 80.9726562,374.585449 80.8647461,375.144043 L79.4047852,375.144043 C79.4428711,373.874512 80.6235352,372.966797 82.2548828,372.966797 C83.987793,372.966797 85.1113281,373.868164 85.1113281,375.245605 L85.1113281,380 L83.5942383,380 L83.5942383,378.882812 L83.5561523,378.882812 C83.175293,379.625488 82.3183594,380.076172 81.3979492,380.076172 Z M90.2719727,380.076172 C89.2563477,380.076172 88.4755859,379.619141 88.0693359,378.819336 L88.03125,378.819336 L88.03125,380 L86.4887695,380 L86.4887695,370.415039 L88.0693359,370.415039 L88.0693359,374.22998 L88.1074219,374.22998 C88.5073242,373.442871 89.2944336,372.98584 90.2783203,372.98584 C92.0239258,372.98584 93.1474609,374.356934 93.1474609,376.53418 C93.1474609,378.705078 92.0302734,380.076172 90.2719727,380.076172 Z M89.8022461,374.299805 C88.7612305,374.299805 88.0629883,375.201172 88.0629883,376.53418 C88.0629883,377.873535 88.7612305,378.762207 89.8022461,378.762207 C90.8496094,378.762207 91.5288086,377.892578 91.5288086,376.53418 C91.5288086,375.175781 90.8432617,374.299805 89.8022461,374.299805 Z M94.2519531,380 L94.2519531,370.415039 L95.8325195,370.415039 L95.8325195,380 L94.2519531,380 Z M100.206055,374.198242 C99.2792969,374.198242 98.6064453,374.871094 98.5366211,375.861328 L101.824707,375.861328 C101.792969,374.858398 101.145508,374.198242 100.206055,374.198242 Z M101.831055,377.937012 L103.316406,377.937012 C103.113281,379.219238 101.881836,380.101562 100.263184,380.101562 C98.2128906,380.101562 96.9433594,378.743164 96.9433594,376.55957 C96.9433594,374.375977 98.2192383,372.966797 100.206055,372.966797 C102.148438,372.966797 103.379883,374.293457 103.379883,376.394531 L103.379883,376.915039 L98.5239258,376.915039 L98.5239258,377.010254 C98.5239258,378.127441 99.2348633,378.870117 100.294922,378.870117 C101.056641,378.870117 101.646973,378.508301 101.831055,377.937012 Z M109.854492,378.86377 C110.812988,378.86377 111.542969,378.26709 111.542969,377.422852 L111.542969,376.895996 L109.956055,376.997559 C109.092773,377.054688 108.635742,377.384766 108.635742,377.949707 C108.635742,378.508301 109.118164,378.86377 109.854492,378.86377 Z M109.391113,380.076172 C108.026367,380.076172 107.048828,379.244629 107.048828,378.013184 C107.048828,376.775391 107.994629,376.070801 109.740234,375.962891 L111.542969,375.85498 L111.542969,375.347168 C111.542969,374.61084 111.047852,374.210938 110.197266,374.210938 C109.47998,374.210938 108.96582,374.585449 108.85791,375.144043 L107.397949,375.144043 C107.436035,373.874512 108.616699,372.966797 110.248047,372.966797 C111.980957,372.966797 113.104492,373.868164 113.104492,375.245605 L113.104492,380 L111.587402,380 L111.587402,378.882812 L111.549316,378.882812 C111.168457,379.625488 110.311523,380.076172 109.391113,380.076172 Z M114.481934,380 L114.481934,370.415039 L116.0625,370.415039 L116.0625,380 L114.481934,380 Z M117.516113,380 L117.516113,370.415039 L119.09668,370.415039 L119.09668,380 L117.516113,380 Z M123.406738,380 L123.406738,373.062012 L124.923828,373.062012 L124.923828,374.268066 L124.955566,374.268066 C125.368164,373.423828 126.066406,372.979492 127.132812,372.979492 C128.668945,372.979492 129.544922,373.950684 129.544922,375.556641 L129.544922,380 L127.964355,380 L127.964355,375.867676 C127.964355,374.877441 127.494629,374.318848 126.54248,374.318848 C125.571289,374.318848 124.987305,375.004395 124.987305,376.02002 L124.987305,380 L123.406738,380 Z M133.905762,380.101562 C131.861816,380.101562 130.566895,378.743164 130.566895,376.527832 C130.566895,374.337891 131.874512,372.966797 133.905762,372.966797 C135.949707,372.966797 137.250977,374.331543 137.250977,376.527832 C137.250977,378.743164 135.962402,380.101562 133.905762,380.101562 Z M133.905762,378.838379 C134.997559,378.838379 135.64502,377.987793 135.64502,376.53418 C135.64502,375.080566 134.991211,374.22998 133.905762,374.22998 C132.82666,374.22998 132.172852,375.086914 132.172852,376.53418 C132.172852,377.987793 132.82666,378.838379 133.905762,378.838379 Z M138.749023,371.513184 L140.32959,371.513184 L140.32959,373.062012 L141.643555,373.062012 L141.643555,374.287109 L140.32959,374.287109 L140.32959,377.943359 C140.32959,378.514648 140.596191,378.787598 141.16748,378.787598 C141.319824,378.787598 141.535645,378.768555 141.637207,378.755859 L141.637207,379.968262 C141.46582,380.006348 141.14209,380.031738 140.805664,380.031738 C139.333008,380.031738 138.749023,379.498535 138.749023,378.15918 L138.749023,374.287109 L137.803223,374.287109 L137.803223,373.062012 L138.749023,373.062012 L138.749023,371.513184 Z M142.805176,380 L142.805176,373.062012 L144.385742,373.062012 L144.385742,380 L142.805176,380 Z M143.592285,372.179688 C143.103516,372.179688 142.703613,371.798828 142.703613,371.310059 C142.703613,370.814941 143.103516,370.44043 143.592285,370.44043 C144.087402,370.44043 144.480957,370.814941 144.480957,371.310059 C144.480957,371.798828 144.087402,372.179688 143.592285,372.179688 Z M146.220215,380 L146.220215,374.287109 L145.274414,374.287109 L145.274414,373.062012 L146.220215,373.062012 L146.220215,372.439941 C146.220215,371.125977 146.82959,370.567383 148.321289,370.567383 C148.600586,370.567383 148.854492,370.586426 149.089355,370.630859 L149.089355,371.779785 C148.949707,371.748047 148.771973,371.729004 148.581543,371.729004 C148.016602,371.729004 147.781738,371.963867 147.781738,372.509766 L147.781738,373.062012 L149.095703,373.062012 L149.095703,374.287109 L147.800781,374.287109 L147.800781,380 L146.220215,380 Z M150.238281,380 L150.238281,373.062012 L151.818848,373.062012 L151.818848,380 L150.238281,380 Z M151.025391,372.179688 C150.536621,372.179688 150.136719,371.798828 150.136719,371.310059 C150.136719,370.814941 150.536621,370.44043 151.025391,370.44043 C151.520508,370.44043 151.914062,370.814941 151.914062,371.310059 C151.914062,371.798828 151.520508,372.179688 151.025391,372.179688 Z M159.283691,375.518555 L157.791992,375.518555 C157.677734,374.788574 157.131836,374.255371 156.243164,374.255371 C155.202148,374.255371 154.522949,375.131348 154.522949,376.527832 C154.522949,377.96875 155.208496,378.812988 156.249512,378.812988 C157.09375,378.812988 157.652344,378.375 157.79834,377.587891 L159.290039,377.587891 C159.156738,379.10498 157.969727,380.101562 156.236816,380.101562 C154.224609,380.101562 152.916992,378.743164 152.916992,376.527832 C152.916992,374.356934 154.218262,372.966797 156.224121,372.966797 C158.039551,372.966797 159.175781,374.090332 159.283691,375.518555 Z M162.774902,378.86377 C163.733398,378.86377 164.463379,378.26709 164.463379,377.422852 L164.463379,376.895996 L162.876465,376.997559 C162.013184,377.054688 161.556152,377.384766 161.556152,377.949707 C161.556152,378.508301 162.038574,378.86377 162.774902,378.86377 Z M162.311523,380.076172 C160.946777,380.076172 159.969238,379.244629 159.969238,378.013184 C159.969238,376.775391 160.915039,376.070801 162.660645,375.962891 L164.463379,375.85498 L164.463379,375.347168 C164.463379,374.61084 163.968262,374.210938 163.117676,374.210938 C162.400391,374.210938 161.88623,374.585449 161.77832,375.144043 L160.318359,375.144043 C160.356445,373.874512 161.537109,372.966797 163.168457,372.966797 C164.901367,372.966797 166.024902,373.868164 166.024902,375.245605 L166.024902,380 L164.507812,380 L164.507812,378.882812 L164.469727,378.882812 C164.088867,379.625488 163.231934,380.076172 162.311523,380.076172 Z M167.795898,371.513184 L169.376465,371.513184 L169.376465,373.062012 L170.69043,373.062012 L170.69043,374.287109 L169.376465,374.287109 L169.376465,377.943359 C169.376465,378.514648 169.643066,378.787598 170.214355,378.787598 C170.366699,378.787598 170.58252,378.768555 170.684082,378.755859 L170.684082,379.968262 C170.512695,380.006348 170.188965,380.031738 169.852539,380.031738 C168.379883,380.031738 167.795898,379.498535 167.795898,378.15918 L167.795898,374.287109 L166.850098,374.287109 L166.850098,373.062012 L167.795898,373.062012 L167.795898,371.513184 Z M171.852051,380 L171.852051,373.062012 L173.432617,373.062012 L173.432617,380 L171.852051,380 Z M172.63916,372.179688 C172.150391,372.179688 171.750488,371.798828 171.750488,371.310059 C171.750488,370.814941 172.150391,370.44043 172.63916,370.44043 C173.134277,370.44043 173.527832,370.814941 173.527832,371.310059 C173.527832,371.798828 173.134277,372.179688 172.63916,372.179688 Z M177.869629,380.101562 C175.825684,380.101562 174.530762,378.743164 174.530762,376.527832 C174.530762,374.337891 175.838379,372.966797 177.869629,372.966797 C179.913574,372.966797 181.214844,374.331543 181.214844,376.527832 C181.214844,378.743164 179.92627,380.101562 177.869629,380.101562 Z M177.869629,378.838379 C178.961426,378.838379 179.608887,377.987793 179.608887,376.53418 C179.608887,375.080566 178.955078,374.22998 177.869629,374.22998 C176.790527,374.22998 176.136719,375.086914 176.136719,376.53418 C176.136719,377.987793 176.790527,378.838379 177.869629,378.838379 Z M182.268555,380 L182.268555,373.062012 L183.785645,373.062012 L183.785645,374.268066 L183.817383,374.268066 C184.22998,373.423828 184.928223,372.979492 185.994629,372.979492 C187.530762,372.979492 188.406738,373.950684 188.406738,375.556641 L188.406738,380 L186.826172,380 L186.826172,375.867676 C186.826172,374.877441 186.356445,374.318848 185.404297,374.318848 C184.433105,374.318848 183.849121,375.004395 183.849121,376.02002 L183.849121,380 L182.268555,380 Z M189.600098,375.067871 C189.600098,373.811035 190.717285,372.966797 192.386719,372.966797 C193.986328,372.966797 195.103516,373.830078 195.135254,375.086914 L193.662598,375.086914 C193.611816,374.50293 193.110352,374.134766 192.35498,374.134766 C191.618652,374.134766 191.13623,374.471191 191.13623,374.979004 C191.13623,375.366211 191.459961,375.632812 192.145508,375.791504 L193.364258,376.070801 C194.760742,376.394531 195.293945,376.921387 195.293945,377.943359 C195.293945,379.231934 194.087891,380.101562 192.348633,380.101562 C190.647461,380.101562 189.523926,379.244629 189.422363,377.956055 L190.977539,377.956055 C191.072754,378.584473 191.586914,378.933594 192.412109,378.933594 C193.218262,378.933594 193.719727,378.609863 193.719727,378.095703 C193.719727,377.689453 193.46582,377.473633 192.773926,377.308594 L191.51709,377.003906 C190.247559,376.705566 189.600098,376.051758 189.600098,375.067871 Z"/>
        </g>
        <path fill="url(#notif-all-o)" d="M12.7999985,0 L723.519914,0 C730.589158,6.14889002e-14 736.319912,5.73075452 736.319912,12.7999985 L736.319912,412.799951 C736.319912,419.869195 730.589158,425.599949 723.519914,425.599949 L12.7999985,425.599949 C5.73075452,425.599949 2.64208954e-15,419.869195 1.77635684e-15,412.799951 L-1.77635684e-15,12.7999985 C-2.64208954e-15,5.73075452 5.73075452,1.29859905e-15 12.7999985,0 Z" style="mix-blend-mode:screen"/>
      </g>
    </g>
  </g>
</svg>
