<svg xmlns="http://www.w3.org/2000/svg" xmlns:xlink="http://www.w3.org/1999/xlink" width="350" height="227" viewBox="0 0 350 227">
  <defs>
    <linearGradient id="notif-center-b" x1="50%" x2="50%" y1="0%" y2="100%">
      <stop offset="0%" stop-color="#FFF"/>
      <stop offset="100%" stop-color="#F5F7FF"/>
    </linearGradient>
    <rect id="notif-center-a" width="350" height="227"/>
    <rect id="notif-center-e" width="480.788" height="285.023" y="1.1" rx="6.899"/>
    <filter id="notif-center-d" width="110.5%" height="117.6%" x="-5.2%" y="-6.4%" filterUnits="objectBoundingBox">
      <feMorphology in="SourceAlpha" operator="dilate" radius=".647" result="shadowSpreadOuter1"/>
      <feOffset dy="7" in="shadowSpreadOuter1" result="shadowOffsetOuter1"/>
      <feGaussianBlur in="shadowOffsetOuter1" result="shadowBlurOuter1" stdDeviation="7"/>
      <feComposite in="shadowBlurOuter1" in2="SourceAlpha" operator="out" result="shadowBlurOuter1"/>
      <feColorMatrix in="shadowBlurOuter1" values="0 0 0 0 0.137254902   0 0 0 0 0.243137255   0 0 0 0 0.470588235  0 0 0 0.2 0"/>
    </filter>
    <path id="notif-center-f" d="M6.66202324,6.41171676 L9.01060763,8.76030116 C9.30853559,9.05822911 9.30853559,9.54126577 9.01060763,9.83919373 C8.71267968,10.1371217 8.22964302,10.1371217 7.93171506,9.83919373 L5.43079962,7.33827829 C4.94002642,7.57034068 4.39224579,7.69999945 3.81446126,7.69999945 C1.70779248,7.69999945 0,5.97629586 0,3.84999972 C0,1.72370359 1.70779248,0 3.81446126,0 C5.92113005,0 7.62892253,1.72370359 7.62892253,3.84999972 C7.62892253,4.83366799 7.2634246,5.73117431 6.66202324,6.41171676 Z M3.81446126,6.15999956 C5.07846253,6.15999956 6.10313802,5.1257774 6.10313802,3.84999972 C6.10313802,2.57422204 5.07846253,1.53999989 3.81446126,1.53999989 C2.55045999,1.53999989 1.52578451,2.57422204 1.52578451,3.84999972 C1.52578451,5.1257774 2.55045999,6.15999956 3.81446126,6.15999956 Z"/>
    <path id="notif-center-h" d="M2.27632378,2.95033381 L2.27632378,0.324188752 C2.27632378,0.145144249 2.42146803,4.83078892e-09 2.60051253,4.83078893e-09 C2.77955704,4.83078894e-09 2.92470129,0.145144249 2.92470129,0.324188752 L2.92470129,2.94895061 L3.57934646,2.39718134 C3.70638432,2.29007159 3.89427519,2.29805376 4.01177103,2.41555204 C4.06571075,2.46947437 4.09499531,2.5432737 4.09270398,2.61950926 C4.09041266,2.69574482 4.05674877,2.76765218 3.99966799,2.8182377 L2.86647699,3.82300672 C2.79319133,3.88806472 2.69761809,3.92231747 2.59969126,3.91862079 C2.50176442,3.92231747 2.40619118,3.88806472 2.33290552,3.82300672 L1.1996713,2.8182377 C1.14259052,2.76765218 1.10892662,2.69574482 1.1066353,2.61950926 C1.10434398,2.5432737 1.13362854,2.46947437 1.18756826,2.41555204 C1.3050641,2.29805376 1.49295496,2.29007159 1.61999283,2.39718134 L2.27632378,2.95033381 Z M0.324188757,4.5386426 L4.86283136,4.5386426 C5.04187586,4.5386426 5.18702011,4.68378685 5.18702011,4.86283135 C5.18702011,5.04187586 5.04187586,5.18702011 4.86283136,5.18702011 L0.324188757,5.18702011 C0.145144251,5.18702011 2.19266282e-17,5.04187586 0,4.86283135 C-2.19266282e-17,4.68378685 0.145144251,4.5386426 0.324188757,4.5386426 Z"/>
    <rect id="notif-center-k" width="103.4" height="226.6" x="37.739" y="1.69"/>
    <filter id="notif-center-j" width="122.2%" height="110.2%" x="-9.2%" y="-5.1%" filterUnits="objectBoundingBox">
      <feOffset dx="2" in="SourceAlpha" result="shadowOffsetOuter1"/>
      <feGaussianBlur in="shadowOffsetOuter1" result="shadowBlurOuter1" stdDeviation="3.5"/>
      <feColorMatrix in="shadowBlurOuter1" values="0 0 0 0 0   0 0 0 0 0   0 0 0 0 0  0 0 0 0.10119452 0"/>
    </filter>
    <path id="notif-center-l" d="M9.896351,3.74431158 C10.9616137,7.29518732 10.1358191,8.83108827 6.58501217,9.896351 C3.03413643,10.9616137 1.49823548,10.1358191 0.432972755,6.58501217 C-0.632289967,3.03413643 0.193504698,1.49823548 3.74431158,0.432972755 C7.29518732,-0.632289967 8.83108827,0.193504698 9.896351,3.74431158 Z M8.10442064,6.04823187 C8.38517155,5.95740272 8.53381046,5.65186145 8.44298131,5.37111054 C8.35215216,5.09032521 8.04661089,4.9416863 7.76585998,5.03254988 L7.09696768,5.25549103 L6.65108539,3.92600431 L7.31994326,3.70302873 C7.60069416,3.61219958 7.74933307,3.30665831 7.65850392,3.02590741 C7.56767477,2.7451565 7.2621335,2.59651759 6.98138259,2.68734674 L6.31249029,2.91028789 L6.08128569,2.21663965 C5.99042211,1.93588875 5.68491527,1.78724984 5.40412993,1.87807899 C5.12337903,1.96890814 4.97474012,2.27444941 5.06556927,2.55520031 L5.29677387,3.24884855 L3.91774085,3.71129219 L3.68653625,3.01764395 C3.59567267,2.73689304 3.29016583,2.58825414 3.00938049,2.67908329 C2.72862959,2.76991244 2.57999068,3.07545371 2.67081983,3.35620461 L2.90202443,4.04985285 L2.23316656,4.27282843 C1.95238123,4.36365758 1.80374232,4.66919885 1.8946059,4.94994975 C1.96890814,5.16466188 2.1753568,5.30503733 2.39006893,5.31330078 C2.44787868,5.32156424 2.51391747,5.30503733 2.57172723,5.28851042 L3.24061953,5.06556927 L3.68650182,6.39505599 L3.01764395,6.61803156 C2.73689304,6.70886071 2.58825414,7.01440199 2.67908329,7.29515289 C2.75338553,7.50986501 2.95983419,7.65024046 3.17454631,7.65850392 C3.23235607,7.66676738 3.29839485,7.65024046 3.35620461,7.63371355 L4.02509691,7.41077241 L4.25630152,8.10442064 C4.33063819,8.31913277 4.53708685,8.45950822 4.75176454,8.46777167 C4.80960873,8.47603513 4.87564752,8.45950822 4.93345727,8.44298131 C5.21420818,8.35215216 5.36284709,8.04661089 5.27201794,7.76585998 L5.0407789,7.07221174 L6.41984635,6.60976811 L6.65105096,7.30341635 C6.72538762,7.51812847 6.93183629,7.65850392 7.14651398,7.66676738 C7.20435817,7.67503083 7.27039695,7.65850392 7.32820671,7.64197701 C7.60895762,7.55114786 7.75759653,7.24560659 7.66676738,6.96485568 L7.43552834,6.27120745 L8.10442064,6.04823187 Z M4.28374308,4.71630055 L5.65186145,4.2580575 L6.09447279,5.57952178 L4.72638885,6.03776482 L4.28374308,4.71630055 Z"/>
    <path id="notif-center-n" d="M1.7392916,1.76833901 C2.06632496,2.02322124 2.18900869,2.00378819 2.8030998,1.96448502 L8.59256852,1.63096283 C8.71535312,1.63096283 8.61324556,1.5134904 8.57232856,1.49395649 L7.61079604,0.827147469 C7.4265519,0.689973022 7.18111718,0.532827588 6.71068944,0.572130757 L1.10472519,0.964355538 C0.90030833,0.983822206 0.859458579,1.08186159 0.940889111,1.16046793 L1.7392916,1.76833901 Z M2.0868675,3.06265389 L2.0868675,8.90615087 C2.0868675,9.22020639 2.25046823,9.33771244 2.61868755,9.31827939 L8.98133039,8.96508881 C9.34971781,8.94565576 9.39073566,8.72967325 9.39073566,8.47455568 L9.39073566,2.67019376 C9.39073566,2.41551326 9.28859448,2.27817071 9.06309713,2.29773824 L2.41410258,2.67022738 C2.16873511,2.69003026 2.0868675,2.80773804 2.0868675,3.06265389 Z M8.36804619,3.37610423 C8.4088287,3.55278357 8.36804619,3.72926118 8.1835667,3.74913131 L7.87694141,3.80773304 L7.87694141,8.12176855 C7.61079604,8.25901024 7.36536132,8.33748209 7.16080998,8.33748209 C6.83333955,8.33748209 6.75133746,8.23934184 6.50607085,7.94535817 L4.50080198,4.92550306 L4.50080198,7.84731879 L5.13533478,7.98466134 C5.13533478,7.98466134 5.13533478,8.33748209 4.62338486,8.33748209 L3.212068,8.41602119 C3.17105014,8.33748209 3.212068,8.14153781 3.35522704,8.10226826 L3.7235136,8.00436336 L3.7235136,4.14118798 L3.21213524,4.10188481 C3.17115101,3.92523909 3.27329219,3.67052497 3.55991287,3.65075571 L5.07394248,3.55285081 L7.16080998,6.61204272 L7.16080998,3.90577242 L6.62875459,3.84720431 C6.58790484,3.6312218 6.75133746,3.47441258 6.95595605,3.45494591 L8.36804619,3.37610423 Z M0.634062096,0.434922689 L6.46515386,0.0229958917 C7.18121804,-0.0359084299 7.36542857,0.00356284499 7.81551549,0.317181288 L9.67685202,1.57212576 C9.98398163,1.78797378 10.0863582,1.84671 10.0863582,2.08199107 L10.0863582,8.96508881 C10.0863582,9.39644865 9.92255571,9.65159985 9.34978505,9.69063405 L2.57820763,10.0828925 C2.14829343,10.1025608 1.94367484,10.043791 1.7185137,9.76907228 L0.34777763,8.06303233 C0.102141187,7.74901044 0,7.51406557 0,7.23917874 L0,1.12099665 C0,0.768243148 0.163869699,0.473990509 0.634062096,0.434922689 Z"/>
    <linearGradient id="notif-center-p" x1="63.506%" x2="0%" y1="50%" y2="50%">
      <stop offset="0%" stop-color="#FFF"/>
      <stop offset="100%" stop-color="#3E3E3E" stop-opacity=".241"/>
      <stop offset="100%" stop-opacity="0"/>
    </linearGradient>
  </defs>
  <g fill="none" fill-rule="evenodd">
    <mask id="notif-center-c" fill="#fff">
      <use xlink:href="#notif-center-a"/>
    </mask>
    <use fill="url(#notif-center-b)" xlink:href="#notif-center-a"/>
    <g mask="url(#notif-center-c)">
      <g transform="translate(35 26)">
        <g stroke-linecap="round" stroke-linejoin="round">
          <use fill="#000" filter="url(#notif-center-d)" xlink:href="#notif-center-e"/>
          <use fill="#FFF" stroke="#3070CD" stroke-width="1.294" xlink:href="#notif-center-e"/>
        </g>
        <path stroke="#3070CD" stroke-linecap="square" stroke-width="1.294" d="M37.2987973,1.10000002 L37.2987973,285.47638"/>
        <path fill="#3070CD" d="M19.8351986,199.451986 C12.6908436,199.451986 6.8991995,193.660342 6.8991995,186.515987 C6.8991995,179.371632 12.6908436,173.579988 19.8351986,173.579988 C26.9795536,173.579988 32.7711976,179.371632 32.7711976,186.515987 C32.7711976,193.660342 26.9795536,199.451986 19.8351986,199.451986 Z M25.7609675,184.737222 C24.4268939,180.29031 22.5033458,179.256144 18.0564337,180.590218 C13.6095216,181.924291 12.575356,183.847839 13.9094296,188.294752 C15.2435033,192.741664 17.1670513,193.775829 21.6139634,192.441756 C26.0608755,191.107682 27.0950411,189.184134 25.7609675,184.737222 Z M23.5168281,187.622544 L22.679154,187.901769 L22.9687204,188.770468 C23.0824786,189.122084 22.8963288,189.504725 22.5447125,189.618483 C22.4723209,189.639167 22.3895876,189.65985 22.317196,189.649508 C22.048313,189.639167 21.7897716,189.463359 21.6966967,189.194476 L21.4071303,188.325776 L19.6800737,188.904909 L19.9696401,189.773608 C20.0833983,190.125225 19.8972485,190.507866 19.5456322,190.621624 C19.4732406,190.642307 19.3905074,190.662991 19.3181158,190.652649 C19.0492327,190.642307 18.7906913,190.466499 18.6976164,190.197616 L18.40805,189.328917 L17.5703759,189.608142 C17.4979843,189.628825 17.415251,189.649508 17.3428595,189.639167 C17.0739764,189.628825 16.815435,189.453017 16.7223601,189.184134 C16.6086019,188.832518 16.7947517,188.449876 17.146368,188.336118 L17.9840421,188.056893 L17.4255927,186.391887 L16.5879186,186.671112 C16.515527,186.691795 16.4327937,186.712478 16.3604021,186.702136 C16.0915191,186.691795 15.8329777,186.515987 15.7399028,186.247104 C15.6261445,185.895487 15.8122944,185.512846 16.1639107,185.399088 L17.0015848,185.119863 L16.7120184,184.251164 C16.5982602,183.899548 16.78441,183.516906 17.1360263,183.403148 C17.4876426,183.28939 17.8702839,183.47554 17.9840421,183.827156 L18.2736085,184.695855 L20.0006651,184.116722 L19.7110987,183.248023 C19.5973405,182.896407 19.7834903,182.513766 20.1351066,182.400008 C20.4867229,182.286249 20.8693642,182.472399 20.9831224,182.824015 L21.2726888,183.692715 L22.1103629,183.41349 C22.4619792,183.299732 22.8446205,183.485881 22.9583787,183.837498 C23.0721369,184.189114 22.8859871,184.571755 22.5343708,184.685514 L21.6966967,184.964738 L22.2551461,186.629745 L23.0928202,186.35052 C23.4444365,186.236762 23.8270778,186.422912 23.940836,186.774528 C24.0545943,187.126144 23.8684444,187.508786 23.5168281,187.622544 Z M18.7319919,185.954488 L19.2863098,187.609413 L20.9996438,187.035531 L20.445326,185.380606 L18.7319919,185.954488 Z" opacity=".12"/>
        <path fill="#3070CD" d="M19.8351986 164.093588C12.6908436 164.093588 6.8991995 158.301944 6.8991995 151.157589 6.8991995 144.013234 12.6908436 138.22159 19.8351986 138.22159 26.9795536 138.22159 32.7711976 144.013234 32.7711976 151.157589 32.7711976 158.301944 26.9795536 164.093588 19.8351986 164.093588zM17.1724895 145.120802L13.3672114 147.613985 15.9983936 149.728252 19.8350877 147.350907 17.1724895 145.120802zM13.367199 151.842742L17.1724772 154.335925 19.8351986 152.105696 15.9983812 149.728228 13.367199 151.842742zM19.8351493 152.105659L22.4978707 154.335888 26.3031488 151.842705 23.6720898 149.728314 19.8351493 152.105659zM26.3031981 147.613973L22.49792 145.12079 19.8351986 147.350895 23.6720159 149.72824 26.3031981 147.613973zM19.8430218 152.585455L17.1725388 154.809132 16.0297356 154.060447 16.0297356 154.89975 19.8430218 157.194389 23.6563079 154.89975 23.6563079 154.060447 22.5135048 154.809132 19.8430218 152.585455zM19.8351986 129.166391C12.6908436 129.166391 6.8991995 123.374747 6.8991995 116.230392 6.8991995 109.086037 12.6908436 103.294393 19.8351986 103.294393 26.9795536 103.294393 32.7711976 109.086037 32.7711976 116.230392 32.7711976 123.374747 26.9795536 129.166391 19.8351986 129.166391zM19.834603 109.762392C16.2629982 109.762392 13.367199 112.731476 13.367199 116.394282 13.367199 119.324283 15.220304 121.809715 17.7905094 122.687046 18.1141179 122.747706 18.2320464 122.542928 18.2320464 122.367055 18.2320464 122.209908 18.2264874 121.792616 18.2233109 121.239348 16.4242068 121.639949 16.0446121 120.350211 16.0446121 120.350211 15.7503866 119.584429 15.3263205 119.380058 15.3263205 119.380058 14.7390606 118.968872 15.3707919 118.977015 15.3707919 118.977015 16.0199941 119.023833 16.3614705 119.660559 16.3614705 119.660559 16.9384067 120.673867 17.8754815 120.381152 18.2439583 120.211792 18.302724 119.783101 18.4694916 119.490793 18.6545241 119.325097 17.218338 119.157773 15.7082976 118.588628 15.7082976 116.047421 15.7082976 115.323572 15.9604342 114.731628 16.3741766 114.267925 16.3074696 114.100194 16.0855099 113.426013 16.43731 112.512856 16.43731 112.512856 16.9804957 112.33454 18.2161637 113.192736 18.7319519 113.045361 19.2854613 112.97208 19.8353971 112.969638 20.3845388 112.97208 20.9380482 113.045361 21.4546305 113.192736 22.6895044 112.33454 23.2314989 112.512856 23.2314989 112.512856 23.5844902 113.426013 23.3625305 114.100194 23.2958235 114.267925 23.71036 114.731628 23.9609083 115.323572 23.9609083 116.047421 23.9609083 118.595142 22.4484856 119.155738 21.0075347 119.319805 21.239818 119.524583 21.4466892 119.929255 21.4466892 120.548068 21.4466892 121.434356 21.4387479 122.149656 21.4387479 122.367055 21.4387479 122.544556 21.5550881 122.750963 21.8834613 122.686232 24.4516814 121.807273 26.3031981 119.323469 26.3031981 116.394282 26.3031981 112.731476 23.4070019 109.762392 19.834603 109.762392z" opacity=".123"/>
        <path fill="#3070CD" d="M19.8351986,94.2391933 C12.6908436,94.2391933 6.8991995,88.4475493 6.8991995,81.3031943 C6.8991995,74.1588392 12.6908436,68.3671952 19.8351986,68.3671952 C26.9795536,68.3671952 32.7711976,74.1588392 32.7711976,81.3031943 C32.7711976,88.4475493 26.9795536,94.2391933 19.8351986,94.2391933 Z M17.6189386,75.7044067 L13.367199,83.1560598 L15.5596721,86.9087938 L19.1623689,80.4728107 L17.6189386,75.7044067 Z M26.3011592,83.1587846 L26.3031981,83.1553786 L26.2984407,83.1553786 L21.9950496,75.7037255 L17.6189386,75.6975947 L21.3161034,82.0749945 L26.2692168,83.1553786 L18.9251795,83.1383486 L15.5698665,86.9047066 L24.1678136,86.872009 L26.2998,83.1608282 L26.3025185,83.1615094 L26.3011592,83.1587846 Z" opacity=".12"/>
        <path fill="#3070CD" d="M19.8351986,59.3119958 C12.6908436,59.3119958 6.8991995,53.5203518 6.8991995,46.3759968 C6.8991995,39.2316418 12.6908436,33.4399977 19.8351986,33.4399977 C26.9795536,33.4399977 32.7711976,39.2316418 32.7711976,46.3759968 C32.7711976,53.5203518 26.9795536,59.3119958 19.8351986,59.3119958 Z M13.367199,46.3759968 C13.367199,47.548865 13.6561116,48.6311683 14.233911,49.6229325 C14.8117232,50.6146968 15.5965115,51.3994721 16.5882628,51.9772844 C17.580027,52.5550966 18.6623433,52.8439963 19.8351986,52.8439963 C21.0080668,52.8439963 22.090383,52.5550966 23.0821343,51.9772844 C24.0738986,51.3994721 24.8586868,50.6146968 25.4364862,49.6229325 C26.0142984,48.6311683 26.3031981,47.548865 26.3031981,46.3759968 C26.3031981,45.2031285 26.0142984,44.1208252 25.4364862,43.129061 C24.8586868,42.1372968 24.0738986,41.3525214 23.0821343,40.7747092 C22.090383,40.1968969 21.0080668,39.9079972 19.8351986,39.9079972 C18.6623433,39.9079972 17.580027,40.1968969 16.5882628,40.7747092 C15.5965115,41.3525214 14.8117232,42.1372968 14.233911,43.129061 C13.6561116,44.1208252 13.367199,45.2031285 13.367199,46.3759968 Z M14.440887,46.3759968 C14.440887,46.3414965 14.4430473,46.2983808 14.447355,46.2466368 C14.4516756,46.1948928 14.453823,46.1517771 14.453823,46.1172768 C14.6176833,46.1259051 14.8677749,46.1302128 15.2041109,46.1302128 C16.9289194,46.1302128 18.5329833,45.8930571 20.0163026,45.4187328 C20.1370472,45.6602091 20.2620865,45.9318651 20.3914465,46.2337008 C19.5376706,46.4234331 18.6623433,46.8848084 17.7654387,47.6178527 C16.8685471,48.3508969 16.2131188,49.1227363 15.7991669,49.9333965 C14.8936469,48.9071449 14.440887,47.7213407 14.440887,46.3759968 Z M14.6090549,45.0435889 C14.8074156,44.3019292 15.1502195,43.6249367 15.6374669,43.012637 C16.1247272,42.4003374 16.7090074,41.9217054 17.3902947,41.5767411 C18.175083,42.3529011 18.8951913,43.323101 19.5506066,44.4873409 C18.2570067,44.8754209 16.8901114,45.0694609 15.4498949,45.0694609 C15.0790715,45.0694609 14.7987872,45.0608325 14.6090549,45.0435889 Z M16.5365188,50.6319405 C16.9245988,49.8644088 17.5218151,49.1313646 18.3281547,48.4328206 C19.1345072,47.7342767 19.9343789,47.2987604 20.7277825,47.1262847 C21.2279788,48.5061289 21.5643148,49.9333965 21.7367904,51.4081004 C21.1072471,51.6495767 20.4733832,51.7703084 19.8351986,51.7703084 C18.6105993,51.7703084 17.5110394,51.3908567 16.5365188,50.6319405 Z M18.5157267,41.1627891 C18.9555506,41.0420575 19.3953746,40.9816852 19.8351986,40.9816852 C21.1287985,40.9816852 22.2757947,41.3956371 23.2761743,42.2235411 C22.6811184,42.9824573 21.7971627,43.607693 20.6242945,44.0992609 C19.9774946,42.9263927 19.2746429,41.9475774 18.5157267,41.1627891 Z M21.0899905,45.0177169 C22.426719,44.4312892 23.3753546,43.7198093 23.9359103,42.883277 C24.7120702,43.7974253 25.1346505,44.8409206 25.2036382,46.0137888 C24.6775828,45.9879168 24.1472069,45.9749808 23.6125103,45.9749808 C22.8622224,45.9749808 22.167999,46.0051605 21.5298145,46.0655328 C21.3659671,45.6429525 21.2193505,45.2936805 21.0899905,45.0177169 Z M21.8532144,46.9710527 C22.4568987,46.927937 22.995903,46.9063727 23.4702143,46.9063727 C23.9876543,46.9063727 24.5611589,46.927937 25.1907022,46.9710527 C25.1044708,47.7730847 24.8457508,48.5190649 24.4145422,49.2089806 C23.9833466,49.8988962 23.4270986,50.4637725 22.7457984,50.9035964 C22.5905664,49.5582525 22.2930384,48.2474089 21.8532144,46.9710527 Z" opacity=".123"/>
        <g transform="translate(15.092 14.036)">
          <mask id="notif-center-g" fill="#fff">
            <use xlink:href="#notif-center-f"/>
          </mask>
          <use fill="#6D86DF" fill-rule="nonzero" xlink:href="#notif-center-f"/>
          <g fill="#FFF" mask="url(#notif-center-g)" opacity=".6">
            <rect width="14.553" height="14.553" transform="translate(-3.052 -3.08)"/>
          </g>
        </g>
        <g transform="translate(60.83 1.639)">
          <polygon fill="#FFF" points="0 7.781 339.318 7.781 339.318 266.267 0 266.267"/>
          <rect width="74.347" height="283.557" fill="#76CCA5" opacity=".504"/>
          <path fill="#FFF" d="M19.9060542,16.299054 C19.8680159,16.3751307 19.8239266,16.4287294 19.7737852,16.4598517 C19.7236437,16.4909739 19.6639936,16.5065348 19.594833,16.5065348 C19.5256724,16.5065348 19.4478678,16.4797355 19.3614171,16.426136 C19.2749663,16.3725365 19.1729559,16.3128864 19.0553829,16.2471838 C18.9378098,16.1814812 18.8003552,16.1218311 18.6430148,16.0682316 C18.4856744,16.0146322 18.299808,15.9878328 18.0854101,15.9878328 C17.8917604,15.9878328 17.7231839,16.0111742 17.5796757,16.0578576 C17.4361674,16.104541 17.3151381,16.1693781 17.2165843,16.2523708 C17.1180304,16.3353636 17.0445483,16.4347805 16.9961359,16.5506245 C16.9477235,16.6664685 16.9235176,16.7935493 16.9235176,16.9318705 C16.9235176,17.10823 16.9727938,17.2551941 17.0713477,17.3727672 C17.1699016,17.4903402 17.3004403,17.5906216 17.4629677,17.6736144 C17.6254952,17.7566071 17.810497,17.8309536 18.0179789,17.8966562 C18.2254607,17.9623588 18.4372619,18.0323829 18.6533888,18.1067305 C18.8695158,18.1810782 19.081317,18.2675277 19.2887988,18.3660815 C19.4962806,18.4646354 19.6812825,18.5891227 19.84381,18.739547 C20.0063374,18.8899713 20.1368761,19.0741087 20.23543,19.2919646 C20.3339838,19.5098206 20.38326,19.7743559 20.38326,20.0855787 C20.38326,20.4244657 20.3253389,20.7417353 20.2094949,21.0373969 C20.0936508,21.3330585 19.9242099,21.590678 19.7011669,21.8102629 C19.4781239,22.0298478 19.2058081,22.2027468 18.8842112,22.3289649 C18.5626144,22.455183 18.1943396,22.5182911 17.7793759,22.5182911 C17.5407718,22.5182911 17.3056293,22.4949498 17.0739412,22.4482664 C16.8422532,22.401583 16.620078,22.3350169 16.4074091,22.2485661 C16.1947402,22.1621153 15.9959065,22.058376 15.8109018,21.9373449 C15.6258972,21.8163138 15.4607787,21.6814526 15.3155414,21.5327573 L15.720129,20.8636317 C15.7581673,20.8152193 15.8039855,20.774588 15.857585,20.7417368 C15.9111845,20.7088855 15.9708346,20.6924601 16.0365372,20.6924601 C16.122988,20.6924601 16.2163534,20.7279043 16.3166363,20.798794 C16.4169192,20.8696836 16.5353549,20.9483526 16.6719472,21.0348034 C16.8085394,21.1212542 16.9693354,21.1999232 17.15434,21.2708128 C17.3393447,21.3417024 17.5615198,21.3771467 17.8208721,21.3771467 C18.2185456,21.3771467 18.5263058,21.2829168 18.7441617,21.0944541 C18.9620176,20.9059915 19.070944,20.6354046 19.070944,20.2826855 C19.070944,20.0855777 19.0216678,19.9247817 18.9231139,19.8002926 C18.82456,19.6758035 18.6940213,19.5711996 18.5314939,19.4864779 C18.3689664,19.4017561 18.1839646,19.3300031 17.9764827,19.2712166 C17.7690009,19.21243 17.5580642,19.1484574 17.3436663,19.0792968 C17.1292684,19.0101362 16.9183316,18.9271447 16.7108498,18.8303198 C16.503368,18.733495 16.3183661,18.6072788 16.1558386,18.4516674 C15.9933112,18.296056 15.8627725,18.1015447 15.7642186,17.8681276 C15.6656648,17.6347105 15.6163886,17.3468338 15.6163886,17.0044888 C15.6163886,16.7313043 15.6708517,16.46504 15.7797797,16.2056877 C15.8887077,15.9463354 16.0477747,15.7163798 16.2569855,15.515814 C16.4661964,15.3152482 16.7229513,15.1544522 17.027258,15.0334211 C17.3315647,14.91239 17.6790916,14.8518754 18.0698491,14.8518754 C18.512477,14.8518754 18.9205185,14.921035 19.2939858,15.0593562 C19.6674531,15.1976774 19.9855872,15.3913243 20.2483975,15.6403025 L19.9060542,16.299054 Z M23.1271937,22.5182911 C22.6672756,22.5182911 22.3128328,22.3877524 22.0638546,22.1266711 C21.8148763,21.8655898 21.6903891,21.5050955 21.6903891,21.0451774 L21.6903891,18.0730149 L21.150939,18.0730149 C21.0817784,18.0730149 21.0221283,18.050538 20.9719868,18.0055836 C20.9218454,17.9606292 20.896775,17.8931987 20.896775,17.8032899 L20.896775,17.2949619 L21.7526334,17.1549123 L22.0223584,15.7025467 C22.0361905,15.6333861 22.0681768,15.5797874 22.1183183,15.5417491 C22.1684597,15.5037108 22.2315678,15.4846919 22.3076445,15.4846919 L22.9715831,15.4846919 L22.9715831,17.1600994 L24.3720785,17.1600994 L24.3720785,18.0730149 L22.9715831,18.0730149 L22.9715831,20.9569981 C22.9715831,21.1229836 23.0130788,21.2526578 23.0960716,21.3460246 C23.1790643,21.4393914 23.2897196,21.4860741 23.4280408,21.4860741 C23.5075756,21.4860741 23.5741416,21.4765647 23.6277411,21.4575455 C23.6813406,21.4385264 23.7280233,21.418643 23.7677907,21.3978948 C23.807558,21.3771466 23.8430023,21.3572632 23.8741246,21.3382441 C23.9052469,21.3192249 23.9363687,21.3097155 23.9674909,21.3097155 C24.0055293,21.3097155 24.0366511,21.3192249 24.0608573,21.3382441 C24.0850635,21.3572632 24.1109984,21.3857916 24.1386626,21.4238299 L24.5225021,22.0462723 C24.3357684,22.2018837 24.1213737,22.319455 23.8793116,22.3989897 C23.6372495,22.4785244 23.386546,22.5182911 23.1271937,22.5182911 Z M29.5642856,22.4352988 L28.9885264,22.4352988 C28.8674953,22.4352988 28.7724009,22.4171444 28.7032403,22.3808351 C28.6340797,22.3445258 28.58221,22.2710437 28.5476297,22.1603868 L28.4335153,21.7817343 C28.2986521,21.9027654 28.1663844,22.0090982 28.0367082,22.100736 C27.9070321,22.1923738 27.7730354,22.2693139 27.6347142,22.3315584 C27.4963929,22.393803 27.3494288,22.4404857 27.1938175,22.471608 C27.0382061,22.5027302 26.8653071,22.5182911 26.6751154,22.5182911 C26.4503434,22.5182911 26.2428647,22.4880338 26.052673,22.4275183 C25.8624813,22.3670028 25.6990918,22.2762308 25.5624996,22.1551997 C25.4259074,22.0341687 25.3195746,21.8837466 25.2434979,21.703929 C25.1674212,21.5241114 25.1293834,21.3149037 25.1293834,21.0762996 C25.1293834,20.8757338 25.1821176,20.6777645 25.2875876,20.4823858 C25.3930575,20.287007 25.5685499,20.1106501 25.8140701,19.9533097 C26.0595903,19.7959693 26.3863693,19.6654306 26.7944169,19.5616897 C27.2024645,19.4579488 27.7090584,19.3991631 28.3142138,19.385331 L28.3142138,19.0741098 C28.3142138,18.7179326 28.2390028,18.4542617 28.0885784,18.2830892 C27.9381541,18.1119167 27.7194369,18.0263317 27.4324204,18.0263317 C27.2249385,18.0263317 27.0520396,18.0505376 26.9137184,18.09895 C26.7753971,18.1473624 26.6552324,18.2018256 26.5532205,18.2623411 C26.4512086,18.3228567 26.3569786,18.3773198 26.2705279,18.4257323 C26.1840771,18.4741447 26.0889827,18.4983506 25.9852418,18.4983506 C25.898791,18.4983506 25.8244445,18.4758737 25.7621999,18.4309193 C25.6999553,18.3859649 25.6498147,18.3306372 25.6117763,18.2649347 L25.3783604,17.8551601 C25.9904318,17.2949591 26.7287103,17.0148628 27.593218,17.0148628 C27.9044408,17.0148628 28.1819436,17.065868 28.4257347,17.1678799 C28.6695259,17.2698918 28.8761401,17.4116689 29.0455836,17.5932155 C29.2150271,17.7747622 29.3438368,17.9917503 29.4320166,18.2441866 C29.5201964,18.4966228 29.5642856,18.7732611 29.5642856,19.0741098 L29.5642856,22.4352988 Z M27.074516,21.6364977 C27.2059212,21.6364977 27.3269504,21.6243948 27.4376074,21.6001886 C27.5482644,21.5759824 27.6528682,21.5396736 27.7514221,21.4912612 C27.849976,21.4428487 27.9450704,21.3831986 28.0367082,21.312309 C28.128346,21.2414193 28.220847,21.1575634 28.3142138,21.0607385 L28.3142138,20.163384 C27.9407465,20.1806742 27.6286639,20.2126605 27.3779567,20.2593439 C27.1272494,20.3060273 26.9258222,20.3656774 26.7736688,20.4382961 C26.6215155,20.5109147 26.5134536,20.5956352 26.4494801,20.6924601 C26.3855065,20.7892849 26.3535202,20.8947533 26.3535202,21.0088683 C26.3535202,21.2336403 26.4200863,21.3944363 26.5532205,21.4912612 C26.6863547,21.588086 26.8601181,21.6364977 27.074516,21.6364977 Z M32.5727573,22.5182911 C32.1128392,22.5182911 31.7583964,22.3877524 31.5094182,22.1266711 C31.26044,21.8655898 31.1359527,21.5050955 31.1359527,21.0451774 L31.1359527,18.0730149 L30.5965026,18.0730149 C30.527342,18.0730149 30.4676919,18.050538 30.4175505,18.0055836 C30.367409,17.9606292 30.3423387,17.8931987 30.3423387,17.8032899 L30.3423387,17.2949619 L31.198197,17.1549123 L31.467922,15.7025467 C31.4817542,15.6333861 31.5137405,15.5797874 31.5638819,15.5417491 C31.6140233,15.5037108 31.6771315,15.4846919 31.7532081,15.4846919 L32.4171467,15.4846919 L32.4171467,17.1600994 L33.8176421,17.1600994 L33.8176421,18.0730149 L32.4171467,18.0730149 L32.4171467,20.9569981 C32.4171467,21.1229836 32.4586425,21.2526578 32.5416352,21.3460246 C32.6246279,21.4393914 32.7352833,21.4860741 32.8736045,21.4860741 C32.9531392,21.4860741 33.0197053,21.4765647 33.0733048,21.4575455 C33.1269042,21.4385264 33.1735869,21.418643 33.2133543,21.3978948 C33.2531216,21.3771466 33.2885659,21.3572632 33.3196882,21.3382441 C33.3508105,21.3192249 33.3819323,21.3097155 33.4130546,21.3097155 C33.4510929,21.3097155 33.4822147,21.3192249 33.5064209,21.3382441 C33.5306271,21.3572632 33.556562,21.3857916 33.5842262,21.4238299 L33.9680657,22.0462723 C33.7813321,22.2018837 33.5669374,22.319455 33.3248752,22.3989897 C33.0828131,22.4785244 32.8321096,22.5182911 32.5727573,22.5182911 Z M36.2036714,17.1134162 L36.2036714,22.4352988 L34.9224774,22.4352988 L34.9224774,17.1134162 L36.2036714,17.1134162 Z M36.3955911,15.5624972 C36.3955911,15.6731542 36.3731143,15.7768935 36.3281599,15.8737184 C36.2832055,15.9705432 36.2235553,16.0552637 36.1492077,16.1278824 C36.07486,16.200501 35.9875461,16.2584222 35.8872632,16.3016475 C35.7869803,16.3448729 35.6797829,16.3664853 35.5656679,16.3664853 C35.4550109,16.3664853 35.3504071,16.3448729 35.2518532,16.3016475 C35.1532993,16.2584222 35.0677143,16.200501 34.9950957,16.1278824 C34.9224771,16.0552637 34.8645559,15.9705432 34.8213305,15.8737184 C34.7781051,15.7768935 34.7564928,15.6731542 34.7564928,15.5624972 C34.7564928,15.4483822 34.7781051,15.3411848 34.8213305,15.2409019 C34.8645559,15.140619 34.9224771,15.0541696 34.9950957,14.9815509 C35.0677143,14.9089323 35.1532993,14.8510111 35.2518532,14.8077857 C35.3504071,14.7645604 35.4550109,14.742948 35.5656679,14.742948 C35.6797829,14.742948 35.7869803,14.7645604 35.8872632,14.8077857 C35.9875461,14.8510111 36.07486,14.9089323 36.1492077,14.9815509 C36.2235553,15.0541696 36.2832055,15.140619 36.3281599,15.2409019 C36.3731143,15.3411848 36.3955911,15.4483822 36.3955911,15.5624972 Z M39.9227648,17.0304239 C40.3204383,17.0304239 40.6809326,17.0943965 41.0042585,17.2223436 C41.3275844,17.3502907 41.6033582,17.5318346 41.8315882,17.7669807 C42.0598182,18.0021268 42.2361752,18.2891391 42.3606643,18.6280261 C42.4851534,18.9669131 42.547397,19.3455618 42.547397,19.7639835 C42.547397,20.1858632 42.4851534,20.5662409 42.3606643,20.9051279 C42.2361752,21.2440149 42.0598182,21.5327561 41.8315882,21.7713602 C41.6033582,22.0099644 41.3275844,22.1932372 41.0042585,22.3211844 C40.6809326,22.4491315 40.3204383,22.5131041 39.9227648,22.5131041 C39.5250913,22.5131041 39.1637325,22.4491315 38.8386776,22.3211844 C38.5136227,22.1932372 38.2361199,22.0099644 38.0061609,21.7713602 C37.7762018,21.5327561 37.5981159,21.2440149 37.4718978,20.9051279 C37.3456797,20.5662409 37.2825716,20.1858632 37.2825716,19.7639835 C37.2825716,19.3455618 37.3456797,18.9669131 37.4718978,18.6280261 C37.5981159,18.2891391 37.7762018,18.0021268 38.0061609,17.7669807 C38.2361199,17.5318346 38.5136227,17.3502907 38.8386776,17.2223436 C39.1637325,17.0943965 39.5250913,17.0304239 39.9227648,17.0304239 Z M39.9227648,21.5275703 C40.3653927,21.5275703 40.6930362,21.3788772 40.9057051,21.0814866 C41.118374,20.7840959 41.2247069,20.3483906 41.2247069,19.7743575 C41.2247069,19.2003244 41.118374,18.7628901 40.9057051,18.4620414 C40.6930362,18.1611927 40.3653927,18.0107707 39.9227648,18.0107707 C39.4732208,18.0107707 39.1412549,18.1620572 38.926857,18.4646349 C38.712459,18.7672126 38.6052617,19.2037824 38.6052617,19.7743575 C38.6052617,20.3449326 38.712459,20.7797734 38.926857,21.0788931 C39.1412549,21.3780127 39.4732208,21.5275703 39.9227648,21.5275703 Z M43.5484919,22.4352988 L43.5484919,17.1134162 L44.3317319,17.1134162 C44.4977174,17.1134162 44.6066437,17.1912207 44.6585142,17.3468321 L44.7466935,17.7669807 C44.8538925,17.6563237 44.9671413,17.5560424 45.0864433,17.4661336 C45.2057454,17.3762248 45.3319616,17.2984202 45.4650958,17.2327176 C45.59823,17.1670151 45.7408716,17.1168744 45.893025,17.0822941 C46.0451783,17.0477138 46.2111613,17.0304239 46.3909789,17.0304239 C46.6814535,17.0304239 46.9390729,17.0797001 47.1638449,17.1782539 C47.3886169,17.2768078 47.5762122,17.415127 47.7266366,17.5932155 C47.8770609,17.7713041 47.9911742,17.9839698 48.0689799,18.231219 C48.1467856,18.4784682 48.1856879,18.750784 48.1856879,19.0481747 L48.1856879,22.4352988 L46.9044939,22.4352988 L46.9044939,19.0481747 C46.9044939,18.7231198 46.8292828,18.4715518 46.6788585,18.2934633 C46.5284342,18.1153747 46.3028011,18.0263317 46.0019524,18.0263317 C45.7806384,18.0263317 45.5731597,18.0764724 45.37951,18.1767553 C45.1858603,18.2770382 45.0025874,18.4136284 44.8296858,18.5865299 L44.8296858,22.4352988 L43.5484919,22.4352988 Z"/>
          <rect width="58.786" height="6.052" x="88.037" y="20.354" fill="#D8D8D8"/>
          <rect width="74.347" height="15.561" y="77.373" fill="#CAEADC"/>
          <rect width="58.786" height="6.052" x="105.037" y="58.354" fill="#D8D8D8"/>
          <polygon fill="#D8D8D8" points="105.037 91.205 216.558 91.205 216.558 97.257 105.037 97.257"/>
          <polygon fill="#D8D8D8" points="105.037 100.715 176.359 100.715 176.359 106.766 105.037 106.766"/>
          <rect width="38.47" height="6.052" x="105.037" y="134.43" fill="#D8D8D8"/>
          <rect width="102.011" height="60.515" x="105.469" y="149.559" stroke="#D8D8D8" stroke-width=".865" rx="2.594"/>
          <path stroke="#D8D8D8" stroke-width=".865" d="M161.662127,176.045418 C161.662127,175.768564 161.573521,175.498977 161.409274,175.276106 L159.091729,172.131359 C158.847307,171.799695 158.459824,171.603915 158.047826,171.603915 L152.15259,171.603915 C151.675138,171.603915 151.288087,171.990967 151.288087,172.468419 L151.288087,185.435969 C151.288087,185.913421 151.675138,186.300472 152.15259,186.300472 L160.797624,186.300472 C161.275076,186.300472 161.662127,185.913421 161.662127,185.435969 L161.662127,176.045418 Z"/>
          <rect width="20.748" height="6.052" x="14.697" y="65.27" fill="#FFF" opacity=".95"/>
          <polygon fill="#FFF" points="14.697 173.765 46.251 173.765 46.251 179.817 14.697 179.817" opacity=".899"/>
          <rect width="19.451" height="4.323" x="105.037" y="48.844" fill="#EAEAEA"/>
          <rect width="13.832" height="4.323" x="105.037" y="81.696" fill="#EAEAEA"/>
          <rect width="19.451" height="4.323" x="105.037" y="124.921" fill="#EAEAEA"/>
          <rect width="10.374" height="10.374" x="88.179" y="47.98" fill="#EAEAEA" rx="1.729"/>
          <rect width="10.374" height="10.374" x="88.179" y="80.831" fill="#EAEAEA" rx="1.729"/>
          <rect width="10.374" height="10.374" x="88.179" y="124.056" fill="#EAEAEA" rx="1.729"/>
          <polygon fill="#FFF" points="14.697 82.992 49.277 82.992 49.277 89.044 14.697 89.044" opacity=".703"/>
          <polygon fill="#FFF" points="14.697 191.487 33.283 191.487 33.283 197.539 14.697 197.539" opacity=".703"/>
          <polygon fill="#FFF" points="14.697 100.715 31.987 100.715 31.987 106.766 14.697 106.766" opacity=".703"/>
          <polygon fill="#FFF" points="14.697 30.258 31.987 30.258 31.987 36.309 14.697 36.309" opacity=".703"/>
          <polygon fill="#FFF" points="14.697 118.437 39.335 118.437 39.335 124.488 14.697 124.488" opacity=".703"/>
          <polygon fill="#FFF" points="14.697 136.159 31.987 136.159 31.987 142.211 14.697 142.211" opacity=".703"/>
          <polyline stroke="#FFF" stroke-width=".865" points="54.031 18.587 56.553 21.18 59.218 18.587"/>
          <g transform="translate(153.882 177.655)">
            <mask id="notif-center-i" fill="#fff">
              <use xlink:href="#notif-center-h"/>
            </mask>
            <use fill="#000" fill-rule="nonzero" xlink:href="#notif-center-h"/>
            <g fill="#C9C9C9" mask="url(#notif-center-i)">
              <rect width="6.031" height="6.031" transform="translate(-.432 -.432)"/>
            </g>
          </g>
          <path stroke="#EFEFEF" stroke-linecap="square" stroke-width=".55" d="M74.5634141,33.9317566 L442.841842,33.9317566"/>
        </g>
        <use fill="#000" filter="url(#notif-center-j)" xlink:href="#notif-center-k"/>
        <use fill="#FFF" xlink:href="#notif-center-k"/>
        <path stroke="#3070CD" stroke-linecap="square" stroke-width="1.294" d="M141.468803,1.10000002 L141.468803,285.47638"/>
        <g transform="translate(38.069 7.938)">
          <rect width="83.6" height="3.3" x="8.8" y="69.4" fill="#3070CD" opacity=".498"/>
          <rect width="59.4" height="3.3" x="8.8" y="75.9" fill="#3070CD" opacity=".498"/>
          <rect width="83.6" height="3.3" x="9" y="103.1" fill="#3070CD" opacity=".498"/>
          <polygon fill="#3070CD" points="9 110.1 92.05 110.1 92.05 113.4 9 113.4" opacity=".498"/>
          <polygon fill="#3070CD" points="8.8 177.765 91.85 177.765 91.85 181.065 8.8 181.065" opacity=".498"/>
          <polygon fill="#3070CD" points="9 117.1 79.994 117.1 79.994 120.4 9 120.4" opacity=".498"/>
          <polygon fill="#3070CD" points="8.8 185.265 90.51 185.265 90.51 188.565 8.8 188.565" opacity=".5"/>
          <path fill="#3070CD" d="M10.3081523 64.0623997L9.39628703 64.0623997 9.39628703 58.7779759 10.2165995 58.7779759 12.8386698 62.4803685 12.8716288 62.4803685 12.8716288 58.7779759 13.7798319 58.7779759 13.7798319 64.0623997 12.9668437 64.0623997 10.3411112 60.3563451 10.3081523 60.3563451 10.3081523 64.0623997zM16.2957011 60.8067845C15.7830058 60.8067845 15.4131327 61.1986302 15.3765116 61.7406224L17.1892558 61.7406224C17.1709452 61.191306 16.8193827 60.8067845 16.2957011 60.8067845zM17.1929179 62.9015111L18.0461894 62.9015111C17.9290019 63.633933 17.2478495 64.139304 16.3286601 64.139304 15.1641093 64.139304 14.4609843 63.3739232 14.4609843 62.1361302 14.4609843 60.9093236 15.1714335 60.0999974 16.292039 60.0999974 17.3943339 60.0999974 18.0828105 60.8653783 18.0828105 62.0445775L18.0828105 62.3412083 15.3691874 62.3412083 15.3691874 62.39614C15.3691874 63.0186986 15.7500468 63.436179 16.3469706 63.436179 16.7717753 63.436179 17.0940409 63.2237767 17.1929179 62.9015111zM23.9348612 60.1805638L22.8838359 64.0623997 21.9243632 64.0623997 21.1589823 61.224265 21.1406718 61.224265 20.378953 64.0623997 19.4268046 64.0623997 18.3757792 60.1805638 19.2913066 60.1805638 19.9468241 63.1615208 19.9651347 63.1615208 20.7231913 60.1805638 21.5984355 60.1805638 22.3564921 63.1615208 22.3784648 63.1615208 23.0339823 60.1805638 23.9348612 60.1805638zM25.8904277 64.0623997L25.8904277 60.1805638 26.7656718 60.1805638 26.7656718 60.8543919 26.7839823 60.8543919C26.9524394 60.4039525 27.3625956 60.1073216 27.8899394 60.1073216 28.4392558 60.1073216 28.8311015 60.389304 28.9739237 60.8873509L28.9958964 60.8873509C29.182664 60.4076146 29.6440898 60.1073216 30.2043925 60.1073216 30.9697734 60.1073216 31.4714823 60.623679 31.4714823 61.4000462L31.4714823 64.0623997 30.5596171 64.0623997 30.5596171 61.6234349C30.5596171 61.1473607 30.3105937 60.8763646 29.8638163 60.8763646 29.4243632 60.8763646 29.1240702 61.1986302 29.1240702 61.6637181L29.1240702 64.0623997 28.2378398 64.0623997 28.2378398 61.5758275C28.2378398 61.1436986 27.9741679 60.8763646 27.5493632 60.8763646 27.1099101 60.8763646 26.8022929 61.2169408 26.8022929 61.6856908L26.8022929 64.0623997 25.8904277 64.0623997zM33.8738261 60.8067845C33.3611308 60.8067845 32.9912577 61.1986302 32.9546366 61.7406224L34.7673808 61.7406224C34.7490702 61.191306 34.3975077 60.8067845 33.8738261 60.8067845zM34.7710429 62.9015111L35.6243144 62.9015111C35.5071269 63.633933 34.8259745 64.139304 33.9067851 64.139304 32.7422343 64.139304 32.0391093 63.3739232 32.0391093 62.1361302 32.0391093 60.9093236 32.7495585 60.0999974 33.870164 60.0999974 34.9724589 60.0999974 35.6609355 60.8653783 35.6609355 62.0445775L35.6609355 62.3412083 32.9473124 62.3412083 32.9473124 62.39614C32.9473124 63.0186986 33.3281718 63.436179 33.9250956 63.436179 34.3499003 63.436179 34.6721659 63.2237767 34.7710429 62.9015111zM36.1772929 61.2938451C36.1772929 60.5833958 36.7961894 60.0999974 37.7336894 60.0999974 38.6785136 60.0999974 39.2790995 60.6090306 39.3010722 61.3451146L38.4514628 61.3451146C38.4148417 60.9935521 38.1548319 60.7701634 37.7336894 60.7701634 37.3308573 60.7701634 37.0635234 60.9605931 37.0635234 61.2462376 37.0635234 61.4696263 37.2246562 61.6234349 37.6311503 61.7149876L38.2756816 61.8578099C39.0813456 62.0372533 39.3926249 62.3485326 39.3926249 62.9124974 39.3926249 63.6449193 38.7187968 64.139304 37.7666484 64.139304 36.7522441 64.139304 36.1516581 63.6559056 36.0784159 62.9051732L36.9756327 62.9051732C37.0452128 63.2823705 37.3052226 63.4728001 37.7666484 63.4728001 38.2097636 63.4728001 38.4844218 63.2896947 38.4844218 63.000388 38.4844218 62.766013 38.3452616 62.6341771 37.9387675 62.5426244L37.2942362 62.3998021C36.550828 62.2350072 36.1772929 61.8687962 36.1772929 61.2938451zM39.9016581 61.2938451C39.9016581 60.5833958 40.5205546 60.0999974 41.4580546 60.0999974 42.4028788 60.0999974 43.0034648 60.6090306 43.0254374 61.3451146L42.175828 61.3451146C42.1392069 60.9935521 41.8791972 60.7701634 41.4580546 60.7701634 41.0552226 60.7701634 40.7878886 60.9605931 40.7878886 61.2462376 40.7878886 61.4696263 40.9490214 61.6234349 41.3555155 61.7149876L42.0000468 61.8578099C42.8057109 62.0372533 43.1169902 62.3485326 43.1169902 62.9124974 43.1169902 63.6449193 42.443162 64.139304 41.4910136 64.139304 40.4766093 64.139304 39.8760234 63.6559056 39.8027812 62.9051732L40.699998 62.9051732C40.769578 63.2823705 41.0295878 63.4728001 41.4910136 63.4728001 41.9341288 63.4728001 42.208787 63.2896947 42.208787 63.000388 42.208787 62.766013 42.0696269 62.6341771 41.6631327 62.5426244L41.0186015 62.3998021C40.2751933 62.2350072 39.9016581 61.8687962 39.9016581 61.2938451zM45.1128398 63.436179C45.6291972 63.436179 46.0430155 63.0919408 46.0430155 62.6231908L46.0430155 62.3265599 45.1457987 62.3814915C44.7063456 62.4107884 44.4536601 62.6085423 44.4536601 62.9161595 44.4536601 63.234763 44.7173319 63.436179 45.1128398 63.436179zM44.8381816 64.1246556C44.0874491 64.1246556 43.5417948 63.6522435 43.5417948 62.9527806 43.5417948 62.264304 44.0728007 61.8504857 45.0176249 61.7918919L46.0430155 61.7332982 46.0430155 61.4549779C46.0430155 61.0484837 45.7683573 60.8141087 45.3179179 60.8141087 44.885789 60.8141087 44.6111308 61.022849 44.552537 61.3451146L43.7065898 61.3451146C43.746873 60.6200169 44.3657694 60.0999974 45.354539 60.0999974 46.3176737 60.0999974 46.9438944 60.6090306 46.9438944 61.3890599L46.9438944 64.0623997 46.0649882 64.0623997 46.0649882 63.4435033 46.0466777 63.4435033C45.823289 63.8646458 45.3362284 64.1246556 44.8381816 64.1246556zM49.3901835 63.3409642C49.9724589 63.3409642 50.3496562 62.8685521 50.3496562 62.1104955 50.3496562 61.3561009 49.9724589 60.8653783 49.3901835 60.8653783 48.8152323 60.8653783 48.4490214 61.3487767 48.4490214 62.1104955 48.4490214 62.8795384 48.8152323 63.3409642 49.3901835 63.3409642zM49.3865214 65.5272435C48.4270487 65.5272435 47.7385722 65.0365208 47.6470194 64.3553685L48.5515605 64.3553685C48.6504374 64.6519994 48.9836894 64.8534154 49.4158183 64.8534154 50.00908 64.8534154 50.3496562 64.5201634 50.3496562 64.0257787L50.3496562 63.3702611 50.3276835 63.3702611C50.1262675 63.7877415 49.6685038 64.0660619 49.1118632 64.0660619 48.1523905 64.0660619 47.5151835 63.3153294 47.5151835 62.1068333 47.5151835 60.8800267 48.1377421 60.1146458 49.1301737 60.1146458 49.6831523 60.1146458 50.1299296 60.4002904 50.3533183 60.8470677L50.3679667 60.8470677 50.3679667 60.1805638 51.2615214 60.1805638 51.2615214 64.0001439C51.2615214 64.9266576 50.5181132 65.5272435 49.3865214 65.5272435zM53.6785136 60.8067845C53.1658183 60.8067845 52.7959452 61.1986302 52.7593241 61.7406224L54.5720683 61.7406224C54.5537577 61.191306 54.2021952 60.8067845 53.6785136 60.8067845zM54.5757304 62.9015111L55.4290019 62.9015111C55.3118144 63.633933 54.630662 64.139304 53.7114726 64.139304 52.5469218 64.139304 51.8437968 63.3739232 51.8437968 62.1361302 51.8437968 60.9093236 52.554246 60.0999974 53.6748515 60.0999974 54.7771464 60.0999974 55.465623 60.8653783 55.465623 62.0445775L55.465623 62.3412083 52.7519999 62.3412083 52.7519999 62.39614C52.7519999 63.0186986 53.1328593 63.436179 53.7297831 63.436179 54.1545878 63.436179 54.4768534 63.2237767 54.5757304 62.9015111zM57.8057109 64.0623997L57.8057109 60.8836888 57.274705 60.8836888 57.274705 60.1915501 57.8057109 60.1915501 57.8057109 59.8473119C57.8057109 59.0929173 58.1645976 58.7376927 59.0068827 58.7376927 59.1863261 58.7376927 59.38408 58.7560033 59.4976054 58.7779759L59.4976054 59.415183C59.4207011 59.4041966 59.3144999 59.3932103 59.2082987 59.3932103 58.8603984 59.3932103 58.7029277 59.5580052 58.7029277 59.8729466L58.7029277 60.1915501 59.4792948 60.1915501 59.4792948 60.8836888 58.7175761 60.8836888 58.7175761 64.0623997 57.8057109 64.0623997zM60.0798808 64.0623997L60.0798808 60.1805638 60.9551249 60.1805638 60.9551249 60.858054 60.9734355 60.858054C61.1052714 60.3856419 61.4458476 60.1146458 61.9036112 60.1146458 62.0207987 60.1146458 62.1233378 60.1366185 62.1892558 60.1512669L62.1892558 60.9752415C62.1123515 60.9459447 61.9731913 60.923972 61.8193827 60.923972 61.3030253 60.923972 60.991746 61.257224 60.991746 61.8028783L60.991746 64.0623997 60.0798808 64.0623997zM64.3755351 64.139304C63.2366191 64.139304 62.496873 63.3812474 62.496873 62.1214818 62.496873 60.8690404 63.2439433 60.0999974 64.3755351 60.0999974 65.5071269 60.0999974 66.2541972 60.8653783 66.2541972 62.1214818 66.2541972 63.3812474 65.5144511 64.139304 64.3755351 64.139304zM64.3755351 63.4178685C64.9541484 63.4178685 65.3276835 62.9491185 65.3276835 62.1214818 65.3276835 61.2975072 64.9541484 60.8250951 64.3755351 60.8250951 63.8005839 60.8250951 63.4233866 61.2975072 63.4233866 62.1214818 63.4233866 62.9491185 63.7969218 63.4178685 64.3755351 63.4178685zM66.8401347 64.0623997L66.8401347 60.1805638 67.7153788 60.1805638 67.7153788 60.8543919 67.7336894 60.8543919C67.9021464 60.4039525 68.3123027 60.1073216 68.8396464 60.1073216 69.3889628 60.1073216 69.7808085 60.389304 69.9236308 60.8873509L69.9456034 60.8873509C70.132371 60.4076146 70.5937968 60.1073216 71.1540995 60.1073216 71.9194804 60.1073216 72.4211894 60.623679 72.4211894 61.4000462L72.4211894 64.0623997 71.5093241 64.0623997 71.5093241 61.6234349C71.5093241 61.1473607 71.2603007 60.8763646 70.8135234 60.8763646 70.3740702 60.8763646 70.0737773 61.1986302 70.0737773 61.6637181L70.0737773 64.0623997 69.1875468 64.0623997 69.1875468 61.5758275C69.1875468 61.1436986 68.9238749 60.8763646 68.4990702 60.8763646 68.0596171 60.8763646 67.7519999 61.2169408 67.7519999 61.6856908L67.7519999 64.0623997 66.8401347 64.0623997zM74.4060527 62.6195287L75.3252421 62.6195287C75.3362284 63.0553197 75.6365214 63.3482884 76.0759745 63.3482884 76.5813456 63.3482884 76.8560038 63.0406712 76.8560038 62.4693822L76.8560038 58.7779759 77.7971659 58.7779759 77.7971659 62.4767064C77.7971659 63.5533665 77.1599589 64.1759251 76.0869609 64.1759251 75.0798808 64.1759251 74.4060527 63.5570287 74.4060527 62.6195287zM82.1074687 60.1805638L82.1074687 64.0623997 81.2285624 64.0623997 81.2285624 63.3885716 81.2102519 63.3885716C81.0051737 63.8609837 80.613328 64.1319798 80.0237284 64.1319798 79.1814433 64.1319798 78.6467753 63.5863255 78.6467753 62.6891087L78.6467753 60.1805638 79.5586405 60.1805638 79.5586405 62.5060033C79.5586405 63.0626439 79.8296366 63.3629369 80.3423319 63.3629369 80.8696757 63.3629369 81.1956034 62.9894017 81.1956034 62.4254369L81.1956034 60.1805638 82.1074687 60.1805638zM82.8765116 64.0623997L82.8765116 58.7779759 83.7883769 58.7779759 83.7883769 64.0623997 82.8765116 64.0623997zM84.5867167 64.0623997L84.5867167 60.1805638 85.4985819 60.1805638 85.4985819 64.0623997 84.5867167 64.0623997zM85.0371562 59.5946263C84.762498 59.5946263 84.5391093 59.3712376 84.5391093 59.1002415 84.5391093 58.8255833 84.762498 58.6058568 85.0371562 58.6058568 85.3191386 58.6058568 85.5388652 58.8255833 85.5388652 59.1002415 85.5388652 59.3712376 85.3191386 59.5946263 85.0371562 59.5946263zM87.9375468 60.8067845C87.4248515 60.8067845 87.0549784 61.1986302 87.0183573 61.7406224L88.8311015 61.7406224C88.8127909 61.191306 88.4612284 60.8067845 87.9375468 60.8067845zM88.8347636 62.9015111L89.6880351 62.9015111C89.5708476 63.633933 88.8896952 64.139304 87.9705058 64.139304 86.805955 64.139304 86.10283 63.3739232 86.10283 62.1361302 86.10283 60.9093236 86.8132792 60.0999974 87.9338847 60.0999974 89.0361796 60.0999974 89.7246562 60.8653783 89.7246562 62.0445775L89.7246562 62.3412083 87.0110331 62.3412083 87.0110331 62.39614C87.0110331 63.0186986 87.3918925 63.436179 87.9888163 63.436179 88.413621 63.436179 88.7358866 63.2237767 88.8347636 62.9015111zM90.3105937 64.0623997L90.3105937 60.1805638 91.1858378 60.1805638 91.1858378 60.8470677 91.2041484 60.8470677C91.4128886 60.3856419 91.8267069 60.1073216 92.4236308 60.1073216 93.2805644 60.1073216 93.7676249 60.656638 93.7676249 61.5538548L93.7676249 64.0623997 92.8557597 64.0623997 92.8557597 61.7369603C92.8557597 61.1876439 92.599412 60.8800267 92.0793925 60.8800267 91.5557109 60.8800267 91.2224589 61.257224 91.2224589 61.8138646L91.2224589 64.0623997 90.3105937 64.0623997zM10.3769531 98L9.46508789 98 9.46508789 92.7155762 10.2854004 92.7155762 12.9074707 96.4179688 12.9404297 96.4179688 12.9404297 92.7155762 13.8486328 92.7155762 13.8486328 98 13.0356445 98 10.4099121 94.2939453 10.3769531 94.2939453 10.3769531 98zM16.364502 94.7443848C15.8518066 94.7443848 15.4819336 95.1362305 15.4453125 95.6782227L17.2580566 95.6782227C17.2397461 95.1289062 16.8881836 94.7443848 16.364502 94.7443848zM17.2617188 96.8391113L18.1149902 96.8391113C17.9978027 97.5715332 17.3166504 98.0769043 16.3974609 98.0769043 15.2329102 98.0769043 14.5297852 97.3115234 14.5297852 96.0737305 14.5297852 94.8469238 15.2402344 94.0375977 16.3608398 94.0375977 17.4631348 94.0375977 18.1516113 94.8029785 18.1516113 95.9821777L18.1516113 96.2788086 15.4379883 96.2788086 15.4379883 96.3337402C15.4379883 96.9562988 15.8188477 97.3737793 16.4157715 97.3737793 16.8405762 97.3737793 17.1628418 97.161377 17.2617188 96.8391113zM24.0036621 94.1181641L22.9526367 98 21.9931641 98 21.2277832 95.1618652 21.2094727 95.1618652 20.4477539 98 19.4956055 98 18.4445801 94.1181641 19.3601074 94.1181641 20.015625 97.0991211 20.0339355 97.0991211 20.7919922 94.1181641 21.6672363 94.1181641 22.425293 97.0991211 22.4472656 97.0991211 23.1027832 94.1181641 24.0036621 94.1181641zM25.9592285 98L25.9592285 94.1181641 26.8344727 94.1181641 26.8344727 94.7919922 26.8527832 94.7919922C27.0212402 94.3415527 27.4313965 94.0449219 27.9587402 94.0449219 28.5080566 94.0449219 28.8999023 94.3269043 29.0427246 94.8249512L29.0646973 94.8249512C29.2514648 94.3452148 29.7128906 94.0449219 30.2731934 94.0449219 31.0385742 94.0449219 31.5402832 94.5612793 31.5402832 95.3376465L31.5402832 98 30.628418 98 30.628418 95.5610352C30.628418 95.0849609 30.3793945 94.8139648 29.9326172 94.8139648 29.4931641 94.8139648 29.1928711 95.1362305 29.1928711 95.6013184L29.1928711 98 28.3066406 98 28.3066406 95.5134277C28.3066406 95.0812988 28.0429688 94.8139648 27.6181641 94.8139648 27.1787109 94.8139648 26.8710938 95.154541 26.8710938 95.623291L26.8710938 98 25.9592285 98zM33.942627 94.7443848C33.4299316 94.7443848 33.0600586 95.1362305 33.0234375 95.6782227L34.8361816 95.6782227C34.8178711 95.1289062 34.4663086 94.7443848 33.942627 94.7443848zM34.8398438 96.8391113L35.6931152 96.8391113C35.5759277 97.5715332 34.8947754 98.0769043 33.9755859 98.0769043 32.8110352 98.0769043 32.1079102 97.3115234 32.1079102 96.0737305 32.1079102 94.8469238 32.8183594 94.0375977 33.9389648 94.0375977 35.0412598 94.0375977 35.7297363 94.8029785 35.7297363 95.9821777L35.7297363 96.2788086 33.0161133 96.2788086 33.0161133 96.3337402C33.0161133 96.9562988 33.3969727 97.3737793 33.9938965 97.3737793 34.4187012 97.3737793 34.7409668 97.161377 34.8398438 96.8391113zM36.2460938 95.2314453C36.2460938 94.5209961 36.8649902 94.0375977 37.8024902 94.0375977 38.7473145 94.0375977 39.3479004 94.5466309 39.369873 95.2827148L38.5202637 95.2827148C38.4836426 94.9311523 38.2236328 94.7077637 37.8024902 94.7077637 37.3996582 94.7077637 37.1323242 94.8981934 37.1323242 95.1838379 37.1323242 95.4072266 37.293457 95.5610352 37.6999512 95.6525879L38.3444824 95.7954102C39.1501465 95.9748535 39.4614258 96.2861328 39.4614258 96.8500977 39.4614258 97.5825195 38.7875977 98.0769043 37.8354492 98.0769043 36.8210449 98.0769043 36.220459 97.5935059 36.1472168 96.8427734L37.0444336 96.8427734C37.1140137 97.2199707 37.3740234 97.4104004 37.8354492 97.4104004 38.2785645 97.4104004 38.5532227 97.2272949 38.5532227 96.9379883 38.5532227 96.7036133 38.4140625 96.5717773 38.0075684 96.4802246L37.3630371 96.3374023C36.6196289 96.1726074 36.2460938 95.8063965 36.2460938 95.2314453zM39.970459 95.2314453C39.970459 94.5209961 40.5893555 94.0375977 41.5268555 94.0375977 42.4716797 94.0375977 43.0722656 94.5466309 43.0942383 95.2827148L42.2446289 95.2827148C42.2080078 94.9311523 41.947998 94.7077637 41.5268555 94.7077637 41.1240234 94.7077637 40.8566895 94.8981934 40.8566895 95.1838379 40.8566895 95.4072266 41.0178223 95.5610352 41.4243164 95.6525879L42.0688477 95.7954102C42.8745117 95.9748535 43.185791 96.2861328 43.185791 96.8500977 43.185791 97.5825195 42.5119629 98.0769043 41.5598145 98.0769043 40.5454102 98.0769043 39.9448242 97.5935059 39.871582 96.8427734L40.7687988 96.8427734C40.8383789 97.2199707 41.0983887 97.4104004 41.5598145 97.4104004 42.0029297 97.4104004 42.2775879 97.2272949 42.2775879 96.9379883 42.2775879 96.7036133 42.1384277 96.5717773 41.7319336 96.4802246L41.0874023 96.3374023C40.3439941 96.1726074 39.970459 95.8063965 39.970459 95.2314453zM45.1816406 97.3737793C45.697998 97.3737793 46.1118164 97.029541 46.1118164 96.560791L46.1118164 96.2641602 45.2145996 96.3190918C44.7751465 96.3483887 44.5224609 96.5461426 44.5224609 96.8537598 44.5224609 97.1723633 44.7861328 97.3737793 45.1816406 97.3737793zM44.9069824 98.0622559C44.15625 98.0622559 43.6105957 97.5898438 43.6105957 96.8903809 43.6105957 96.2019043 44.1416016 95.7880859 45.0864258 95.7294922L46.1118164 95.6708984 46.1118164 95.3925781C46.1118164 94.986084 45.8371582 94.751709 45.3867188 94.751709 44.9545898 94.751709 44.6799316 94.9604492 44.6213379 95.2827148L43.7753906 95.2827148C43.8156738 94.5576172 44.4345703 94.0375977 45.4233398 94.0375977 46.3864746 94.0375977 47.0126953 94.5466309 47.0126953 95.3266602L47.0126953 98 46.1337891 98 46.1337891 97.3811035 46.1154785 97.3811035C45.8920898 97.8022461 45.4050293 98.0622559 44.9069824 98.0622559zM49.4589844 97.2785645C50.0412598 97.2785645 50.418457 96.8061523 50.418457 96.0480957 50.418457 95.2937012 50.0412598 94.8029785 49.4589844 94.8029785 48.8840332 94.8029785 48.5178223 95.286377 48.5178223 96.0480957 48.5178223 96.8171387 48.8840332 97.2785645 49.4589844 97.2785645zM49.4553223 99.4648438C48.4958496 99.4648438 47.807373 98.9741211 47.7158203 98.2929688L48.6203613 98.2929688C48.7192383 98.5895996 49.0524902 98.7910156 49.4846191 98.7910156 50.0778809 98.7910156 50.418457 98.4577637 50.418457 97.9633789L50.418457 97.3078613 50.3964844 97.3078613C50.1950684 97.7253418 49.7373047 98.0036621 49.1806641 98.0036621 48.2211914 98.0036621 47.5839844 97.2529297 47.5839844 96.0444336 47.5839844 94.817627 48.206543 94.0522461 49.1989746 94.0522461 49.7519531 94.0522461 50.1987305 94.3378906 50.4221191 94.784668L50.4367676 94.784668 50.4367676 94.1181641 51.3303223 94.1181641 51.3303223 97.9377441C51.3303223 98.8642578 50.5869141 99.4648438 49.4553223 99.4648438zM53.7473145 94.7443848C53.2346191 94.7443848 52.8647461 95.1362305 52.828125 95.6782227L54.6408691 95.6782227C54.6225586 95.1289062 54.2709961 94.7443848 53.7473145 94.7443848zM54.6445312 96.8391113L55.4978027 96.8391113C55.3806152 97.5715332 54.6994629 98.0769043 53.7802734 98.0769043 52.6157227 98.0769043 51.9125977 97.3115234 51.9125977 96.0737305 51.9125977 94.8469238 52.6230469 94.0375977 53.7436523 94.0375977 54.8459473 94.0375977 55.5344238 94.8029785 55.5344238 95.9821777L55.5344238 96.2788086 52.8208008 96.2788086 52.8208008 96.3337402C52.8208008 96.9562988 53.2016602 97.3737793 53.798584 97.3737793 54.2233887 97.3737793 54.5456543 97.161377 54.6445312 96.8391113zM57.8745117 98L57.8745117 94.8212891 57.3435059 94.8212891 57.3435059 94.1291504 57.8745117 94.1291504 57.8745117 93.7849121C57.8745117 93.0305176 58.2333984 92.675293 59.0756836 92.675293 59.255127 92.675293 59.4528809 92.6936035 59.5664062 92.7155762L59.5664062 93.3527832C59.489502 93.3417969 59.3833008 93.3308105 59.2770996 93.3308105 58.9291992 93.3308105 58.7717285 93.4956055 58.7717285 93.8105469L58.7717285 94.1291504 59.5480957 94.1291504 59.5480957 94.8212891 58.786377 94.8212891 58.786377 98 57.8745117 98zM60.1486816 98L60.1486816 94.1181641 61.0239258 94.1181641 61.0239258 94.7956543 61.0422363 94.7956543C61.1740723 94.3232422 61.5146484 94.0522461 61.9724121 94.0522461 62.0895996 94.0522461 62.1921387 94.0742188 62.2580566 94.0888672L62.2580566 94.9128418C62.1811523 94.8835449 62.0419922 94.8615723 61.8881836 94.8615723 61.3718262 94.8615723 61.0605469 95.1948242 61.0605469 95.7404785L61.0605469 98 60.1486816 98zM64.4443359 98.0769043C63.3054199 98.0769043 62.5656738 97.3188477 62.5656738 96.059082 62.5656738 94.8066406 63.3127441 94.0375977 64.4443359 94.0375977 65.5759277 94.0375977 66.322998 94.8029785 66.322998 96.059082 66.322998 97.3188477 65.583252 98.0769043 64.4443359 98.0769043zM64.4443359 97.3554688C65.0229492 97.3554688 65.3964844 96.8867188 65.3964844 96.059082 65.3964844 95.2351074 65.0229492 94.7626953 64.4443359 94.7626953 63.8693848 94.7626953 63.4921875 95.2351074 63.4921875 96.059082 63.4921875 96.8867188 63.8657227 97.3554688 64.4443359 97.3554688zM66.9089355 98L66.9089355 94.1181641 67.7841797 94.1181641 67.7841797 94.7919922 67.8024902 94.7919922C67.9709473 94.3415527 68.3811035 94.0449219 68.9084473 94.0449219 69.4577637 94.0449219 69.8496094 94.3269043 69.9924316 94.8249512L70.0144043 94.8249512C70.2011719 94.3452148 70.6625977 94.0449219 71.2229004 94.0449219 71.9882812 94.0449219 72.4899902 94.5612793 72.4899902 95.3376465L72.4899902 98 71.578125 98 71.578125 95.5610352C71.578125 95.0849609 71.3291016 94.8139648 70.8823242 94.8139648 70.4428711 94.8139648 70.1425781 95.1362305 70.1425781 95.6013184L70.1425781 98 69.2563477 98 69.2563477 95.5134277C69.2563477 95.0812988 68.9926758 94.8139648 68.5678711 94.8139648 68.128418 94.8139648 67.8208008 95.154541 67.8208008 95.623291L67.8208008 98 66.9089355 98zM80.2646484 98L79.4150391 98 79.4150391 94.25 79.3894043 94.25 77.8623047 98 77.2177734 98 75.6906738 94.25 75.6650391 94.25 75.6650391 98 74.8117676 98 74.8117676 92.7155762 75.9067383 92.7155762 77.5253906 96.7475586 77.5546875 96.7475586 79.1733398 92.7155762 80.2646484 92.7155762 80.2646484 98zM81.1289062 98L81.1289062 94.1181641 82.0407715 94.1181641 82.0407715 98 81.1289062 98zM81.5793457 93.5322266C81.3046875 93.5322266 81.0812988 93.3088379 81.0812988 93.0378418 81.0812988 92.7631836 81.3046875 92.543457 81.5793457 92.543457 81.8613281 92.543457 82.0810547 92.7631836 82.0810547 93.0378418 82.0810547 93.3088379 81.8613281 93.5322266 81.5793457 93.5322266zM83.7546387 95.7368164L85.2158203 94.1181641 86.2668457 94.1181641 84.7141113 95.7880859 86.3327637 98 85.2780762 98 84.0512695 96.3410645 83.7436523 96.6523438 83.7436523 98 82.8317871 98 82.8317871 92.7155762 83.7436523 92.7155762 83.7436523 95.7368164 83.7546387 95.7368164zM88.3688965 94.7443848C87.8562012 94.7443848 87.4863281 95.1362305 87.449707 95.6782227L89.2624512 95.6782227C89.2441406 95.1289062 88.8925781 94.7443848 88.3688965 94.7443848zM89.2661133 96.8391113L90.1193848 96.8391113C90.0021973 97.5715332 89.3210449 98.0769043 88.4018555 98.0769043 87.2373047 98.0769043 86.5341797 97.3115234 86.5341797 96.0737305 86.5341797 94.8469238 87.2446289 94.0375977 88.3652344 94.0375977 89.4675293 94.0375977 90.1560059 94.8029785 90.1560059 95.9821777L90.1560059 96.2788086 87.4423828 96.2788086 87.4423828 96.3337402C87.4423828 96.9562988 87.8232422 97.3737793 88.420166 97.3737793 88.8449707 97.3737793 89.1672363 97.161377 89.2661133 96.8391113zM10.3769531 172.475003L9.46508789 172.475003 9.46508789 167.19058 10.2854004 167.19058 12.9074707 170.892972 12.9404297 170.892972 12.9404297 167.19058 13.8486328 167.19058 13.8486328 172.475003 13.0356445 172.475003 10.4099121 168.768949 10.3769531 168.768949 10.3769531 172.475003zM16.364502 169.219388C15.8518066 169.219388 15.4819336 169.611234 15.4453125 170.153226L17.2580566 170.153226C17.2397461 169.60391 16.8881836 169.219388 16.364502 169.219388zM17.2617188 171.314115L18.1149902 171.314115C17.9978027 172.046537 17.3166504 172.551908 16.3974609 172.551908 15.2329102 172.551908 14.5297852 171.786527 14.5297852 170.548734 14.5297852 169.321927 15.2402344 168.512601 16.3608398 168.512601 17.4631348 168.512601 18.1516113 169.277982 18.1516113 170.457181L18.1516113 170.753812 15.4379883 170.753812 15.4379883 170.808744C15.4379883 171.431302 15.8188477 171.848783 16.4157715 171.848783 16.8405762 171.848783 17.1628418 171.63638 17.2617188 171.314115zM24.0036621 168.593167L22.9526367 172.475003 21.9931641 172.475003 21.2277832 169.636869 21.2094727 169.636869 20.4477539 172.475003 19.4956055 172.475003 18.4445801 168.593167 19.3601074 168.593167 20.015625 171.574124 20.0339355 171.574124 20.7919922 168.593167 21.6672363 168.593167 22.425293 171.574124 22.4472656 171.574124 23.1027832 168.593167 24.0036621 168.593167zM29.3796387 169.977445L28.519043 169.977445C28.4458008 169.563626 28.1564941 169.252347 27.6694336 169.252347 27.0944824 169.252347 26.7246094 169.735746 26.7246094 170.534085 26.7246094 171.347074 27.0981445 171.815824 27.6767578 171.815824 28.1381836 171.815824 28.4384766 171.552152 28.5227051 171.112699L29.3833008 171.112699C29.3100586 171.980619 28.6398926 172.551908 27.6657715 172.551908 26.5305176 172.551908 25.7980957 171.793851 25.7980957 170.534085 25.7980957 169.29263 26.5305176 168.512601 27.6584473 168.512601 28.6838379 168.512601 29.3173828 169.160794 29.3796387 169.977445zM31.6428223 172.551908C30.5039062 172.551908 29.7641602 171.793851 29.7641602 170.534085 29.7641602 169.281644 30.5112305 168.512601 31.6428223 168.512601 32.7744141 168.512601 33.5214844 169.277982 33.5214844 170.534085 33.5214844 171.793851 32.7817383 172.551908 31.6428223 172.551908zM31.6428223 171.830472C32.2214355 171.830472 32.5949707 171.361722 32.5949707 170.534085 32.5949707 169.710111 32.2214355 169.237699 31.6428223 169.237699 31.0678711 169.237699 30.6906738 169.710111 30.6906738 170.534085 30.6906738 171.361722 31.064209 171.830472 31.6428223 171.830472zM34.1074219 172.475003L34.1074219 168.593167 34.982666 168.593167 34.982666 169.266996 35.0009766 169.266996C35.1694336 168.816556 35.5795898 168.519925 36.1069336 168.519925 36.65625 168.519925 37.0480957 168.801908 37.190918 169.299955L37.2128906 169.299955C37.3996582 168.820218 37.861084 168.519925 38.4213867 168.519925 39.1867676 168.519925 39.6884766 169.036283 39.6884766 169.81265L39.6884766 172.475003 38.7766113 172.475003 38.7766113 170.036039C38.7766113 169.559964 38.5275879 169.288968 38.0808105 169.288968 37.6413574 169.288968 37.3410645 169.611234 37.3410645 170.076322L37.3410645 172.475003 36.454834 172.475003 36.454834 169.988431C36.454834 169.556302 36.1911621 169.288968 35.7663574 169.288968 35.3269043 169.288968 35.0192871 169.629544 35.0192871 170.098294L35.0192871 172.475003 34.1074219 172.475003zM40.4172363 172.475003L40.4172363 168.593167 41.2924805 168.593167 41.2924805 169.266996 41.310791 169.266996C41.479248 168.816556 41.8894043 168.519925 42.416748 168.519925 42.9660645 168.519925 43.3579102 168.801908 43.5007324 169.299955L43.5227051 169.299955C43.7094727 168.820218 44.1708984 168.519925 44.7312012 168.519925 45.496582 168.519925 45.998291 169.036283 45.998291 169.81265L45.998291 172.475003 45.0864258 172.475003 45.0864258 170.036039C45.0864258 169.559964 44.8374023 169.288968 44.390625 169.288968 43.9511719 169.288968 43.6508789 169.611234 43.6508789 170.076322L43.6508789 172.475003 42.7646484 172.475003 42.7646484 169.988431C42.7646484 169.556302 42.5009766 169.288968 42.0761719 169.288968 41.6367188 169.288968 41.3291016 169.629544 41.3291016 170.098294L41.3291016 172.475003 40.4172363 172.475003zM48.4006348 169.219388C47.8879395 169.219388 47.5180664 169.611234 47.4814453 170.153226L49.2941895 170.153226C49.2758789 169.60391 48.9243164 169.219388 48.4006348 169.219388zM49.2978516 171.314115L50.151123 171.314115C50.0339355 172.046537 49.3527832 172.551908 48.4335938 172.551908 47.269043 172.551908 46.565918 171.786527 46.565918 170.548734 46.565918 169.321927 47.2763672 168.512601 48.3969727 168.512601 49.4992676 168.512601 50.1877441 169.277982 50.1877441 170.457181L50.1877441 170.753812 47.4741211 170.753812 47.4741211 170.808744C47.4741211 171.431302 47.8549805 171.848783 48.4519043 171.848783 48.876709 171.848783 49.1989746 171.63638 49.2978516 171.314115zM50.7736816 172.475003L50.7736816 168.593167 51.6489258 168.593167 51.6489258 169.259671 51.6672363 169.259671C51.8759766 168.798246 52.2897949 168.519925 52.8867188 168.519925 53.7436523 168.519925 54.2307129 169.069242 54.2307129 169.966458L54.2307129 172.475003 53.3188477 172.475003 53.3188477 170.149564C53.3188477 169.600248 53.0625 169.29263 52.5424805 169.29263 52.0187988 169.29263 51.6855469 169.669828 51.6855469 170.226468L51.6855469 172.475003 50.7736816 172.475003zM55.2121582 167.684964L56.1240234 167.684964 56.1240234 168.593167 56.8564453 168.593167 56.8564453 169.296292 56.1240234 169.296292 56.1240234 171.314115C56.1240234 171.632718 56.2705078 171.779203 56.5927734 171.779203 56.677002 171.779203 56.7941895 171.771878 56.8527832 171.760892L56.8527832 172.456693C56.7539062 172.478666 56.5744629 172.493314 56.3803711 172.493314 55.541748 172.493314 55.2121582 172.196683 55.2121582 171.442289L55.2121582 169.296292 54.6555176 169.296292 54.6555176 168.593167 55.2121582 168.593167 55.2121582 167.684964zM59.2294922 172.475003L59.2294922 169.296292 58.6984863 169.296292 58.6984863 168.604154 59.2294922 168.604154 59.2294922 168.259916C59.2294922 167.505521 59.5883789 167.150296 60.4306641 167.150296 60.6101074 167.150296 60.8078613 167.168607 60.9213867 167.19058L60.9213867 167.827787C60.8444824 167.8168 60.7382812 167.805814 60.6320801 167.805814 60.2841797 167.805814 60.126709 167.970609 60.126709 168.28555L60.126709 168.604154 60.9030762 168.604154 60.9030762 169.296292 60.1413574 169.296292 60.1413574 172.475003 59.2294922 172.475003zM61.5036621 172.475003L61.5036621 168.593167 62.3789062 168.593167 62.3789062 169.270658 62.3972168 169.270658C62.5290527 168.798246 62.8696289 168.527249 63.3273926 168.527249 63.4445801 168.527249 63.5471191 168.549222 63.6130371 168.563871L63.6130371 169.387845C63.5361328 169.358548 63.3969727 169.336576 63.2431641 169.336576 62.7268066 169.336576 62.4155273 169.669828 62.4155273 170.215482L62.4155273 172.475003 61.5036621 172.475003zM65.7993164 172.551908C64.6604004 172.551908 63.9206543 171.793851 63.9206543 170.534085 63.9206543 169.281644 64.6677246 168.512601 65.7993164 168.512601 66.9309082 168.512601 67.6779785 169.277982 67.6779785 170.534085 67.6779785 171.793851 66.9382324 172.551908 65.7993164 172.551908zM65.7993164 171.830472C66.3779297 171.830472 66.7514648 171.361722 66.7514648 170.534085 66.7514648 169.710111 66.3779297 169.237699 65.7993164 169.237699 65.2243652 169.237699 64.847168 169.710111 64.847168 170.534085 64.847168 171.361722 65.2207031 171.830472 65.7993164 171.830472zM68.263916 172.475003L68.263916 168.593167 69.1391602 168.593167 69.1391602 169.266996 69.1574707 169.266996C69.3259277 168.816556 69.736084 168.519925 70.2634277 168.519925 70.8127441 168.519925 71.2045898 168.801908 71.3474121 169.299955L71.3693848 169.299955C71.5561523 168.820218 72.0175781 168.519925 72.5778809 168.519925 73.3432617 168.519925 73.8449707 169.036283 73.8449707 169.81265L73.8449707 172.475003 72.9331055 172.475003 72.9331055 170.036039C72.9331055 169.559964 72.684082 169.288968 72.2373047 169.288968 71.7978516 169.288968 71.4975586 169.611234 71.4975586 170.076322L71.4975586 172.475003 70.6113281 172.475003 70.6113281 169.988431C70.6113281 169.556302 70.3476562 169.288968 69.9228516 169.288968 69.4833984 169.288968 69.1757812 169.629544 69.1757812 170.098294L69.1757812 172.475003 68.263916 172.475003zM75.829834 171.032132L76.7490234 171.032132C76.7600098 171.467923 77.0603027 171.760892 77.4997559 171.760892 78.005127 171.760892 78.2797852 171.453275 78.2797852 170.881986L78.2797852 167.19058 79.2209473 167.19058 79.2209473 170.88931C79.2209473 171.96597 78.5837402 172.588529 77.5107422 172.588529 76.5036621 172.588529 75.829834 171.969632 75.829834 171.032132zM81.8063965 172.551908C80.6674805 172.551908 79.9277344 171.793851 79.9277344 170.534085 79.9277344 169.281644 80.6748047 168.512601 81.8063965 168.512601 82.9379883 168.512601 83.6850586 169.277982 83.6850586 170.534085 83.6850586 171.793851 82.9453125 172.551908 81.8063965 172.551908zM81.8063965 171.830472C82.3850098 171.830472 82.7585449 171.361722 82.7585449 170.534085 82.7585449 169.710111 82.3850098 169.237699 81.8063965 169.237699 81.2314453 169.237699 80.854248 169.710111 80.854248 170.534085 80.854248 171.361722 81.2277832 171.830472 81.8063965 171.830472zM84.2966309 172.475003L84.2966309 167.19058 85.1975098 167.19058 85.1975098 169.259671 85.2158203 169.259671C85.4245605 168.787259 85.8530273 168.519925 86.442627 168.519925 87.2995605 168.519925 87.8012695 169.08389 87.8012695 169.973783L87.8012695 172.475003 86.8894043 172.475003 86.8894043 170.16055C86.8894043 169.618558 86.6184082 169.29263 86.0910645 169.29263 85.541748 169.29263 85.2084961 169.67349 85.2084961 170.244779L85.2084961 172.475003 84.2966309 172.475003zM88.5300293 172.475003L88.5300293 168.593167 89.4052734 168.593167 89.4052734 169.259671 89.423584 169.259671C89.6323242 168.798246 90.0461426 168.519925 90.6430664 168.519925 91.5 168.519925 91.9870605 169.069242 91.9870605 169.966458L91.9870605 172.475003 91.0751953 172.475003 91.0751953 170.149564C91.0751953 169.600248 90.8188477 169.29263 90.2988281 169.29263 89.7751465 169.29263 89.4418945 169.669828 89.4418945 170.226468L89.4418945 172.475003 88.5300293 172.475003z"/>
          <path stroke="#3070CD" stroke-linecap="square" stroke-width="1.1" d="M0.26501864,18.289598 L102.850002,18.289598" opacity=".532"/>
          <path stroke="#3070CD" stroke-linecap="square" stroke-width="1.1" d="M8.80000019 51.2895987L102.777634 51.2895987M8.80000019 159.775003L102.329976 159.775003" opacity=".132"/>
          <g transform="translate(7.7)">
            <rect width="31.9" height="11" x=".55" y=".55" fill="#FFF" stroke="#3070CD" stroke-width="1.1" rx="5.5"/>
            <circle cx="7.15" cy="6.05" r="3.85" fill="#3070CD"/>
            <path fill="#3070CD" d="M16.7846683,3.46914057 C18.1607426,3.46914057 19.0276371,4.39404293 19.0276371,5.87646484 C19.0276371,7.35566409 18.1607426,8.28056646 16.7846683,8.28056646 C15.4053714,8.28056646 14.5416995,7.35566409 14.5416995,5.87646484 C14.5416995,4.39404293 15.4053714,3.46914057 16.7846683,3.46914057 Z M16.7846683,4.28124996 C16.0241214,4.28124996 15.5342777,4.89999998 15.5342777,5.87646484 C15.5342777,6.84970705 16.0208988,7.46523441 16.7846683,7.46523441 C17.5452152,7.46523441 18.0318363,6.84970705 18.0318363,5.87646484 C18.0318363,4.89999998 17.5452152,4.28124996 16.7846683,4.28124996 Z M20.6260747,8.20000005 L19.6528325,8.20000005 L19.6528325,3.54970698 L22.6982427,3.54970698 L22.6982427,4.3521484 L20.6260747,4.3521484 L20.6260747,5.5993164 L22.5177739,5.5993164 L22.5177739,6.36953126 L20.6260747,6.36953126 L20.6260747,8.20000005 Z M24.2451177,8.20000005 L23.2718755,8.20000005 L23.2718755,3.54970698 L26.3172857,3.54970698 L26.3172857,4.3521484 L24.2451177,4.3521484 L24.2451177,5.5993164 L26.136817,5.5993164 L26.136817,6.36953126 L24.2451177,6.36953126 L24.2451177,8.20000005 Z"/>
          </g>
          <g transform="translate(8.8 26.4)">
            <circle cx="9.9" cy="9.9" r="9.9" fill="#42C299"/>
            <g transform="translate(4.95 4.95)">
              <mask id="notif-center-m" fill="#fff">
                <use xlink:href="#notif-center-l"/>
              </mask>
              <use fill="#FFF" fill-rule="nonzero" xlink:href="#notif-center-l"/>
              <g fill="#FFF" mask="url(#notif-center-m)">
                <rect width="9.948" height="9.948"/>
              </g>
            </g>
          </g>
          <g transform="translate(8.8 134.2)">
            <circle cx="9.9" cy="9.9" r="9.9" fill="#EC5657"/>
            <g transform="translate(4.95 4.95)">
              <mask id="notif-center-o" fill="#fff">
                <use xlink:href="#notif-center-n"/>
              </mask>
              <use fill="#FEFEFE" fill-rule="nonzero" xlink:href="#notif-center-n"/>
              <g fill="#FFF" mask="url(#notif-center-o)">
                <rect width="10.039" height="10.039"/>
              </g>
            </g>
          </g>
          <path fill="#3070CD" d="M37.4000008 38.2037094L39.0138461 38.2037094C39.0914881 38.8850366 39.7791748 39.3316209 40.6665124 39.3316209 41.5593959 39.3316209 42.1694405 38.8907621 42.1694405 38.2838655 42.1694405 37.7456742 41.7867762 37.4479514 40.8217965 37.2246592L39.7791748 36.9899162C38.303976 36.6635662 37.5774683 35.8906319 37.5774683 34.6825642 37.5774683 33.1595973 38.8530162 32.15192 40.6387831 32.15192 42.5021921 32.15192 43.6723686 33.142421 43.7000979 34.6367607L42.1306195 34.6367607C42.0751609 33.9382571 41.4817539 33.5145746 40.644329 33.5145746 39.8179958 33.5145746 39.2634098 33.9210808 39.2634098 34.5337028 39.2634098 35.0432669 39.65162 35.3295388 40.5722328 35.5471055L41.5427583 35.7589468C43.1455119 36.113924 43.8442903 36.8238785 43.8442903 38.0834751 43.8442903 39.6865981 42.58538 40.7000009 40.5999621 40.7000009 38.6755486 40.7000009 37.4499136 39.7553034 37.4000008 38.2037094zM44.7981782 40.5568649L44.7981782 31.9000007 46.4175694 31.9000007 46.4175694 40.5568649 44.7981782 40.5568649zM49.8892778 39.411777C50.6379689 39.411777 51.2369218 38.9308401 51.2369218 38.2437874L51.2369218 37.7800268 49.9558281 37.8716339C49.2792332 37.9174374 48.9187523 38.1922585 48.9187523 38.6560191 48.9187523 39.1197796 49.3014166 39.411777 49.8892778 39.411777zM49.3624211 40.6312956C48.1866987 40.6312956 47.304907 39.8698122 47.304907 38.7419006 47.304907 37.5968128 48.1534236 36.9498381 49.7118103 36.8525057L51.2369218 36.7551732 51.2369218 36.3372161C51.2369218 35.7303196 50.832074 35.3982441 50.1665708 35.3982441 49.5787096 35.3982441 49.168316 35.7188687 49.0906739 36.1769038L47.6099293 36.1769038C47.6542962 34.9745616 48.7080096 34.1443729 50.2331211 34.1443729 51.8025995 34.1443729 52.8285837 34.9745616 52.8285837 36.2341582L52.8285837 40.5568649 51.2646511 40.5568649 51.2646511 39.5835402 51.2313759 39.5835402C50.8986243 40.2419657 50.1443874 40.6312956 49.3624211 40.6312956zM59.4337031 36.5776846L57.9252291 36.5776846C57.8364953 35.9249845 57.3928265 35.4612239 56.6885023 35.4612239 55.8566233 35.4612239 55.3297666 36.1940802 55.3297666 37.4021479 55.3297666 38.6331173 55.8566233 39.3430718 56.6940482 39.3430718 57.3761889 39.3430718 57.8254036 38.9594673 57.930775 38.2666892L59.4392489 38.2666892C59.3449693 39.7324016 58.2801641 40.6656482 56.6774106 40.6656482 54.8528226 40.6656482 53.688192 39.4289534 53.688192 37.4021479 53.688192 35.4039695 54.8528226 34.1443729 56.6663189 34.1443729 58.3078934 34.1443729 59.356061 35.174952 59.4337031 36.5776846zM61.934886 36.8009767L64.0478587 34.2531562 65.8890842 34.2531562 63.5376395 36.961289 66.0000014 40.5568649 64.1365924 40.5568649 62.3508255 37.9689663 61.9127025 38.4556287 61.9127025 40.5568649 60.2933114 40.5568649 60.2933114 31.9000007 61.9127025 31.9000007 61.9127025 36.8009767 61.934886 36.8009767zM40.0636998 147.291783L38.5000008 147.291783 38.5000008 139.072754 39.8635031 139.072754 43.5103305 144.426799 43.5536163 144.426799 43.5536163 139.072754 45.1173153 139.072754 45.1173153 147.291783 43.7646345 147.291783 40.1123963 141.909259 40.0636998 141.909259 40.0636998 147.291783zM49.0184467 147.400003C47.2112652 147.400003 46.080424 146.181103 46.080424 144.153401 46.080424 142.148482 47.2274973 140.912495 49.0184467 140.912495 50.8148068 140.912495 51.9564694 142.142786 51.9564694 144.153401 51.9564694 146.186799 50.8256283 147.400003 49.0184467 147.400003zM49.0184467 146.11845C49.8516981 146.11845 50.3494846 145.40078 50.3494846 144.153401 50.3494846 142.917414 49.8462874 142.188353 49.0184467 142.188353 48.1851953 142.188353 47.6819981 142.92311 47.6819981 144.153401 47.6819981 145.40078 48.1851953 146.11845 49.0184467 146.11845zM53.2225786 139.625246L54.8025098 139.625246 54.8025098 141.020715 55.9062973 141.020715 55.9062973 142.279485 54.8025098 142.279485 54.8025098 145.326735C54.8025098 145.810877 55.0297602 146.044404 55.5113145 146.044404 55.6519933 146.044404 55.8089043 146.033013 55.9062973 146.015925L55.9062973 147.246217C55.7439756 147.280392 55.462618 147.314566 55.1433854 147.314566 53.7636509 147.314566 53.2225786 146.824728 53.2225786 145.600133L53.2225786 142.279485 52.4163809 142.279485 52.4163809 141.020715 53.2225786 141.020715 53.2225786 139.625246zM56.8369417 147.291783L56.8369417 141.020715 58.4168729 141.020715 58.4168729 147.291783 56.8369417 147.291783zM57.6269073 140.33722C57.1615851 140.33722 56.7774238 139.961298 56.7774238 139.465764 56.7774238 138.97023 57.1615851 138.600003 57.6269073 138.600003 58.0976402 138.600003 58.4818016 138.97023 58.4818016 139.465764 58.4818016 139.961298 58.0976402 140.33722 57.6269073 140.33722zM62.2314327 147.400003C60.4242512 147.400003 59.29341 146.181103 59.29341 144.153401 59.29341 142.148482 60.4404834 140.912495 62.2314327 140.912495 64.0277928 140.912495 65.1694554 142.142786 65.1694554 144.153401 65.1694554 146.186799 64.0386143 147.400003 62.2314327 147.400003zM62.2314327 146.11845C63.0646841 146.11845 63.5624706 145.40078 63.5624706 144.153401 63.5624706 142.917414 63.0592734 142.188353 62.2314327 142.188353 61.3981814 142.188353 60.8949841 142.92311 60.8949841 144.153401 60.8949841 145.40078 61.3981814 146.11845 62.2314327 146.11845zM66.0135282 147.291783L66.0135282 141.020715 67.5393522 141.020715 67.5393522 142.142786 67.5718165 142.142786C67.9126921 141.351071 68.5186931 140.929582 69.4331053 140.929582 70.7533217 140.929582 71.5000015 141.806734 71.5000015 143.270553L71.5000015 147.291783 69.9200704 147.291783 69.9200704 143.617997C69.9200704 142.786411 69.5521412 142.31366 68.8054614 142.31366 68.0479602 142.31366 67.5934594 142.883239 67.5934594 143.714825L67.5934594 147.291783 66.0135282 147.291783z"/>
        </g>
        <path fill="url(#notif-center-p)" d="M7.83999927,0 L443.155958,0 C447.48587,-7.95391937e-16 450.995958,3.51008723 450.995958,7.83999927 L450.995958,252.839976 C450.995958,257.169888 447.48587,260.679976 443.155958,260.679976 L7.83999927,260.679976 C3.51008723,260.679976 7.63568865e-15,257.169888 7.10542736e-15,252.839976 L-8.8817842e-16,7.83999927 C-1.41843971e-15,3.51008723 3.51008723,8.78899771e-15 7.83999927,7.99360578e-15 Z" style="mix-blend-mode:screen"/>
      </g>
    </g>
    <path fill="#3070CD" d="M134.59082,43.0854492 C133.155273,43.0854492 132.256348,42.125 132.256348,40.5322266 C132.256348,38.9428711 133.162109,37.9824219 134.59082,37.9824219 C135.776855,37.9824219 136.679199,38.734375 136.757812,39.8383789 L135.75293,39.8383789 C135.657227,39.2333984 135.192383,38.8369141 134.59082,38.8369141 C133.811523,38.8369141 133.309082,39.4897461 133.309082,40.5288086 C133.309082,41.581543 133.804688,42.230957 134.594238,42.230957 C135.206055,42.230957 135.646973,41.8720703 135.756348,41.2875977 L136.76123,41.2875977 C136.64502,42.3881836 135.800781,43.0854492 134.59082,43.0854492 Z M140.585938,42.1455078 L140.585938,43 L137.396973,43 L137.396973,38.0678711 L138.429199,38.0678711 L138.429199,42.1455078 L140.585938,42.1455078 Z M144.465332,42.1455078 L144.465332,43 L141.197754,43 L141.197754,38.0678711 L144.465332,38.0678711 L144.465332,38.9189453 L142.22998,38.9189453 L142.22998,40.1083984 L144.338867,40.1083984 L144.338867,40.9013672 L142.22998,40.9013672 L142.22998,42.1455078 L144.465332,42.1455078 Z M148.44043,43 L148.064453,41.8037109 L146.331543,41.8037109 L145.955566,43 L144.895996,43 L146.608398,38.0678711 L147.821777,38.0678711 L149.537598,43 L148.44043,43 Z M147.186035,39.0112305 L146.553711,41.03125 L147.842285,41.03125 L147.209961,39.0112305 L147.186035,39.0112305 Z M151.072266,38.8745117 L151.072266,40.4467773 L151.960938,40.4467773 C152.480469,40.4467773 152.784668,40.1494141 152.784668,39.6606445 C152.784668,39.1821289 152.463379,38.8745117 151.950684,38.8745117 L151.072266,38.8745117 Z M151.072266,41.1953125 L151.072266,43 L150.040039,43 L150.040039,38.0678711 L152.060059,38.0678711 C153.194824,38.0678711 153.844238,38.6660156 153.844238,39.6401367 C153.844238,40.2724609 153.516113,40.8193359 152.94873,41.0415039 L153.987793,43 L152.818848,43 L151.899414,41.1953125 L151.072266,41.1953125 Z M159.135254,43 L158.759277,41.8037109 L157.026367,41.8037109 L156.650391,43 L155.59082,43 L157.303223,38.0678711 L158.516602,38.0678711 L160.232422,43 L159.135254,43 Z M157.880859,39.0112305 L157.248535,41.03125 L158.537109,41.03125 L157.904785,39.0112305 L157.880859,39.0112305 Z M163.923828,42.1455078 L163.923828,43 L160.734863,43 L160.734863,38.0678711 L161.76709,38.0678711 L161.76709,42.1455078 L163.923828,42.1455078 Z M167.724609,42.1455078 L167.724609,43 L164.535645,43 L164.535645,38.0678711 L165.567871,38.0678711 L165.567871,42.1455078 L167.724609,42.1455078 Z"/>
  </g>
</svg>
