<svg xmlns="http://www.w3.org/2000/svg" viewBox="0 0 100 100"><path d="M89.9 77.9c-1.4 3.4-3.2 6.6-5.3 9.7-2.8 4-5.1 6.8-6.8 8.4-2.7 2.5-5.7 3.8-8.8 3.9-2.2 0-5-.6-8.1-2-3.2-1.3-6.1-2-8.8-2-2.8 0-5.8.7-9 2s-5.8 2-7.8 2.1c-3 .1-6-1.2-9-4-1.9-1.7-4.3-4.6-7.2-8.7-3.1-4.4-5.6-9.4-7.6-15.2C9.4 65.9 8.3 59.8 8.3 54c0-6.7 1.4-12.5 4.3-17.3 2.2-3.8 5.3-7 9-9.2 3.7-2.2 7.9-3.4 12.2-3.5 2.4 0 5.5.7 9.4 2.2 3.9 1.5 6.4 2.2 7.5 2.2.8 0 3.6-.9 8.3-2.6 4.4-1.6 8.2-2.3 11.3-2 8.3.7 14.6 4 18.7 10-7.4 4.6-11.1 10.9-11 19.1.1 6.4 2.4 11.7 6.9 15.9 2 2 4.3 3.5 6.8 4.5-.6 1.6-1.2 3.1-1.8 4.6zM70.8 2c0 5-1.8 9.7-5.4 14-4.3 5.1-9.6 8.1-15.3 7.6-.1-.6-.1-1.2-.1-1.9 0-4.8 2.1-9.9 5.7-14.1 1.8-2.1 4.2-3.9 7-5.3s5.5-2.2 8-2.3c.1.7.1 1.3.1 2z"/></svg>
