<svg xmlns="http://www.w3.org/2000/svg" viewBox="0 0 100 100"><path d="M73.9 51.2c20.2-6.8 27.6-19.3 25.9-28.7-1.2-6.9-7.2-11.4-14.8-11.3-.2 0-.5.1-.7.2.1-2.1.2-4.1.2-6.3 0-.8-.3-1.5-.8-2.1-.5-.6-1.3-.9-2.1-.9H18.3c-.8 0-1.5.3-2.1.9-.5.6-.8 1.3-.8 2.1.1 2.2.2 4.3.3 6.3-.2-.1-.4-.1-.6-.1C7.4 11.1 1.4 15.6.2 22.5-1.4 32 6 44.5 26.4 51.3c.9 1.1 1.9 2.2 2.8 3.3C34 60.1 39 65.8 39 70.3c0 4.7-4.2 7.5-7.9 10-1 .7-1.9 1.3-2.7 1.9-3.9 3.1-5.9 7.4-5.9 12.9 0 1.6 1.3 2.9 2.9 2.9h50.7c.8 0 1.5-.3 2.1-.9.5-.6.8-1.3.8-2.1-.2-8.1-4.3-11.8-7.7-13.4-1.5-.7-9.1-4.7-9.1-11.3 0-4.7 4.5-10.3 9.4-16.3.8-.9 1.5-1.9 2.3-2.8zM84 16.8c.3.1.7.2 1.1.2 5-.1 8.2 2.4 9 6.4 1 5.7-3.4 13.5-14.7 19.2 2.3-5.6 3.8-14.2 4.6-25.8zM5.9 23.5c.7-4.1 4.2-6.5 9-6.4.4 0 .8 0 1.1-.2.9 11.7 2.4 20.2 4.7 25.8C9.3 36.9 5 29.1 5.9 23.5zm50.5 46.7c0 9.8 9.5 15.2 12.4 16.6 1.4.7 3.3 2 4.1 5.3H28.7c.5-2.2 1.6-4 3.4-5.4.7-.5 1.5-1.1 2.4-1.7C38.7 82.2 45 78 45 70.1c0-6.7-5.5-12.9-11.3-19.5-2-2.3-4.1-4.7-5.9-7-2.5-3.2-5.5-12-6.5-35.8h57.3c-.7 23.3-3.9 32.4-6.4 35.9-1.6 2.2-3.4 4.4-5.1 6.5-5.5 6.9-10.7 13.2-10.7 20z"/></svg>
