<svg xmlns="http://www.w3.org/2000/svg" viewBox="0 0 100 100"><path d="M50 0C22.4 0 0 22.9 0 51.3 0 74 14.3 93.1 34.2 99.9c2.5.4 3.4-1.1 3.4-2.4 0-1.2-.1-5.3-.1-9.5-12.6 2.4-15.8-3.1-16.8-6-.6-1.5-3-6-5.1-7.2-1.8-1-4.2-3.3-.1-3.4 3.9-.1 6.8 3.7 7.7 5.3 4.5 7.8 11.7 5.6 14.6 4.2.4-3.3 1.8-5.6 3.2-6.9-11.1-1.3-22.8-5.7-22.8-25.3 0-5.6 1.9-10.2 5.1-13.8-.5-1.3-2.2-6.5.5-13.6 0 0 4.2-1.3 13.8 5.3 4-1.2 8.2-1.7 12.5-1.7s8.5.6 12.5 1.7c9.6-6.7 13.8-5.3 13.8-5.3 2.8 7 1 12.3.5 13.6C80.1 38.5 82 43 82 48.7c0 19.7-11.7 24-22.8 25.3 1.8 1.6 3.4 4.7 3.4 9.5 0 6.9-.1 12.4-.1 14.1 0 1.3.9 2.9 3.4 2.4C85.7 93.2 100 74 100 51.4 100 22.9 77.6 0 50 0z" fill-rule="evenodd" clip-rule="evenodd"/></svg>
