<svg xmlns="http://www.w3.org/2000/svg" viewBox="0 0 100 100"><path d="M50 100C22.4 100 0 77.6 0 50S22.4 0 50 0s50 22.4 50 50-22.4 50-50 50zm0-74.2c7.9 0 8.8 0 12 .2 2.9.1 4.4.6 5.5 1 1.3.5 2.4 1.2 3.4 2.2 1 1 1.7 2.1 2.2 3.4.4 1 .9 2.6 1 5.5.1 3.1.2 4.1.2 12s0 8.8-.2 12c-.1 2.9-.6 4.4-1 5.5-1 2.6-3 4.6-5.6 5.6-1 .4-2.6.9-5.5 1-3.1.1-4.1.2-12 .2s-8.8 0-12-.2c-2.9-.1-4.4-.6-5.5-1-1.3-.5-2.4-1.2-3.4-2.2-1-1-1.7-2.1-2.2-3.4-.4-1-.9-2.6-1-5.5-.1-3.1-.2-4.1-.2-12s0-8.8.2-12c.1-2.9.6-4.4 1-5.5.5-1.3 1.2-2.4 2.2-3.4 1-1 2.1-1.7 3.4-2.2 1-.4 2.6-.9 5.5-1 3.2-.2 4.1-.2 12-.2zm0-5.4c-8 0-9 0-12.2.2-3.1.1-5.3.6-7.2 1.4-2 .7-3.8 1.9-5.2 3.4-1.5 1.5-2.7 3.3-3.4 5.2-.7 1.9-1.2 4-1.4 7.2-.1 3.2-.2 4.2-.2 12.2s0 9 .2 12.2c.1 3.1.6 5.3 1.4 7.2.7 2 1.9 3.8 3.4 5.2 1.5 1.5 3.3 2.7 5.2 3.4 1.9.7 4 1.2 7.2 1.4 3.2.1 4.2.2 12.2.2s9 0 12.2-.2c3.1-.1 5.3-.6 7.2-1.4 4-1.5 7.1-4.7 8.6-8.6.7-1.9 1.2-4 1.4-7.2.1-3.2.2-4.2.2-12.2s0-9-.2-12.2c-.1-3.1-.6-5.3-1.4-7.2-.7-2-1.9-3.8-3.4-5.2-1.5-1.5-3.3-2.7-5.2-3.4-1.9-.7-4-1.2-7.2-1.4-3.2-.1-4.2-.2-12.2-.2zm0 14.4c-8.4 0-15.2 6.8-15.2 15.2S41.6 65.2 50 65.2 65.2 58.4 65.2 50 58.4 34.8 50 34.8zm0 25.1c-5.4 0-9.9-4.4-9.9-9.9s4.4-9.9 9.9-9.9c5.4 0 9.9 4.4 9.9 9.9 0 5.4-4.5 9.9-9.9 9.9zm15.8-22.1c2 0 3.5-1.6 3.5-3.5s-1.6-3.5-3.5-3.5c-2 0-3.5 1.6-3.5 3.5s1.5 3.5 3.5 3.5z" fill-rule="evenodd" clip-rule="evenodd"/></svg>
