<svg xmlns="http://www.w3.org/2000/svg" viewBox="0 0 100 100"><path d="M88.7 80.3c-2.8-1.2-4-2.8-3.9-5.2.1-2.8-1.4-4.8-2.1-5.6.4-1.7 1.7-7.7 0-12.9-1.8-5.6-7.4-14-13.2-22.4-2.4-3.4-2.5-7.1-2.6-11.4-.1-4.1-.3-8.8-2.5-13.9C61.9 3.2 57.1 0 51.1 0 47.5 0 43.8 1.2 41 3.2c-5.8 4.1-5 13.1-4.5 19.1.1.8.1 1.6.2 2.2.3 5.8 0 8.9-.4 9.9-.3.6-1.5 2.3-2.9 4.2-1.4 1.9-3 4.1-4.3 6.1-1.5 2.4-2.8 6.1-4 9.7-.9 2.6-1.7 5.1-2.5 6.6-1.1 2.1-1.4 4.5-.8 6.7-.6.4-1.4 1.2-2.1 2.8-.9 1.9-2.6 2.9-6.2 3.6-1.7.4-2.8 1.1-3.4 2.2-.9 1.6-.4 3.5 0 4.9.6 2 .2 3.2-.5 5.5-.2.5-.4 1.1-.6 1.8-.3.9-.2 2 .3 2.8 1.4 2.2 5.4 2.9 9.5 3.4 2.5.3 5.2 1.3 7.8 2.3 2.6 1 5.2 2 7.6 2.3.4 0 .7.1 1.1.1 2.4 0 4.7-1.3 5.8-3.5 3.4-.7 6.9-1.1 10.4-1.3 4.6-.1 9.1.8 10.3 1.1.4.8 1.4 2.6 3.1 3.5.9.5 2.2.8 3.5.8 1.4 0 4.1-.3 6.2-2.6 2.1-2.3 7.3-5.2 11.2-7.4.9-.5 1.7-.9 2.4-1.3 2.2-1.2 3.3-3 3.2-4.8-.3-1.7-1.3-3-2.7-3.6zM41 79.8c-.3-2-2.7-3.9-5.5-6.1-2.3-1.8-4.9-3.9-5.6-5.7-1.5-3.6-.3-10 1.7-13.3 1-1.6 1.8-4.1 2.6-6.6.9-2.6 1.7-5.3 2.7-6.5 1.6-1.8 3-5.4 3.3-8.3 1.5 1.5 3.8 3.3 5.9 3.3.3 0 .6 0 .9-.1 1.4-.4 3.6-1.7 5.6-2.9 1.8-1.1 4-2.4 4.8-2.5C58.8 33.2 67 52 67.8 58c.5 3.4.3 6.9-.4 10.3-.3 0-.6-.1-1-.1-2.3 0-2.9 1.3-3 2.1-.4 2-.4 8.4-.5 9.8-.8 1.1-5 6.2-11 7.1-2.4.4-4.7.6-6.8.6-1.8 0-2.9-.1-3.3-.2L39 84c1.2-.6 2.4-1.8 2-4.2zM44.9 21c-.1 0-.2.1-.3.1 0-.2 0-.4-.1-.6-.3-2-1.6-3.4-3-3.4h-.3c-.8.1-1.5.8-1.8 1.7.3-2 1.4-3.5 2.7-3.5 1.5 0 2.8 2.1 2.8 4.7v1zm11.9 1.5c.1-.5.2-1 .2-1.5 0-2.3-1.4-4.1-3.2-4.1-1.8 0-3.2 1.8-3.2 4.1v.5c-.1 0-.2-.1-.3-.1-.2-.6-.3-1.3-.3-2 0-2.7 1.7-5 3.8-5 2.1 0 3.8 2.2 3.8 5 0 1.2-.3 2.3-.8 3.1zm-1.5 5.4c0 .1-.1.2-.8.6-.4.2-.8.4-1.4.8l-.4.2c-1.5.9-5 3.1-5.9 3.3-.6.1-1-.2-1.9-.8-.2-.2-.4-.3-.6-.4-1.6-1.1-2.7-2.3-2.8-2.8.5-.4 1.8-1.5 2.5-2.1 1.4-1.3 2.7-2.2 3.4-2.2h.1c.8.1 2.8 1 4.2 1.5.7.3 1.2.5 1.6.7 1.2.4 1.9 1 2 1.2zM66.6 89c.7-3.3 1.5-7.9 1.4-10.6 0-.6-.1-1.3-.1-1.9-.1-1.2-.2-3-.1-3.5h.1c0 1.5.3 4.6 2.7 5.6.7.3 1.5.5 2.4.5 2.4 0 5-1.2 6.1-2.3.6-.7 1.2-1.5 1.5-2.1.1.3.1.7.1 1-.1 2.3.9 5.3 2.9 6.4l.3.2c.7.4 2.6 1.4 2.7 1.9 0 0 0 .1-.1.2-.5.5-2.2 1.3-3.8 2.2-2.9 1.5-6.2 3.3-7.6 4.9-2.1 2.3-4.4 3.8-5.8 3.8-.2 0-.3 0-.5-.1-1.6-.6-2.8-2.9-2.2-6.2zm-52.2-8.5c-.2-.8-.3-1.4-.1-1.9.1-.4 2.1-.9 3-1.1 1.2-.3 2.5-.6 3.3-1.1 1.1-.7 1.7-2 2.3-3.1.4-.8.8-1.7 1.3-2h.1c.9 0 2.8 2 3.9 3.7.3.4.8 1.3 1.4 2.3 1.8 3 4.2 7.2 5.4 8.6 1.1 1.3 3 3.7 2.5 5.8-.3 1.6-2.1 2.9-2.5 3.2-.2 0-.4.1-.6.1-2.4 0-7.2-2.1-9.7-3.2l-.4-.2c-1.4-.6-3.8-1-6-1.4-1.8-.3-4.3-.7-4.7-1.1-.3-.4.1-1.6.4-2.7.2-.8.5-1.6.6-2.5.2-1.4 0-2.5-.2-3.4z"/></svg>
