<svg xmlns="http://www.w3.org/2000/svg" viewBox="0 0 100 100"><path d="M50 100C22.4 100 0 77.6 0 50S22.4 0 50 0s50 22.4 50 50-22.4 50-50 50zm-8.8-23.1C63 76.9 74.9 57.7 74.9 41v-1.6c2.3-1.8 4.3-4 5.9-6.5-2.1 1-4.4 1.7-6.8 2 2.4-1.6 4.3-4 5.2-7-2.3 1.4-4.8 2.5-7.5 3.1-2.2-2.5-5.2-4-8.6-4-6.5 0-11.8 5.7-11.8 12.6 0 1 .1 2 .3 2.9-9.8-.5-18.6-5.6-24.4-13.2-1 1.9-1.6 4-1.6 6.3 0 4.4 2.1 8.2 5.3 10.5-1.9-.1-3.8-.6-5.4-1.6v.2c0 6.1 4.1 11.2 9.5 12.4-1 .3-2 .4-3.1.4-.8 0-1.5-.1-2.2-.2 1.5 5 5.9 8.7 11.1 8.8-4.1 3.4-9.2 5.4-14.7 5.4-1 0-1.9-.1-2.8-.2 5 3.5 11.2 5.6 17.9 5.6z" fill-rule="evenodd" clip-rule="evenodd"/></svg>
