<?xml version="1.0" encoding="utf-8"?>
<!-- Generator: Adobe Illustrator 23.0.1, SVG Export Plug-In . SVG Version: 6.00 Build 0)  -->
<svg version="1.1" id="Calque_1" xmlns="http://www.w3.org/2000/svg" xmlns:xlink="http://www.w3.org/1999/xlink" x="0px" y="0px"
	 viewBox="0 0 100 100" style="enable-background:new 0 0 100 100;" xml:space="preserve">
<style type="text/css">
	.st0{fill:#3070CD;}
</style>
<path class="st0" d="M44.6,57.1V6.2C44.6,2.9,47.1,0,50,0s5.8,2.9,5.8,6.2v50.4l11.7-10.8c2.1-2.1,5.4-2.1,7.5,0.4
	c0.8,0.8,1.7,2.5,1.2,3.8c-0.4,1.2-0.4,3.3-1.2,4.2L55,73.3c-1.2,1.2-2.9,2.1-4.6,1.7c-1.7,0-3.3-0.4-4.6-1.7L25.4,54.2
	c-0.8-0.8-1.7-2.5-1.7-3.8c0-1.7,0.4-2.9,1.2-3.7c2.1-2.1,5.4-2.5,7.5-0.4C32.5,46.2,44.6,57.1,44.6,57.1z M10,87.5h80
	c3.3,0,5.8,2.9,5.8,6.2S93.3,100,90,100H10c-3.3,0-5.8-2.9-5.8-6.2S6.7,87.5,10,87.5z"/>
</svg>
