<svg xmlns="http://www.w3.org/2000/svg" width="180" height="77" viewBox="0 0 180 77">
    <defs>
        <linearGradient id="a" x1="50%" x2="50%" y1="100%" y2="0%">
            <stop offset="0%" stop-color="#1410B8"/>
            <stop offset="100%" stop-color="#4ED8E4"/>
        </linearGradient>
        <linearGradient id="b" x1="50%" x2="50%" y1="97.537%" y2="0%">
            <stop offset="0%" stop-color="#1410B8"/>
            <stop offset="100%" stop-color="#4ED8E4"/>
        </linearGradient>
    </defs>
    <g fill="none" fill-rule="evenodd">
        <path fill="url(#a)" d="M90 58.667c-16.016 0-29-13.133-29-29.334C61 13.133 73.984 0 90 0s29 13.133 29 29.333-12.984 29.334-29 29.334zm0-8.8c11.211 0 20.3-9.193 20.3-20.534C110.3 17.993 101.211 8.8 90 8.8s-20.3 9.193-20.3 20.533c0 11.34 9.089 20.534 20.3 20.534zm-21.75 19.8h43.5V77h-43.5v-7.333z" transform="matrix(1 0 0 -1 0 77)"/>
        <path fill="url(#b)" d="M28.125 74.367v-10.82H0v-8.594C4.883 45.773 11.172 35.773 23.398 18h14.336v37.266h7.657v8.28h-7.657v10.821h-9.609zM9.062 55.227v.273h19.22v-30h-.157c-9.102 13.047-14.57 21.523-19.063 29.727z"/>
        <path fill="url(#a)" d="M162.734 74.367v-10.82H134.61v-8.594c4.883-9.18 11.172-19.18 23.399-36.953h14.336v37.266H180v8.28h-7.656v10.821h-9.61zm-19.062-19.14v.273h19.219v-30h-.157c-9.101 13.047-14.57 21.523-19.062 29.727z"/>
    </g>
</svg>
