<?xml version="1.0" encoding="UTF-8"?>
<svg width="84px" height="84px" viewBox="0 0 84 84" version="1.1" xmlns="http://www.w3.org/2000/svg" xmlns:xlink="http://www.w3.org/1999/xlink">
    <!-- Generator: Sketch 52.5 (67469) - http://www.bohemiancoding.com/sketch -->
    <title>card-more-features/img/autosleep</title>
    <desc>Created with Sketch.</desc>
    <g id="card-more-features/img/autosleep" stroke="none" stroke-width="1" fill="none" fill-rule="evenodd">
        <g id="autosleep" transform="translate(14.000000, 11.000000)">
            <path d="M28.7939659,11.200161 C42.0057855,11.200161 52.6708971,21.830865 52.6708971,35.000084 C52.6708971,48.169324 42.0057834,58.800014 28.7939659,58.800014 C15.5821505,58.800014 4.91703533,48.169324 4.91703533,35.000084 C4.91703533,21.830865 15.5821484,11.200161 28.7939659,11.200161 Z" id="Path" fill="#FFFFFF"></path>
            <path d="M21.6616101,2.209564 C21.7190675,3.309117 22.775015,4.257456 23.8781276,4.200182 L26.6871776,4.200182 L26.6871776,7.087675 C20.8717421,7.518679 15.5567609,9.734137 11.2593451,13.168904 L9.28423107,11.200161 L11.3251822,9.165793 C11.9521935,8.55638 12.1325197,7.537103 11.7524613,6.750667 C11.3724029,5.964231 10.4603867,5.46945 9.59147163,5.578307 C9.11862004,5.640467 8.66935519,5.868282 8.34056581,6.212675 L1.31793922,13.212654 C0.458725726,13.971699 0.416270578,15.468705 1.23109233,16.27493 C2.04591296,17.081155 3.54740978,17.027794 4.30255493,16.165772 L6.32156037,14.153272 L8.16499948,16.012647 C3.53342156,21.006979 0.703459237,27.678784 0.703459237,35.000084 C0.703459237,50.439074 13.3049597,63.000014 28.7939659,63.000014 C44.2829742,63.000014 56.8844723,50.439074 56.8844723,35.000084 C56.8844723,27.678784 54.0545109,21.006979 49.4229316,16.012647 L51.2663714,14.153272 L53.2853761,16.165772 C54.0405227,17.027787 55.5420167,17.081148 56.3568366,16.27493 C57.1716573,15.468705 57.1292042,13.971699 56.2699933,13.212654 L49.2473667,6.212675 C48.8059052,5.754602 48.1475988,5.513725 47.5136554,5.578307 C46.7248922,5.662594 46.008469,6.230147 45.7480367,6.977047 C45.4876044,7.723947 45.6964553,8.612058 46.2627496,9.165793 L48.3037007,11.200161 L46.3285867,13.168904 C42.0311716,9.734137 36.7161904,7.518679 30.9007541,7.087675 L30.9007541,4.200182 L33.7098042,4.200182 C34.8228249,4.215862 35.846528,3.209731 35.846528,2.100182 C35.846528,0.990647 34.8228249,-0.015456 33.7098042,0.000196 C30.3685902,0.000189 26.9825573,0.000196 23.6586698,0.000196 C22.555558,0.057456 21.6041569,1.110004 21.6616101,2.209564 Z M28.7939659,11.200161 C42.0057855,11.200161 52.6708971,21.830865 52.6708971,35.000084 C52.6708971,48.169324 42.0057834,58.800014 28.7939659,58.800014 C15.5821505,58.800014 4.91703533,48.169324 4.91703533,35.000084 C4.91703533,21.830865 15.5821484,11.200161 28.7939659,11.200161 Z" id="Shape" fill="#3070CD" fill-rule="nonzero"></path>
            <path d="M31.8669633,45.9374818 C27.0885778,46.9836775 21.9932585,44.8657691 19.3115116,40.2471978 C15.9227586,34.4038121 17.7024634,26.7742385 23.2609935,23.2273799 C24.3824513,22.5129048 25.5770477,22.0025654 26.8204031,21.7218788 C27.1617163,21.6453279 27.5030296,21.7729127 27.7224452,22.0535994 C27.9418609,22.334286 27.9662404,22.7425575 27.8199633,23.0487611 C27.6736862,23.3804817 27.5274091,23.7122023 27.381132,24.0439229 C26.0402585,27.5397476 26.3571922,31.3672928 28.2100356,34.5569139 C30.062879,37.7720519 33.1834573,39.8134094 36.7672464,40.1961639 C37.1085596,40.2216809 37.4498729,40.2471978 37.8155657,40.2471978 C38.1568789,40.2471978 38.4738126,40.4513336 38.6200898,40.7830542 C38.7663669,41.1147748 38.7176078,41.4975293 38.4981922,41.778216 C37.6692886,42.7988947 36.6941078,43.6919886 35.5970295,44.3809467 C34.4024332,45.1464558 33.1346982,45.6567952 31.8669633,45.9374818 Z" id="Path" fill="#FFD429" fill-rule="nonzero"></path>
        </g>
    </g>
</svg>