<svg xmlns="http://www.w3.org/2000/svg" width="152" height="32" viewBox="0 0 152 32">
  <path fill="#3070CD" d="M17.5234568 5.56521739L8.7617284 11.1304348 17.5234568 16.6956522 8.7617284 22.2608696 0 16.6492754 8.7617284 11.084058 0 5.56521739 8.7617284 0 17.5234568 5.56521739zM8.71512346 24.0231884L17.4768519 18.457971 26.2385802 24.0231884 17.4768519 29.5884058 8.71512346 24.0231884zM17.5234568 16.6492754L26.2851852 11.084058 17.5234568 5.56521739 26.2385802 0 35.0003086 5.56521739 26.2385802 11.1304348 35.0003086 16.6956522 26.2385802 22.2608696 17.5234568 16.6492754zM41.8512346 5.56521739L48.9351852 5.56521739C53.4558642 5.56521739 57.1842593 8.16231884 57.1842593 14.0985507L57.1842593 15.3507246C57.1842593 21.3333333 53.6888889 24.0231884 49.075 24.0231884L41.8512346 24.0231884 41.8512346 5.56521739zM45.8126543 8.90434783L45.8126543 20.6376812 48.8419753 20.6376812C51.4052469 20.6376812 53.1296296 18.9681159 53.1296296 15.257971L53.1296296 14.284058C53.1296296 10.573913 51.312037 8.90434783 48.7021605 8.90434783L45.8126543 8.90434783zM59.2814815 9.08985507L62.4506173 9.08985507 62.9632716 12.5681159C63.5691358 10.2028986 65.1070988 8.95072464 67.9033951 8.95072464L68.8820988 8.95072464 68.8820988 12.9391304 67.2509259 12.9391304C64.0351852 12.9391304 63.2429012 14.0521739 63.2429012 17.2057971L63.2429012 24.0695652 59.3280864 24.0695652 59.3280864 9.08985507 59.2814815 9.08985507zM69.6743827 16.8811594L69.6743827 16.4637681C69.6743827 11.4550725 72.8901235 8.71884058 77.2709877 8.71884058 81.7450617 8.71884058 84.8675926 11.4550725 84.8675926 16.4637681L84.8675926 16.8811594C84.8675926 21.7971014 81.8382716 24.4405797 77.2709877 24.4405797 72.4240741 24.3942029 69.6743827 21.7971014 69.6743827 16.8811594zM80.8595679 16.8347826L80.8595679 16.4637681C80.8595679 13.6811594 79.4614198 12.0115942 77.2243827 12.0115942 75.0339506 12.0115942 73.5891975 13.542029 73.5891975 16.4637681L73.5891975 16.8347826C73.5891975 19.5246377 74.9873457 21.0550725 77.2243827 21.0550725 79.4614198 21.0086957 80.8595679 19.5246377 80.8595679 16.8347826zM86.9182099 9.08985507L90.1805556 9.08985507 90.5533951 11.9188406C91.345679 10.0173913 93.0234568 8.71884058 95.4935185 8.71884058 99.3151235 8.71884058 101.83179 11.4550725 101.83179 16.5101449L101.83179 16.9275362C101.83179 21.8434783 99.0354938 24.4405797 95.4935185 24.4405797 93.1166667 24.4405797 91.4854938 23.373913 90.6932099 21.657971L90.6932099 29.2173913 86.8716049 29.2173913 86.9182099 9.08985507zM97.8703704 16.8347826L97.8703704 16.5101449C97.8703704 13.542029 96.3324074 12.057971 94.2817901 12.057971 92.091358 12.057971 90.6466049 13.7275362 90.6466049 16.5101449L90.6466049 16.7884058C90.6466049 19.4318841 92.0447531 21.1014493 94.2351852 21.1014493 96.4722222 21.0550725 97.8703704 19.6173913 97.8703704 16.8347826zM107.610802 21.2869565L107.284568 24.0231884 103.929012 24.0231884 103.929012 4.08115942 107.750617 4.08115942 107.750617 11.7333333C108.589506 9.78550725 110.267284 8.71884058 112.644136 8.71884058 116.232716 8.76521739 118.889198 11.2231884 118.889198 16.1855072L118.889198 16.6492754C118.889198 21.6115942 116.372531 24.4405797 112.550926 24.4405797 110.034259 24.3942029 108.403086 23.2347826 107.610802 21.2869565zM114.881173 16.6492754L114.881173 16.2782609C114.881173 13.542029 113.389815 12.0115942 111.292593 12.0115942 109.148765 12.0115942 107.657407 13.7275362 107.657407 16.3246377L107.657407 16.6492754C107.657407 19.4318841 109.10216 21.0550725 111.245988 21.0550725 113.52963 21.0550725 114.881173 19.6173913 114.881173 16.6492754zM120.566975 16.8811594L120.566975 16.4637681C120.566975 11.4550725 123.782716 8.71884058 128.16358 8.71884058 132.637654 8.71884058 135.760185 11.4550725 135.760185 16.4637681L135.760185 16.8811594C135.760185 21.7971014 132.684259 24.4405797 128.16358 24.4405797 123.316667 24.3942029 120.566975 21.7971014 120.566975 16.8811594zM131.798765 16.8347826L131.798765 16.4637681C131.798765 13.6811594 130.400617 12.0115942 128.16358 12.0115942 125.973148 12.0115942 124.528395 13.542029 124.528395 16.4637681L124.528395 16.8347826C124.528395 19.5246377 125.926543 21.0550725 128.16358 21.0550725 130.400617 21.0086957 131.798765 19.5246377 131.798765 16.8347826zM140.886728 16.2782609L135.62037 9.08985507 140.141049 9.08985507 143.17037 13.5884058 146.246296 9.08985507 150.72037 9.08985507 145.360802 16.2318841 151 24.0231884 146.572531 24.0231884 143.123765 19.0608696 139.76821 24.0231884 135.154321 24.0231884 140.886728 16.2782609z" opacity=".6" transform="translate(1 1)"/>
</svg>
