<svg xmlns="http://www.w3.org/2000/svg" width="84" height="84" viewBox="0 0 84 84">
  <g fill="none" fill-rule="evenodd" transform="translate(20 20)">
    <path stroke="#FFD429" stroke-linecap="round" stroke-linejoin="round" stroke-width="3" d="M38,43 C38,44.1045695 37.1045695,45 36,45 L2,45 C0.8954305,45 0,44.1045695 0,43 L0,9 C0,7.8954305 0.8954305,7 2,7"/>
    <rect width="38" height="38" x="7" fill="#3070CD" stroke="#3070CD" stroke-linecap="round" stroke-linejoin="round" stroke-width="3" rx="2"/>
    <path fill="#FFF" d="M24.4722222,17.4722222 L24.4722222,11.3611111 C24.4722222,10.5173194 25.1562083,9.83333333 26,9.83333333 C26.8437917,9.83333333 27.5277778,10.5173194 27.5277778,11.3611111 L27.5277778,17.4722222 L33.6388889,17.4722222 C34.4826806,17.4722222 35.1666667,18.1562083 35.1666667,19 C35.1666667,19.8437917 34.4826806,20.5277778 33.6388889,20.5277778 L27.5277778,20.5277778 L27.5277778,26.6388889 C27.5277778,27.4826806 26.8437917,28.1666667 26,28.1666667 C25.1562083,28.1666667 24.4722222,27.4826806 24.4722222,26.6388889 L24.4722222,20.5277778 L18.3611111,20.5277778 C17.5173194,20.5277778 16.8333333,19.8437917 16.8333333,19 C16.8333333,18.1562083 17.5173194,17.4722222 18.3611111,17.4722222 L24.4722222,17.4722222 Z"/>
  </g>
</svg>
