<svg xmlns="http://www.w3.org/2000/svg" width="152" height="32" viewBox="0 0 152 32">
  <g fill="#3070CD" fill-rule="evenodd" opacity=".6" transform="translate(29)">
    <g transform="translate(36.777 7.247)">
      <polygon points="29.718 1.228 27.699 1.228 27.706 16.278 35.872 16.278 35.872 14.416 29.724 14.416"/>
      <path d="M43.6476439 13.6352004C43.1430228 14.1636313 42.2943007 14.6921846 41.1473438 14.6921846 39.6104239 14.6921846 38.9911446 13.9339324 38.9911446 12.9458574 38.9911446 11.4524464 40.0233185 10.740135 42.2255058 10.740135 42.6384003 10.740135 43.3035443 10.7860773 43.6476439 10.8549771L43.6476439 13.6352004zM41.5602383 4.51345105C39.9301122 4.51345105 38.4349874 5.09226643 37.2683051 6.05576578L37.9817775 7.29366763C38.8075666 6.81117758 39.8169336 6.3285638 41.2620034 6.3285638 42.9135814 6.3285638 43.6476439 7.17881883 43.6476439 8.60332057L43.6476439 9.33860306C43.3264759 9.26968975 42.661332 9.22362649 42.2484374 9.22362649 38.71584 9.22362649 36.9266707 10.4643688 36.9266707 13.0608273 36.9266707 15.3813999 38.3488087 16.5532329 40.5050093 16.5532329 41.9574758 16.5532329 43.3494076 15.8868597 43.8310984 14.8070294L44.1981283 16.2774707 45.6203899 16.2774707 45.6203899 8.58034677C45.6203899 6.14480033 44.5651595 4.51344702 41.5602383 4.51344702L41.5602383 4.51345105zM52.1335725 14.7610442C51.3765784 14.7610442 50.7113109 14.6691597 50.2066898 14.4393438L50.2066898 8.20117559 50.2066898 7.47750103C50.8948876 6.90300821 51.7436096 6.48942744 52.8217703 6.48942744 54.7714624 6.48942744 55.5284565 7.86798831 55.5284565 10.0968056 55.5284565 13.2675108 54.3127033 14.7610442 52.1335725 14.7610442M52.9819226 4.51340129C51.1778361 4.51340129 50.2066898 5.74278312 50.2066898 5.74278312L50.2066898 3.80121229 50.2002449 1.22784863 49.2901261 1.22784863 48.2276211 1.22784863 48.2340659 15.9099074C49.2203779 16.3234895 50.5737196 16.5531871 52.0418445 16.5531871 55.8037598 16.5531871 57.6158608 14.1407355 57.6158608 9.98195675 57.6158608 6.69627902 55.9409805 4.51340129 52.9819226 4.51340129M7.77500188 2.85915218C9.56417118 2.85915218 10.7111281 3.45649238 11.4681222 4.05395497L12.3355827 2.54881228C11.1532421 1.51022915 9.5629386.952036664 7.86672981.952036664 3.57726042.952036664.572339218 3.57146492.572339218 8.85601349.572339218 14.3934782 3.81409859 16.5532611 7.52263024 16.5532611 9.38071666 16.5532611 10.9635011 16.1167106 11.995675 15.6801601L11.953394 9.76369359 11.953394 9.06570552 11.953394 7.90251759 6.44817401 7.90251759 6.44817401 9.76369359 9.95771632 9.76369359 9.99999734 14.2555346C9.54123953 14.4853573 8.73838214 14.6691154 7.66034365 14.6691154 4.67835409 14.6691154 2.68267644 12.7901569 2.68267644 8.83304373 2.68267644 4.81220723 4.74714903 2.85915218 7.77500188 2.85915218M21.9711308 1.22779887L19.9983848 1.22779887 20.0048297 3.75522435 20.0048297 4.78923747 20.0048297 5.39188738 20.0048297 6.44356189 20.0048297 12.463393 20.0048297 12.4863641C20.0048297 14.9219091 21.0600601 16.5532625 24.0649813 16.5532625 24.4800952 16.5532625 24.8863314 16.5154704 25.2807332 16.4437193L25.2807332 14.6692364C24.995196 14.7130805 24.6904262 14.7380287 24.3632162 14.7380287 22.7116381 14.7380287 21.9775757 13.887896 21.9775757 12.4633956L21.9775757 6.44356458 25.2807332 6.44356458 25.2807332 4.78924016 21.9775757 4.78924016 21.9711308 1.22779887z"/>
      <polygon points="14.993 16.278 16.966 16.278 16.966 4.789 14.993 4.789"/>
      <polygon points="14.993 3.204 16.966 3.204 16.966 1.228 14.993 1.228"/>
    </g>
    <g transform="translate(.755 .652)">
      <polygon points="17.297 30.669 17.297 30.669 23.412 11.818 11.182 11.818"/>
      <polygon fill-opacity=".639" points="17.297 30.669 11.182 11.818 2.613 11.818"/>
      <path fill-opacity=".45" d="M2.61281513,11.8184651 L0.754576903,17.5468916 C0.585106727,18.0693853 0.7707597,18.6417689 1.21452885,18.9646123 L17.2971134,30.6686646 L2.61281513,11.8184651 Z"/>
      <path d="M2.61281513,11.8184828 L11.1824316,11.8184828 L7.49957981,0.465101274 C7.3100609,-0.119078677 6.48500637,-0.119078677 6.29557735,0.465101274 L2.61281513,11.8184828 Z"/>
      <polygon fill-opacity=".639" points="17.297 30.669 23.412 11.818 31.981 11.818"/>
      <path fill-opacity=".45" d="M31.9814034,11.8184651 L33.8396418,17.5468916 C34.0091117,18.0693853 33.8234572,18.6417689 33.3796892,18.9646123 L17.2971045,30.6686646 L31.9814034,11.8184651 Z"/>
      <path d="M31.9814034,11.8184828 L23.4117863,11.8184828 L27.0946387,0.465101274 C27.2841578,-0.119078677 28.109212,-0.119078677 28.298641,0.465101274 L31.9814034,11.8184828 Z"/>
    </g>
  </g>
</svg>
