<?xml version="1.0" encoding="UTF-8"?>
<svg width="34px" height="34px" viewBox="0 0 34 34" version="1.1" xmlns="http://www.w3.org/2000/svg" xmlns:xlink="http://www.w3.org/1999/xlink">
    <!-- Generator: Sketch 52.4 (67378) - http://www.bohemiancoding.com/sketch -->
    <title>Group 3</title>
    <desc>Created with Sketch.</desc>
    <defs>
        <path d="M2.98781083,3.0377094 C3.5495992,3.47555426 3.76034926,3.44217155 4.81525463,3.3746553 L14.7605895,2.80172021 C14.9715128,2.80172021 14.7961092,2.5999223 14.7258206,2.56636632 L13.0740693,1.42090042 C12.7575688,1.18525776 12.3359531,0.915308301 11.5278373,0.982824544 L1.89773232,1.65660084 C1.54657849,1.6900413 1.47640548,1.8584565 1.61628946,1.99348898 L2.98781083,3.0377094 Z M3.58488785,5.26112496 L3.58488785,15.2992713 C3.58488785,15.8387659 3.86592643,16.0406216 4.49846536,16.0072389 L15.4284171,15.4005168 C16.0612448,15.3671341 16.1317066,14.9961124 16.1317066,14.5578632 L16.1317066,4.58694438 C16.1317066,4.14944606 15.9562452,3.91351462 15.5688786,3.94712835 L4.14702276,4.58700214 C3.72552265,4.62102016 3.58488785,4.82322235 3.58488785,5.26112496 Z M14.3748978,5.79957999 C14.4449553,6.10308543 14.3748978,6.40624433 14.057993,6.44037787 L13.5312623,6.5410458 L13.5312623,13.9518342 C13.0740693,14.1875924 12.6524536,14.3223938 12.3010688,14.3223938 C11.7385296,14.3223938 11.5976638,14.1538054 11.1763369,13.6487908 L7.73162183,8.46118695 L7.73162183,13.4803756 L8.82164259,13.7163071 C8.82164259,13.7163071 8.82164259,14.3223938 7.94219862,14.3223938 L5.51779331,14.4573108 C5.44733153,14.3223938 5.51779331,13.9857945 5.7637165,13.918336 L6.39637095,13.7501518 L6.39637095,7.11386538 L5.51790882,7.04634914 C5.44750479,6.74290146 5.6229662,6.30534538 6.11533238,6.27138512 L8.71618093,6.10320094 L12.3010688,11.3583788 L12.3010688,6.70946099 L11.387087,6.60885082 C11.316914,6.23782914 11.5976638,5.96845723 11.9491641,5.93501677 L14.3748978,5.79957999 Z M1.08921218,0.747124128 L11.1060484,0.0395030795 C12.3361264,-0.0616846512 12.6525692,0.00612036926 13.4257429,0.544864177 L16.6232064,2.70064799 C17.1508035,3.07143864 17.3266692,3.1723376 17.3266692,3.57651096 L17.3266692,15.4005168 C17.3266692,16.1415205 17.0452841,16.5798274 16.0613603,16.6468816 L4.42892767,17.3207157 C3.69040727,17.3545027 3.33890691,17.253546 2.9521179,16.7816253 L0.597423554,13.8509353 C0.175461403,13.3114984 0,12.9079026 0,12.4356932 L0,1.92568396 C0,1.31971269 0.281500619,0.814236081 1.08921218,0.747124128 Z" id="path-1"></path>
    </defs>
    <g id="Symbols" stroke="none" stroke-width="1" fill="none" fill-rule="evenodd">
        <g id="card-feature-double-copy-3" transform="translate(-175.000000, -210.000000)">
            <g id="Group-3" transform="translate(175.000000, 210.000000)">
                <g id="circle--red" fill="#EC5657">
                    <circle cx="17" cy="17" r="17"></circle>
                </g>
                <g id="icon/providers/i--notion" transform="translate(8.500000, 8.500000)">
                    <mask id="mask-2" fill="white">
                        <use xlink:href="#path-1"></use>
                    </mask>
                    <use id="provider-svg--notion" fill="#FEFEFE" fill-rule="nonzero" xlink:href="#path-1"></use>
                    <g id="colors/plain/c--white" mask="url(#mask-2)" fill="#FFFFFF" fill-rule="evenodd">
                        <rect id="Rectangle" x="0" y="0" width="17.0002641" height="17.0002641"></rect>
                    </g>
                </g>
            </g>
        </g>
    </g>
</svg>