<svg xmlns="http://www.w3.org/2000/svg" width="195" height="88" viewBox="0 0 195 88">
  <g fill="none" fill-rule="evenodd" transform="translate(6 37)">
    <path fill="#F9AC30" d="M13.2600602,23.2034698 L10.4704217,23.2034698 C9.44710843,23.2034698 8.61753012,24.0356355 8.61753012,25.0621404 L8.61753012,27.1318285 L21.3829518,27.1318285 L21.3829518,25.0621404 C21.3829518,24.0356355 20.5533735,23.2034698 19.5300602,23.2034698 L16.7404217,23.2034698 L13.2600602,23.2034698 Z"/>
    <path fill="#DD8D19" fill-rule="nonzero" d="M29.1660843,4.24391813 C28.2072289,2.7365809 26.5264458,1.9071345 24.4344578,1.9071345 L24.3801205,1.9071345 L5.62048193,1.9071345 L5.56614458,1.9071345 C3.47349398,1.9071345 1.79337349,2.73652047 0.834518072,4.24391813 C-0.201385542,5.87229435 -0.227891566,8.03226316 0.76186747,10.1713236 C2.58096386,14.1009513 8.31945783,15.4112904 8.56325301,15.4651326 L9.12162651,15.5887096 L9.12222892,15.5887096 L20.8777108,15.5887096 L20.8783133,15.5887096 L21.4372892,15.4651326 C21.6804819,15.4112904 27.4195783,14.1009513 29.2380723,10.1713236 C30.2278916,8.03226316 30.2013855,5.87229435 29.1660843,4.24391813 Z M27.5193976,9.37046004 C26.7904819,10.9449942 25.0869277,12.0094483 23.7857831,12.6246745 C23.2489157,12.8787778 22.7378916,13.0777096 22.305241,13.2284795 L7.69542169,13.2290838 L7.69481928,13.2290838 C7.26150602,13.0776491 6.75054217,12.8787173 6.21427711,12.624614 C4.91373494,12.0093879 3.20957831,10.9449337 2.48066265,9.37039961 C1.76879518,7.83260624 1.75114458,6.33669006 2.43204819,5.26649513 C3.03024096,4.3255575 4.14379518,3.80792398 5.56626506,3.80792398 L5.62246988,3.80792398 L24.3783735,3.80792398 L24.4345783,3.80792398 C25.8570482,3.80792398 26.97,4.3255575 27.5687952,5.26649513 C28.2489759,6.33675049 28.2312651,7.83266667 27.5193976,9.37046004 Z"/>
    <path fill="#F9AC30" d="M16.326747,23.2034698 L16.3239157,21.3584561 C16.3218675,20.0314386 17.0077711,18.7895653 18.148253,18.1172339 C21.78,15.9762398 24.3798193,10.2365867 24.3798193,3.49103509 L24.3798193,1.04999995 C24.3798193,0.470100991 23.9097183,-3.28570316e-16 23.3298193,-2.22044605e-16 L6.67030116,2.22044605e-16 C6.0904022,3.28570316e-16 5.6203012,0.470100991 5.6203012,1.04999995 L5.6203012,3.49091423 C5.6203012,10.2365867 8.22024096,15.9764211 11.8521084,18.1172339 C12.9925301,18.7895049 13.6784337,20.0313177 13.6764458,21.3582144 L13.6737349,23.2034094 L15.1896386,24.7777622 L16.326747,23.2034698 Z"/>
    <path fill="#DD8D19" d="M8.76421687 21.3583957L8.76295181 23.2034698 8.0713253 23.2034698 8.07385542 21.3583957C8.07572289 20.0316199 7.38975904 18.7897466 6.2496988 18.1174756 2.61777108 15.9764815.0179518072 10.2366472.0179518072 3.49121637L.0179518072 1.04999995C.0179518072.470100991.488052799-3.37563499e-16 1.06795176-4.4408921e-16L4.90939759 0 4.90939759 3.49121637C4.90939759 10.2366472 6.15373494 15.9764815 7.89138554 18.1174756 8.43704819 18.7896862 8.76548193 20.0315595 8.76421687 21.3583957zM8.91060241 23.2034698L7.65777108 23.2034698 4.86807229 23.2034698C3.84475904 23.2034698 3.01518072 24.0356355 3.01518072 25.0621404L3.01518072 27.1318285 7.0576506 27.1318285 7.0576506 25.0621404C7.0576506 24.0356355 7.88722892 23.2034698 8.91060241 23.2034698z" transform="translate(5.602)"/>
    <path fill="#4F5B5E" d="M12.7779518,26.1180741 L7.90174699,26.1180741 C7.3203012,26.1180741 6.8489759,26.5908694 6.8489759,27.1741287 L6.8489759,30.939692 L23.1516265,30.939692 L23.1516265,27.1741287 C23.1516265,26.5908694 22.6803012,26.1180741 22.0988554,26.1180741 L17.2226506,26.1180741"/>
    <path fill="#3B4547" d="M9.16493976,26.1180741 L7.90168675,26.1180741 C7.32024096,26.1180741 6.84891566,26.5908694 6.84891566,27.1741287 L6.84891566,30.939692 L8.11216867,30.939692 L8.11216867,27.1741287 C8.11228916,26.5908694 8.58355422,26.1180741 9.16493976,26.1180741 Z"/>
    <path fill="#66C6ED" d="M5.43625021,3.06983122 C5.43625021,2.42633121 4.92578236,2.0357462 4.26282796,2.0357462 L2.485394,2.0357462 L2.485394,4.09221624 L4.26282796,4.09221624 C4.92578236,4.09221624 5.43625021,3.70163124 5.43625021,3.06983122 Z M0.802509757,8.39996134 L0.802509757,0.599961169 L4.49930282,0.599961169 C6.21789467,0.599961169 7.15383621,1.72569619 7.15383621,3.06983122 C7.15383621,4.40226625 6.20632742,5.52800128 4.49930282,5.52800128 L2.485394,5.52800128 L2.485394,8.39996134 L0.802509757,8.39996134 Z M8.17768886,8.40000034 L8.17768886,2.71341021 L9.6820351,2.71341021 L9.6820351,3.46035773 C10.0969474,2.97773272 10.7966152,2.57593521 11.5077498,2.57593521 L11.5077498,4.00002024 C11.4006269,3.97710774 11.2703696,3.96589524 11.0928375,3.96589524 C10.5949427,3.96589524 9.93098247,4.24133275 9.6820351,4.59779276 L9.6820351,8.40000034 L8.17768886,8.40000034 Z M16.5699312,5.48213727 C16.5699312,4.62062726 16.0478961,3.87377724 15.1002867,3.87377724 C14.1633393,3.87377724 13.6422095,4.62062726 13.6422095,5.48213727 C13.6422095,6.35534729 14.1633393,7.10170981 15.1002867,7.10170981 C16.0478961,7.10170981 16.5699312,6.35534729 16.5699312,5.48213727 Z M12.0780153,5.48213727 C12.0780153,3.90838974 13.2157299,2.57595471 15.1002867,2.57595471 C16.9964107,2.57595471 18.1341253,3.90838974 18.1341253,5.48213727 C18.1341253,7.05588481 16.9964107,8.40001984 15.1002867,8.40001984 C13.2157299,8.40001984 12.0780153,7.05588481 12.0780153,5.48213727 Z M23.1982279,6.46988055 L23.1982279,4.5056455 C22.9492805,4.137973 22.4041109,3.87374799 21.9061156,3.87374799 C21.0415893,3.87374799 20.4490442,4.528558 20.4490442,5.48210802 C20.4490442,6.44696805 21.0415893,7.10168056 21.9061156,7.10168056 C22.4041109,7.10168056 22.9492805,6.83745555 23.1982279,6.46988055 Z M23.1982279,8.39999059 L23.1982279,7.54979057 C22.747608,8.10115308 22.1319285,8.39999059 21.4323612,8.39999059 C19.9984243,8.39999059 18.8964173,7.34309057 18.8964173,5.48210802 C18.8964173,3.67874799 19.9752898,2.57592546 21.4323612,2.57592546 C22.1077881,2.57592546 22.747608,2.85146047 23.1982279,3.42573548 L23.1982279,0.599990419 L24.7151472,0.599990419 L24.7151472,8.39999059 L23.1982279,8.39999059 Z M30.0754821,8.40000034 L30.0754821,7.56140282 C29.6847101,7.97490033 28.9976154,8.40000034 28.0615733,8.40000034 C26.8052692,8.40000034 26.2127241,7.73358782 26.2127241,6.6536778 L26.2127241,2.71341021 L27.7171709,2.71341021 L27.7171709,6.07940279 C27.7171709,6.8491653 28.1320832,7.10169031 28.7718025,7.10169031 C29.3526797,7.10169031 29.8149675,6.7916403 30.0754821,6.4698903 L30.0754821,2.71341021 L31.5808342,2.71341021 L31.5808342,8.40000034 L30.0754821,8.40000034 Z M32.7107837,5.48213727 C32.7107837,3.78212724 33.9903229,2.57595471 35.7446223,2.57595471 C36.9180446,2.57595471 37.6291791,3.06979222 38.0083838,3.57542723 L37.0241615,4.47096475 C36.7519791,4.08047724 36.3370668,3.87377724 35.8160375,3.87377724 C34.9031299,3.87377724 34.2634106,4.51727725 34.2634106,5.48213727 C34.2634106,6.4469973 34.9031299,7.10170981 35.8160375,7.10170981 C36.3370668,7.10170981 36.7519791,6.87209731 37.0241615,6.4928223 L38.0083838,7.38884732 C37.6291791,7.89448233 36.9180446,8.40001984 35.7446223,8.40001984 C33.9903229,8.40001984 32.7107837,7.19384731 32.7107837,5.48213727 Z M39.3024072,6.87208756 L39.3024072,3.98881749 L38.3547978,3.98881749 L38.3547978,2.71341996 L39.3024072,2.71341996 L39.3024072,1.19719743 L40.8077593,1.19719743 L40.8077593,2.71341996 L41.9686084,2.71341996 L41.9686084,3.98881749 L40.8077593,3.98881749 L40.8077593,6.48160005 C40.8077593,6.83747505 40.9968587,7.10170006 41.3287885,7.10170006 C41.5536961,7.10170006 41.7678412,7.02126256 41.8499184,6.92961256 L42.1702809,8.04364758 C41.9454739,8.23913508 41.5420283,8.40001009 40.9138762,8.40001009 C39.8591441,8.40001009 39.3024072,7.87156008 39.3024072,6.87208756 Z M51.6090075,8.40000034 L51.6090075,5.03410527 L47.8756015,5.03410527 L47.8756015,8.40000034 L46.1936226,8.40000034 L46.1936226,0.600000169 L47.8756015,0.600000169 L47.8756015,3.60953273 L51.6090075,3.60953273 L51.6090075,0.600000169 L53.303459,0.600000169 L53.303459,8.40000034 L51.6090075,8.40000034 Z M58.6888998,8.40000034 L58.6888998,7.56140282 C58.2981278,7.97490033 57.6110331,8.40000034 56.674991,8.40000034 C55.4186868,8.40000034 54.8261418,7.73358782 54.8261418,6.6536778 L54.8261418,2.71341021 L56.330488,2.71341021 L56.330488,6.07940279 C56.330488,6.8491653 56.7455009,7.10169031 57.3852202,7.10169031 C57.9660974,7.10169031 58.4283852,6.7916403 58.6888998,6.4698903 L58.6888998,2.71341021 L60.1942519,2.71341021 L60.1942519,8.40000034 L58.6888998,8.40000034 Z M65.553601,8.40000034 L65.553601,4.90784276 C65.553601,4.13798275 65.139594,3.87375774 64.4988688,3.87375774 C63.9064243,3.87375774 63.4567097,4.19550775 63.1952898,4.51725775 L63.1952898,8.40000034 L61.690843,8.40000034 L61.690843,2.71341021 L63.1952898,2.71341021 L63.1952898,3.42574523 C63.5629273,3.01234522 64.2740618,2.57593521 65.1985367,2.57593521 C66.466408,2.57593521 67.0705203,3.26487023 67.0705203,4.34468275 L67.0705203,8.40000034 L65.553601,8.40000034 Z M68.8643798,6.87208756 L68.8643798,3.98881749 L67.9167704,3.98881749 L67.9167704,2.71341996 L68.8643798,2.71341996 L68.8643798,1.19719743 L70.3697319,1.19719743 L70.3697319,2.71341996 L71.530581,2.71341996 L71.530581,3.98881749 L70.3697319,3.98881749 L70.3697319,6.48160005 C70.3697319,6.83747505 70.5588313,7.10170006 70.8907611,7.10170006 C71.1156687,7.10170006 71.3298137,7.02126256 71.4127962,6.92961256 L71.7322535,8.04364758 C71.5073459,8.23913508 71.1040009,8.40001009 70.4758488,8.40001009 C69.4211166,8.40001009 68.8643798,7.87156008 68.8643798,6.87208756 Z" transform="translate(38 5)"/>
    <path fill="#66C6ED" d="M39,21.4317343 L42.4917071,21.4317343 C44.2279504,21.4317343 45.4516496,22.7337902 45.4516496,24.6046389 C45.4516496,26.4823405 44.2151368,27.7912493 42.4788935,27.7912493 L40.1532244,27.7912493 L40.1532244,31.3205061 L39,31.3205061 L39,21.4317343 Z M40.1532244,22.5282024 L40.1532244,26.6947812 L42.1905874,26.6947812 C43.5103886,26.6947812 44.2663912,25.9204006 44.2663912,24.6046389 C44.2663912,23.2957301 43.5167954,22.5282024 42.1905874,22.5282024 L40.1532244,22.5282024 Z M46.6305012,31.3205061 L46.6305012,23.9330522 L47.6812167,23.9330522 L47.6812167,25.1323142 L47.7068439,25.1323142 C47.9118616,24.3579336 48.5717622,23.8645229 49.3790192,23.8645229 C49.5776301,23.8645229 49.7442069,23.8850817 49.840309,23.9056405 L49.840309,25.0774908 C49.7506137,25.0432261 49.5071553,25.0089615 49.2316628,25.0089615 C48.3347105,25.0089615 47.7452847,25.7079599 47.7452847,26.7496046 L47.7452847,31.3205061 L46.6305012,31.3205061 Z M53.6331357,31.3890353 C51.6918747,31.3890353 50.4489552,29.9156563 50.4489552,27.6267791 C50.4489552,25.331049 51.6918747,23.8645229 53.6331357,23.8645229 C55.5743967,23.8645229 56.8173163,25.331049 56.8173163,27.6267791 C56.8173163,29.9156563 55.5743967,31.3890353 53.6331357,31.3890353 Z M53.6331357,30.3268318 C54.9209029,30.3268318 55.6833124,29.3194518 55.6833124,27.6267791 C55.6833124,25.9272536 54.9209029,24.9267264 53.6331357,24.9267264 C52.3453685,24.9267264 51.5829591,25.9341065 51.5829591,27.6267791 C51.5829591,29.3194518 52.3517753,30.3268318 53.6331357,30.3268318 Z M60.6101431,31.3890353 C58.8738998,31.3890353 57.6502006,29.8813917 57.6502006,27.6267791 C57.6502006,25.3721666 58.867493,23.8645229 60.5845159,23.8645229 C61.5711634,23.8645229 62.3656068,24.323669 62.7884558,25.1323142 L62.814083,25.1323142 L62.814083,21 L63.9288665,21 L63.9288665,31.3205061 L62.8653374,31.3205061 L62.8653374,30.0732736 L62.846117,30.0732736 C62.3976409,30.9230364 61.6096042,31.3890353 60.6101431,31.3890353 Z M60.808754,24.9267264 C59.5978684,24.9267264 58.7906113,25.9957828 58.7906113,27.6267791 C58.7906113,29.2646284 59.5978684,30.3268318 60.808754,30.3268318 C62.0068259,30.3268318 62.8204898,29.2372167 62.8204898,27.6267791 C62.8204898,26.0231945 62.0068259,24.9267264 60.808754,24.9267264 Z M71.1365188,23.9330522 L71.1365188,31.3205061 L70.0858032,31.3205061 L70.0858032,30.1006853 L70.060176,30.1006853 C69.6309203,30.9504481 68.9197653,31.3890353 67.862643,31.3890353 C66.3506377,31.3890353 65.4729058,30.3473906 65.4729058,28.6684238 L65.4729058,23.9330522 L66.5876894,23.9330522 L66.5876894,28.4628361 C66.5876894,29.6758039 67.1194539,30.3268318 68.2022035,30.3268318 C69.3362074,30.3268318 70.0217352,29.4907749 70.0217352,28.2229837 L70.0217352,23.9330522 L71.1365188,23.9330522 Z M78.3569846,26.3384291 L77.2614215,26.3384291 C77.1204718,25.5503426 76.5054188,24.9267264 75.4675169,24.9267264 C74.2630381,24.9267264 73.4429675,25.9957828 73.4429675,27.6267791 C73.4429675,29.3057459 74.2758517,30.3268318 75.4803305,30.3268318 C76.4413508,30.3268318 77.082031,29.847127 77.2742351,28.9562467 L78.3697982,28.9562467 C78.184001,30.3953611 77.049997,31.3890353 75.4739237,31.3890353 C73.5775103,31.3890353 72.3089635,29.9499209 72.3089635,27.6267791 C72.3089635,25.3584607 73.5711035,23.8645229 75.4611101,23.8645229 C77.1717262,23.8645229 78.216035,25.0432261 78.3569846,26.3384291 Z M79.8049219,22.2677912 L80.9197054,22.2677912 L80.9197054,23.9330522 L82.2651338,23.9330522 L82.2651338,24.9198735 L80.9197054,24.9198735 L80.9197054,29.3537164 C80.9197054,30.032156 81.1887911,30.3405377 81.7782169,30.3405377 C81.9127597,30.3405377 82.1818454,30.3199789 82.258727,30.3062731 L82.258727,31.3136531 C82.1241842,31.3479178 81.8038441,31.3753295 81.5411652,31.3753295 C80.2918388,31.3753295 79.8049219,30.8202425 79.8049219,29.4016869 L79.8049219,24.9198735 L78.8439016,24.9198735 L78.8439016,23.9330522 L79.8049219,23.9330522 L79.8049219,22.2677912 Z M89.4855997,31.3890353 C87.5443387,31.3890353 86.3014191,29.9156563 86.3014191,27.6267791 C86.3014191,25.331049 87.5443387,23.8645229 89.4855997,23.8645229 C91.4268607,23.8645229 92.6697803,25.331049 92.6697803,27.6267791 C92.6697803,29.9156563 91.4268607,31.3890353 89.4855997,31.3890353 Z M89.4855997,30.3268318 C90.7733669,30.3268318 91.5357763,29.3194518 91.5357763,27.6267791 C91.5357763,25.9272536 90.7733669,24.9267264 89.4855997,24.9267264 C88.1978325,24.9267264 87.435423,25.9341065 87.435423,27.6267791 C87.435423,29.3194518 88.2042393,30.3268318 89.4855997,30.3268318 Z M94.2074127,31.3205061 L94.2074127,24.9198735 L93.2463924,24.9198735 L93.2463924,23.9330522 L94.2074127,23.9330522 L94.2074127,23.2477596 C94.2074127,21.8840274 94.7648045,21.274117 96.0461649,21.274117 C96.2639962,21.274117 96.4562002,21.2946758 96.6676247,21.3357934 L96.6676247,22.3226147 C96.5202682,22.28835 96.3216574,22.2677912 96.1486737,22.2677912 C95.5720616,22.2677912 95.3286031,22.5556141 95.3221963,23.2477596 L95.3221963,23.9330522 L96.6676247,23.9330522 L96.6676247,24.9198735 L95.3221963,24.9198735 L95.3221963,31.3205061 L94.2074127,31.3205061 Z M101.376624,22.2677912 L102.491408,22.2677912 L102.491408,23.9330522 L103.836836,23.9330522 L103.836836,24.9198735 L102.491408,24.9198735 L102.491408,29.3537164 C102.491408,30.032156 102.760493,30.3405377 103.349919,30.3405377 C103.484462,30.3405377 103.753548,30.3199789 103.830429,30.3062731 L103.830429,31.3136531 C103.695886,31.3479178 103.375546,31.3753295 103.112867,31.3753295 C101.863541,31.3753295 101.376624,30.8202425 101.376624,29.4016869 L101.376624,24.9198735 L100.415604,24.9198735 L100.415604,23.9330522 L101.376624,23.9330522 L101.376624,22.2677912 Z M105.137417,31.3205061 L105.137417,21 L106.2522,21 L106.2522,25.1323142 L106.277828,25.1323142 C106.707083,24.2962572 107.411832,23.8645229 108.468954,23.8645229 C109.980959,23.8645229 110.903539,24.960991 110.903539,26.6056932 L110.903539,31.3205061 L109.788755,31.3205061 L109.788755,26.8181339 C109.788755,25.6394307 109.231363,24.9267264 108.1358,24.9267264 C106.969762,24.9267264 106.2522,25.7764892 106.2522,27.0716921 L106.2522,31.3205061 L105.137417,31.3205061 Z M115.138435,24.9130206 C114.055685,24.9130206 113.274055,25.7559304 113.197174,27.0031629 L116.996407,27.0031629 C116.97078,25.7490775 116.227591,24.9130206 115.138435,24.9130206 Z M116.97078,29.209805 L118.07275,29.209805 C117.880546,30.4775962 116.682474,31.3890353 115.20891,31.3890353 C113.267649,31.3890353 112.043949,29.943068 112.043949,27.6541908 C112.043949,25.3653137 113.274055,23.8645229 115.157655,23.8645229 C117.002814,23.8645229 118.156039,25.2556668 118.156039,27.4897206 L118.156039,27.9557196 L113.197174,27.9557196 L113.197174,28.0242488 C113.197174,29.4290986 114.004431,30.3405377 115.234537,30.3405377 C116.099455,30.3405377 116.772169,29.9019504 116.97078,29.209805 Z M123.057242,34 C122.916292,34 122.704868,33.9794412 122.570325,33.9520295 L122.570325,32.9446494 C122.698461,32.9720611 122.877852,32.985767 123.025208,32.985767 C123.665888,32.985767 124.011856,32.6568266 124.293755,31.7659462 L124.428298,31.327359 L121.871984,23.9330522 L123.057242,23.9330522 L124.992096,30.1075382 L125.017723,30.1075382 L126.952578,23.9330522 L128.125022,23.9330522 L125.421352,31.7727992 C124.831926,33.4860306 124.280941,34 123.057242,34 Z M131.79612,24.9130206 C130.71337,24.9130206 129.931741,25.7559304 129.854859,27.0031629 L133.654093,27.0031629 C133.628465,25.7490775 132.885276,24.9130206 131.79612,24.9130206 Z M133.628465,29.209805 L134.730435,29.209805 C134.538231,30.4775962 133.340159,31.3890353 131.866595,31.3890353 C129.925334,31.3890353 128.701635,29.943068 128.701635,27.6541908 C128.701635,25.3653137 129.931741,23.8645229 131.81534,23.8645229 C133.660499,23.8645229 134.813724,25.2556668 134.813724,27.4897206 L134.813724,27.9557196 L129.854859,27.9557196 L129.854859,28.0242488 C129.854859,29.4290986 130.662116,30.3405377 131.892222,30.3405377 C132.75714,30.3405377 133.429854,29.9019504 133.628465,29.209805 Z M138.241363,30.3542435 C139.36896,30.3542435 140.195437,29.57301 140.195437,28.5108065 L140.195437,27.914602 L138.388719,28.0379547 C137.350817,28.1064839 136.812646,28.5108065 136.812646,29.2235108 C136.812646,29.9088034 137.370038,30.3542435 138.241363,30.3542435 Z M138.004311,31.3890353 C136.601221,31.3890353 135.672235,30.5255667 135.672235,29.2166579 C135.672235,27.9488666 136.582001,27.2018977 138.260583,27.0922509 L140.195437,26.9688983 L140.195437,26.3521349 C140.195437,25.4338429 139.631639,24.9267264 138.612957,24.9267264 C137.812107,24.9267264 137.216274,25.3653137 137.081732,26.0643121 L136.011796,26.0643121 C136.04383,24.8170796 137.177834,23.8645229 138.625771,23.8645229 C140.259505,23.8645229 141.310221,24.7965208 141.310221,26.2493411 L141.310221,31.3205061 L140.253099,31.3205061 L140.253099,30.039009 L140.227471,30.039009 C139.836656,30.86136 138.971738,31.3890353 138.004311,31.3890353 Z M142.790192,31.3205061 L142.790192,23.9330522 L143.840908,23.9330522 L143.840908,25.1323142 L143.866535,25.1323142 C144.071553,24.3579336 144.731453,23.8645229 145.53871,23.8645229 C145.737321,23.8645229 145.903898,23.8850817 146,23.9056405 L146,25.0774908 C145.910305,25.0432261 145.666846,25.0089615 145.391354,25.0089615 C144.494402,25.0089615 143.904976,25.7079599 143.904976,26.7496046 L143.904976,31.3205061 L142.790192,31.3205061 Z"/>
    <path fill="#FFF" d="M19,9.5 C19,11.4329917 17.4329917,13 15.5,13 C13.5670083,13 12,11.4329917 12,9.5 C12,7.56700833 13.5670083,6 15.5,6 C17.4329917,6 19,7.56700833 19,9.5 Z M15.9666667,7.74998833 L15.9666667,7.7500175 L14.275,7.74998833 L14.275,11.2499883 L14.975,11.2499883 L14.975,10.2000175 L15.9666667,10.2000175 L15.9666667,10.1999883 C16.6432167,10.1999883 17.1916667,9.65153833 17.1916667,8.97498833 C17.1916667,8.29843833 16.6432167,7.74998833 15.9666667,7.74998833 Z M15.9666667,9.49998833 L15.9666667,9.5000175 L14.975,9.5000175 L14.975,8.4500175 L15.9666667,8.4500175 L15.9666667,8.44998833 C16.2566125,8.44998833 16.4916667,8.6850425 16.4916667,8.97498833 C16.4916667,9.26493417 16.2566125,9.49998833 15.9666667,9.49998833 Z"/>
  </g>
</svg>
