<svg xmlns="http://www.w3.org/2000/svg" width="152" height="32" viewBox="0 0 152 32">
  <g fill="#3070CD" opacity=".6" transform="translate(21)">
    <path d="M0.0128654971,5.94448322 L3.84077973,5.94448322 L3.84077973,14.4624966 L11.9140936,14.4624966 L11.9140936,5.94448322 L15.7469396,5.94448322 L15.7469396,26.8535839 L11.9140936,26.8535839 L11.9140936,18.1566711 L3.84077973,18.1566711 L3.84077973,26.8535839 L0.0128654971,26.8535839 L0.0128654971,5.94448322 Z M27.8737427,20.0431678 C27.8737427,21.7935034 26.449961,23.2178255 24.7028265,23.2178255 C22.9550487,23.2178255 21.5321248,21.7935034 21.5321248,20.0431678 L21.5321248,11.0410738 L17.9019103,11.0410738 L17.9019103,20.0431678 C17.9019103,23.7987651 20.952963,26.8535839 24.7028265,26.8535839 C28.4518324,26.8535839 31.5026706,23.7987651 31.5026706,20.0431678 L31.5026706,11.0410738 L27.8737427,11.0410738 L27.8737427,20.0431678 Z M41.6368226,11.1465235 C39.8360819,11.1465235 38.5791228,11.669906 37.3652632,12.8633557 L37.3652632,5.94448322 L33.7232554,5.94448322 L33.7232554,18.7670336 C33.7232554,23.566604 37.1879337,26.8535839 41.0803899,26.8535839 C45.4076998,26.8535839 49.1991618,23.5079732 49.1991618,19.0002685 C49.1991618,14.5496913 45.702963,11.1465235 41.6368226,11.1465235 Z M41.7273099,23.4789799 C39.2594932,23.4789799 37.3723392,21.4146577 37.3723392,19.0002685 C37.3723392,16.5854497 39.2594932,14.5204832 41.7273099,14.5204832 C43.8183821,14.5204832 45.7066082,16.5854497 45.7066082,19.0002685 C45.7066082,21.4146577 43.8183821,23.4789799 41.7273099,23.4789799 Z M55.3160624,12.0655034 C55.3160624,10.2318389 56.5359259,9.6504698 57.8713645,9.6504698 C58.9464912,9.6504698 60.3692008,10.4648591 61.2976608,11.4540671 L63.6784211,8.66190604 C62.488577,7.06233557 60.078655,5.95672483 58.1038012,5.95672483 C54.1538791,5.95672483 51.3078168,8.25471141 51.3078168,12.0655034 C51.3078168,19.1334228 59.991384,16.8929933 59.991384,20.8498255 C59.991384,22.0701208 58.8011111,23.1473826 57.4369396,23.1473826 C55.287115,23.1473826 54.5898051,22.1001879 53.602807,20.9945772 L50.9595906,23.7283221 C52.6449708,25.7937181 54.7351852,26.8413423 57.2330214,26.8413423 C60.9790253,26.8413423 63.9994152,24.5143624 63.9994152,20.8779597 C63.9994152,13.0248591 55.3160624,15.4684564 55.3160624,12.0655034 Z M73.5872125,10.9416376 C69.6951852,10.9416376 66.230078,14.2266846 66.230078,19.0273289 L66.230078,31.882953 L69.8718713,31.882953 L69.8718713,24.9312215 C71.0859454,26.1238121 72.3422612,26.6480537 74.1436452,26.6480537 C78.2095712,26.6480537 81.7061988,23.2453154 81.7061988,18.7947383 C81.7061988,14.2863893 77.9136647,10.9416376 73.5872125,10.9416376 Z M74.234347,23.2745235 C71.7667446,23.2745235 69.8793762,21.2074094 69.8793762,18.7947383 C69.8793762,16.3799195 71.7667446,14.314953 74.234347,14.314953 C76.3249903,14.314953 78.2134308,16.3799195 78.2134308,18.7947383 C78.2134308,21.2074094 76.3249903,23.2745235 74.234347,23.2745235 Z M108.513821,23.4789799 C106.365712,23.4789799 105.755887,22.5486174 105.755887,21.1227919 L105.755887,14.8112752 L109.094912,14.8112752 L109.094912,11.6121342 L105.755887,11.6121342 L105.755887,7.39414765 L102.06885,9.0517047 L102.06885,21.9081879 C102.06885,25.1953826 104.333177,26.8535839 107.439123,26.8535839 C107.903782,26.8535839 108.543411,26.8235168 108.892281,26.737396 L109.792651,23.4218523 C109.386101,23.4499866 108.921657,23.4789799 108.513821,23.4789799 Z"/>
    <path d="M98.9095127,14.9972617 C98.211345,13.7941477 97.2292788,12.8296376 96.0014815,12.1035168 C95.0839571,11.5685369 94.1325536,11.2289933 93.0604288,11.0831678 L93.0604288,7.26034899 C94.1325536,6.80440268 94.7979142,5.79522148 94.7979142,4.61787919 C94.7979142,3.01315436 93.5130799,1.71275168 91.9121832,1.71275168 C90.31,1.71275168 89.0026511,3.01315436 89.0026511,4.61787919 C89.0026511,5.79522148 89.6296296,6.80440268 90.7017544,7.26034899 L90.7017544,11.0848859 C89.8440546,11.2090201 88.9546199,11.4768322 88.1423782,11.8883221 C86.4833723,10.6263624 81.0434113,6.48633557 77.8611306,4.0682953 C77.9366082,3.79575839 77.9947173,3.51484564 77.9947173,3.2184698 C77.9947173,1.44107383 76.5576413,0.000429530201 74.7824172,0.000429530201 C73.007193,0.000429530201 71.5707602,1.44107383 71.5707602,3.2184698 C71.5707602,4.99565101 73.008694,6.43672483 74.7839181,6.43672483 C75.3894542,6.43672483 75.9495322,6.25932886 76.432846,5.96767785 L77.104425,6.47795973 L86.3324172,13.137396 C85.8446004,13.5860403 85.3902339,14.0963221 85.0267836,14.6688859 C84.2902339,15.8361342 83.8401559,17.1204295 83.8401559,18.5213423 L83.8401559,18.8136376 C83.8401559,19.797047 84.0267057,20.7254765 84.3444834,21.5976376 C84.624308,22.3591946 85.0334308,23.0515973 85.540117,23.6776376 L82.4774854,26.7526443 C81.5709755,26.414706 80.5509154,26.6387597 79.8687914,27.3256376 C79.4017022,27.7911648 79.1400882,28.4245821 79.1423197,29.0845638 C79.1425341,29.7488322 79.4009162,30.3731544 79.870078,30.8428456 C80.3345645,31.3110222 80.9668204,31.5735137 81.6257895,31.5717584 C82.284934,31.5734463 82.9173649,31.3109783 83.3821442,30.8428456 C83.8489284,30.3773428 84.1106324,29.7443134 84.1090448,29.0845638 C84.1090448,28.8274899 84.0693762,28.5766443 83.9947563,28.338255 L87.1603119,25.1672483 C87.594308,25.4674899 88.0630409,25.7202685 88.5669396,25.938255 C89.5607992,26.3686443 90.6577973,26.6308725 91.8583626,26.6308725 L92.0783626,26.6308725 C93.405653,26.6308725 94.6576803,26.318604 95.8346589,25.6798926 C97.0748928,25.0048859 98.0455945,24.0818255 98.7789279,22.9034094 C99.5161209,21.7217718 99.9220273,20.4162148 99.9220273,18.9798658 L99.9220273,18.9081342 C99.9220273,17.4951946 99.5954581,16.1915705 98.9095127,14.9972617 Z M95.0417154,21.6491812 C94.1825146,22.6055302 93.1948733,23.1946309 92.0783626,23.1946309 L91.894386,23.1946309 C91.2566862,23.1946309 90.632924,23.018094 90.0222417,22.6970201 C89.3339376,22.3435168 88.8107407,21.8392483 88.3825341,21.2007517 C87.939961,20.5740671 87.6998051,19.8898255 87.6998051,19.164349 L87.6998051,18.944 C87.6998051,18.2307651 87.8363938,17.5544698 88.1807602,16.9157584 C88.5489279,16.217557 89.0461793,15.6746309 89.7074659,15.242953 C90.3567446,14.8142819 91.0501949,14.6040268 91.8225536,14.6040268 L91.894386,14.6040268 C92.5946979,14.6040268 93.2576998,14.7423356 93.8833918,15.0629799 C94.5208772,15.4048859 95.0417154,15.872 95.4454776,16.486443 C95.8376608,17.1011007 96.0709552,17.7640805 96.1460039,18.4863356 C96.1577973,18.6364564 96.1638012,18.7902282 96.1638012,18.9371275 C96.1638012,19.9173154 95.7898441,20.8251275 95.0417154,21.6491812 Z"/>
  </g>
</svg>
