<?xml version="1.0" encoding="UTF-8"?>
<svg width="34px" height="34px" viewBox="0 0 34 34" version="1.1" xmlns="http://www.w3.org/2000/svg" xmlns:xlink="http://www.w3.org/1999/xlink">
    <!-- Generator: Sketch 52.4 (67378) - http://www.bohemiancoding.com/sketch -->
    <title>logo-slack</title>
    <desc>Created with Sketch.</desc>
    <defs>
        <path d="M16.8874045,6.38939586 C18.705198,12.4487075 17.2960393,15.069611 11.2368452,16.8874045 C5.17753353,18.705198 2.55663007,17.2960393 0.738836572,11.2368452 C-1.07895692,5.17753353 0.330201718,2.55663007 6.38939586,0.738836572 C12.4487075,-1.07895692 15.069611,0.330201718 16.8874045,6.38939586 Z M13.8296054,10.3208686 C14.3086865,10.1658752 14.562328,9.64449121 14.4073346,9.16541018 C14.2523413,8.68627039 13.7309573,8.43262888 13.2518762,8.58768099 L12.1104601,8.96811387 L11.3495943,6.69944131 L12.4909517,6.31894968 C12.9700327,6.16395633 13.2236743,5.64257233 13.0686809,5.1634913 C12.9136876,4.68441026 12.3923036,4.43076876 11.9132225,4.5857621 L10.7718064,4.96619498 L10.3772725,3.78253463 C10.2222204,3.30345359 9.70089516,3.04981209 9.22175537,3.20480544 C8.74267434,3.35979879 8.48903283,3.88118278 8.64402618,4.36026382 L9.03856005,5.54392418 L6.68534032,6.33305066 L6.29080646,5.14939031 C6.13575435,4.67030927 5.61442911,4.41666777 5.13528932,4.57166112 C4.65620829,4.72665447 4.40256678,5.24803846 4.55756013,5.7271195 L4.952094,6.91077985 L3.8107366,7.29127149 C3.33159681,7.44626484 3.07795531,7.96764883 3.23300741,8.44672987 C3.35979879,8.81312052 3.71208845,9.05266104 4.0784791,9.06676202 C4.17712725,9.08086301 4.28981764,9.05266104 4.38846579,9.02445906 L5.52988194,8.64402618 L6.2907477,10.9126987 L5.14939031,11.2931904 C4.67030927,11.4481837 4.41666777,11.9695677 4.57166112,12.4486488 C4.69845249,12.8150394 5.05074215,13.0545799 5.4171328,13.0686809 C5.51578096,13.0827819 5.62847134,13.0545799 5.7271195,13.0263779 L6.86853565,12.6459451 L7.26306951,13.8296054 C7.38991964,14.1959961 7.7422093,14.4355366 8.1085412,14.4496376 C8.20724811,14.4637386 8.3199385,14.4355366 8.41858665,14.4073346 C8.89766769,14.2523413 9.15130919,13.7309573 8.99631584,13.2518762 L8.60172322,12.0682159 L10.9550017,11.2790894 L11.3495356,12.4627497 C11.4763857,12.8291404 11.8286754,13.0686809 12.1950072,13.0827819 C12.2937142,13.0968829 12.4064045,13.0686809 12.5050527,13.0404789 C12.9841337,12.8854856 13.2377752,12.3641016 13.0827819,11.8850205 L12.6881893,10.7013602 L13.8296054,10.3208686 Z M7.30989654,8.04802446 L9.64449121,7.26606597 L10.3997753,9.52104882 L8.06523942,10.3030073 L7.30989654,8.04802446 Z" id="path-1"></path>
    </defs>
    <g id="Symbols" stroke="none" stroke-width="1" fill="none" fill-rule="evenodd">
        <g id="card-feature-double-copy-3" transform="translate(-108.000000, -210.000000)">
            <g id="logo-slack" transform="translate(108.000000, 210.000000)">
                <g id="circle-green" fill="#42C299">
                    <circle cx="17" cy="17" r="17"></circle>
                </g>
                <g id="icon/providers/i--slack" transform="translate(8.000000, 8.000000)">
                    <mask id="mask-2" fill="white">
                        <use xlink:href="#path-1"></use>
                    </mask>
                    <use id="provider-svg--slack" fill="#FFFFFF" fill-rule="nonzero" xlink:href="#path-1"></use>
                    <g id="colors/plain/c--white" mask="url(#mask-2)" fill="#FFFFFF" fill-rule="evenodd">
                        <rect id="Rectangle" x="0" y="0" width="17.9859602" height="17.9859602"></rect>
                    </g>
                </g>
            </g>
        </g>
    </g>
</svg>