<svg xmlns="http://www.w3.org/2000/svg" width="100" height="28"><defs><linearGradient id="a" x1="50%" x2="50%" y1="100%" y2="0%"><stop offset="0%" stop-color="#fff"/><stop offset="100%" stop-color="#fff"/></linearGradient></defs><g fill="none" fill-rule="evenodd"><path fill="#fff" d="M13.649 10.139c0-3.198-2.672-5.32-6.322-5.32-3.942 0-6.68 1.926-6.68 5.091 0 3.133 2.607 4.21 5.898 4.765 4.073.685 4.888 1.24 4.92 2.545.033 1.665-1.89 2.546-4.431 2.546-3.226 0-4.203-1.6-4.301-2.97H.19c.295 2.676 1.728 5.254 6.91 5.254 5.083 0 6.908-2.578 6.908-4.96 0-2.97-2.379-3.982-6.55-4.667-3.03-.49-4.268-1.207-4.268-2.774 0-1.566 1.597-2.545 3.91-2.545 2.868 0 3.878 1.534 4.008 3.035h2.542zm2.976-3.254h3.1v11.088c0 3.338 1.066 4.206 3.3 4.206.8 0 1.7-.033 2.633-.1v-2.337c-.5.067-1.133.1-1.733.1-1.167 0-1.6-.667-1.6-2.17V6.885h3.366V4.748h-3.366V.413h-2.6v4.335h-3.1v2.137zm23.4 15.094v-2.203h-.067c-1.167 2.07-3.743 2.203-5.677 2.203-3.966 0-5.956-1.87-5.956-4.507 0-3.071 1.666-4.874 6.233-5.108 1.833-.1 3.633-.2 5.467-.267V10.83c0-2.137-.9-3.873-4.234-3.873-3.066 0-4.066 1.302-4.4 3.171h-2.566c.533-3.739 3.066-5.308 7-5.308 4.466 0 6.8 2.037 6.8 5.609v8.28c0 1.034.133 2.336.233 3.271h-2.833zm0-6.34v-1.572l-4.4.2c-2.834.134-4.5.902-4.5 3.072 0 1.669 1.478 2.362 3.845 2.362 2.267 0 4.104-.816 5.055-4.062zm5.191-8.763h3.1v11.097c0 3.338 1.018 4.006 3.251 4.006.8 0 1.75.067 2.682 0v-2.237c-.5.067-1.133.1-1.733.1-1.167 0-1.6-.667-1.6-2.17V6.876h3.367V4.74h-3.367V.413h-2.6V4.74h-3.1v2.136zm51.93 14.804V11.597c0-3.472-1.8-4.54-3.666-4.54-2.432 0-4.667 1.586-4.6 5.577v9.046h-2.667V4.987h2.6v1.896h.067c1.37-1.896 2.375-2.224 4.6-2.224 3.379 0 6.266 1.098 6.266 5.803V21.68h-2.6zM59.14 4.748h2.688V21.98H59.14V4.749z"/><path fill="url(#a)" d="M74.194 21.979c-4.751 0-8.603-3.857-8.603-8.615 0-4.759 3.852-8.616 8.603-8.616 4.75 0 8.602 3.857 8.602 8.616 0 4.758-3.852 8.615-8.602 8.615zm0-2.585c3.325 0 6.021-2.7 6.021-6.03a6.026 6.026 0 0 0-6.021-6.031 6.026 6.026 0 0 0-6.022 6.03 6.026 6.026 0 0 0 6.022 6.031zm-6.452 5.816h12.903v2.154H67.742V25.21z"/></g></svg>
