<svg xmlns="http://www.w3.org/2000/svg" xmlns:xlink="http://www.w3.org/1999/xlink" width="350" height="227" viewBox="0 0 350 227">
  <defs>
    <linearGradient id="multi-account-b" x1="50%" x2="50%" y1="0%" y2="100%">
      <stop offset="0%" stop-color="#FFF"/>
      <stop offset="100%" stop-color="#F5F7FF"/>
    </linearGradient>
    <rect id="multi-account-a" width="350" height="227"/>
    <rect id="multi-account-e" width="678.795" height="402.375" rx="9.739"/>
    <filter id="multi-account-d" width="110.4%" height="117.5%" x="-5.2%" y="-6.5%" filterUnits="objectBoundingBox">
      <feMorphology in="SourceAlpha" operator="dilate" radius=".761" result="shadowSpreadOuter1"/>
      <feOffset dy="9" in="shadowSpreadOuter1" result="shadowOffsetOuter1"/>
      <feGaussianBlur in="shadowOffsetOuter1" result="shadowBlurOuter1" stdDeviation="10"/>
      <feComposite in="shadowBlurOuter1" in2="SourceAlpha" operator="out" result="shadowBlurOuter1"/>
      <feColorMatrix in="shadowBlurOuter1" values="0 0 0 0 0.137254902   0 0 0 0 0.243137255   0 0 0 0 0.470588235  0 0 0 0.2 0"/>
    </filter>
    <path id="multi-account-f" d="M17.3979697,15.1921447 L1.19934505,15.1921447 C0.571211808,15.1921447 0.0422738319,14.6670291 0.0422738319,14.0064204 L0.0422738319,2.01400172 C0.0422738319,1.3703137 0.554699955,0.828277368 1.19934505,0.828277368 L17.3979076,0.828277368 C18.0259788,0.828277368 18.5549168,1.35339296 18.5549168,2.01400172 L18.5549168,14.0064204 C18.5549168,14.6670291 18.0424906,15.1921447 17.3978455,15.1921447 L17.3979697,15.1921447 Z"/>
    <path id="multi-account-h" d="M0.0511505049,1.85503578 C0.0724385896,1.6609889 0.143550406,1.47619491 0.257238297,1.31948785 C0.63738337,0.794435879 1.38122374,0.675927056 1.91009964,1.06542224 L9.2985953,6.57038928 L16.7367507,0.997675649 C17.2491768,0.608053242 17.9764432,0.726689289 18.3566504,1.26866201 C18.5587033,1.54779068 18.6206538,1.8890681 18.5549788,2.20610942 L18.5549788,14.0232775 C18.5549788,14.6670291 18.0425527,15.1920811 17.3979076,15.1920811 L16.2408985,15.1920811 L16.2408985,4.30612649 L9.28214552,9.4838107 L2.35641627,4.33195289 L2.35641627,15.1921447 L1.19934505,15.1921447 C0.554699955,15.1921447 0.0422738319,14.6670928 0.0422738319,14.0064204 L0.0422738319,1.99714459 C0.0422738319,1.9466368 0.0452534144,1.89937322 0.0510884302,1.85509939 L0.0511505049,1.85503578 Z"/>
    <path id="multi-account-i" d="M17.3979697,15.1921447 L1.19934505,15.1921447 C0.571211808,15.1921447 0.0422738319,14.6670291 0.0422738319,14.0064204 L0.0422738319,2.01400172 C0.0422738319,1.3703137 0.554699955,0.828277368 1.19934505,0.828277368 L17.3979076,0.828277368 C18.0259788,0.828277368 18.5549168,1.35339296 18.5549168,2.01400172 L18.5549168,14.0064204 C18.5549168,14.6670291 18.0424906,15.1921447 17.3978455,15.1921447 L17.3979697,15.1921447 Z"/>
    <path id="multi-account-k" d="M0.0511505049,1.85503578 C0.0724385896,1.6609889 0.143550406,1.47619491 0.257238297,1.31948785 C0.63738337,0.794435879 1.38122374,0.675927056 1.91009964,1.06542224 L9.2985953,6.57038928 L16.7367507,0.997675649 C17.2491768,0.608053242 17.9764432,0.726689289 18.3566504,1.26866201 C18.5587033,1.54779068 18.6206538,1.8890681 18.5549788,2.20610942 L18.5549788,14.0232775 C18.5549788,14.6670291 18.0425527,15.1920811 17.3979076,15.1920811 L16.2408985,15.1920811 L16.2408985,4.30612649 L9.28214552,9.4838107 L2.35641627,4.33195289 L2.35641627,15.1921447 L1.19934505,15.1921447 C0.554699955,15.1921447 0.0422738319,14.6670928 0.0422738319,14.0064204 L0.0422738319,1.99714459 C0.0422738319,1.9466368 0.0452534144,1.89937322 0.0510884302,1.85509939 L0.0511505049,1.85503578 Z"/>
    <path id="multi-account-l" d="M17.3957366,15.1913987 L1.19919111,15.1913987 C0.57113849,15.1913987 0.0422684058,14.6663089 0.0422684058,14.0057326 L0.0422684058,2.01390282 C0.0422684058,1.37024641 0.554628756,0.828236694 1.19919111,0.828236694 L17.3956745,0.828236694 C18.0236651,0.828236694 18.5525351,1.35332649 18.5525351,2.01390282 L18.5525351,14.0057326 C18.5525351,14.6663089 18.0401748,15.1913987 17.3956124,15.1913987 L17.3957366,15.1913987 Z"/>
    <path id="multi-account-n" d="M0.0511439394,3.18494473 C0.0724292917,2.99090737 0.14353198,2.80612246 0.257205279,2.6494231 C0.637301558,2.12439691 1.38104645,2.00589391 1.90985447,2.39536996 L9.29740177,7.90006666 L16.7346024,2.3276267 C17.2469628,1.93802343 17.9741359,2.05665365 18.3542942,2.59859975 C18.5563212,2.87771472 18.6182637,3.21897538 18.5525972,3.53600113 L18.5525972,15.3525889 C18.5525972,15.9963089 18.0402369,16.5213351 17.3956745,16.5213351 L16.2388139,16.5213351 L16.2388139,5.63591507 L9.2809541,10.813345 L2.35611381,5.6617402 L2.35611381,16.5213987 L1.19919111,16.5213987 C0.554628756,16.5213987 0.0422684058,15.9963725 0.0422684058,15.3357326 L0.0422684058,3.32704656 C0.0422684058,3.27654125 0.0452476059,3.22927999 0.0510818728,3.18500833 L0.0511439394,3.18494473 Z"/>
    <path id="multi-account-o" d="M9.40570626,9.05159633 L12.72153,12.3671573 C13.1421231,12.787717 13.1421501,13.4696061 12.7215904,13.8901992 C12.7215703,13.8902193 12.7215501,13.8902394 12.72153,13.8902595 C12.3008939,14.3108624 11.6189433,14.3108624 11.1983071,13.8902595 L7.66741637,10.3596486 C6.97452347,10.6872575 6.20114524,10.8703003 5.38540634,10.8703003 C2.41112855,10.8703003 0,8.4369007 0,5.43515016 C0,2.43339961 2.41112855,0 5.38540634,0 C8.35968414,0 10.7708127,2.43339961 10.7708127,5.43515016 C10.7708127,6.82382162 10.2547883,8.09085589 9.40570626,9.05159633 Z M5.38540634,8.69624025 C7.16997302,8.69624025 8.61665015,7.23620048 8.61665015,5.43515016 C8.61665015,3.63409983 7.16997302,2.17406006 5.38540634,2.17406006 C3.60083967,2.17406006 2.15416254,3.63409983 2.15416254,5.43515016 C2.15416254,7.23620048 3.60083967,8.69624025 5.38540634,8.69624025 Z"/>
    <polygon id="multi-account-q" points="0 0 551.281 0 551.281 355.553 0 355.553"/>
    <path id="multi-account-s" d="M5.36196571,5.1600962 L7.25223667,7.05021735 C7.49200661,7.28996828 7.49202201,7.67869676 7.25227108,7.91846669 C7.25225961,7.91847816 7.25224814,7.91848963 7.25223667,7.9185011 C7.01244216,8.1582766 6.62367861,8.1582766 6.3838841,7.9185011 L4.37100868,5.9057852 C3.97600719,6.09254708 3.53512296,6.19689537 3.07008994,6.19689537 C1.37452609,6.19689537 0,4.80967309 0,3.09844769 C0,1.38722228 1.37452609,0 3.07008994,0 C4.76565379,0 6.14017988,1.38722228 6.14017988,3.09844769 C6.14017988,3.89009571 5.84600688,4.61240131 5.36196571,5.1600962 Z M3.07008994,4.9575163 C4.08742825,4.9575163 4.9121439,4.12518293 4.9121439,3.09844769 C4.9121439,2.07171244 4.08742825,1.23937907 3.07008994,1.23937907 C2.05275163,1.23937907 1.22803598,2.07171244 1.22803598,3.09844769 C1.22803598,4.12518293 2.05275163,4.9575163 3.07008994,4.9575163 Z"/>
    <path id="multi-account-t" d="M12.2716683,10.7166377 L0.845958749,10.7166377 C0.40290459,10.7166377 0.0298178726,10.3462177 0.0298178726,9.88022 L0.0298178726,1.42068991 C0.0298178726,0.966628193 0.391257944,0.584272241 0.845958749,0.584272241 L12.2716245,0.584272241 C12.7146349,0.584272241 13.0877216,0.95469219 13.0877216,1.42068991 L13.0877216,9.88022 C13.0877216,10.3462177 12.7262815,10.7166377 12.2715807,10.7166377 L12.2716683,10.7166377 Z"/>
    <path id="multi-account-v" d="M0.0360790392,2.24679105 C0.0510946024,2.10990912 0.101253364,1.97955424 0.181443187,1.86901206 C0.449578741,1.49863699 0.974246988,1.41504009 1.34728992,1.68979253 L6.55876975,5.57303207 L11.8052771,1.64200364 C12.1667171,1.36716146 12.679695,1.4508481 12.9478743,1.83315918 C13.0903925,2.03005836 13.1340893,2.27079768 13.0877654,2.49444068 L13.0877654,10.8303479 C13.0877654,11.2844545 12.7263253,11.6548295 12.2716245,11.6548295 L11.4555274,11.6548295 L11.4555274,3.97580637 L6.54716688,7.62817848 L1.66209963,3.99402448 L1.66209963,11.6548744 L0.845958749,11.6548744 C0.391257944,11.6548744 0.0298178726,11.2844993 0.0298178726,10.8184568 L0.0298178726,2.34703553 C0.0298178726,2.31140701 0.0319195229,2.27806697 0.0360352548,2.24683592 L0.0360790392,2.24679105 Z"/>
    <path id="multi-account-w" d="M15.3435824,6.00873268 C15.0802028,4.59918504 14.4512982,3.36809493 13.4579564,2.31744963 C13.0396087,1.87491108 12.5666622,1.48644798 12.0503071,1.1612515 C11.0843911,0.551895391 10.0321897,0.178457532 8.89112638,0.0461616207 C8.75199325,0.0299795027 8.61097067,0.0321371185 8.47384152,0 L7.48931723,0 C7.47866754,0.024358346 7.45582222,0.0154439863 7.43778645,0.0171473671 C7.18425498,0.0390642005 6.93198316,0.0673971018 6.68177256,0.113956178 C4.85340302,0.453837435 3.35191044,1.33488278 2.18971945,2.75811425 C1.23388063,3.92850723 0.707350509,5.27116878 0.593639241,6.7682702 C0.538218453,7.49006166 0.592258679,8.21601416 0.753957242,8.92191137 C0.873451408,9.44910774 1.05529783,9.96074657 1.29566031,10.446494 C1.31690245,10.4879429 1.3378583,10.5293919 1.35944398,10.5708976 C1.7564028,11.3379868 2.26695837,12.021667 2.90685622,12.6121156 C3.24375304,12.9229258 3.60378147,13.204154 3.99358323,13.4471129 C5.18795234,14.1910929 6.49168122,14.5812239 7.90797624,14.5985984 C7.99494875,14.5998475 8.01859566,14.6208559 8.01802309,14.708069 C8.01401514,15.4520489 8.01573284,16.1961425 8.01596186,16.940236 C8.01601912,16.9691367 8.01830938,16.997867 8.01996981,17.0338084 C8.04453282,17.0239855 8.05987754,17.0184779 8.07470696,17.0116076 C9.49850257,16.3550679 10.8058386,15.5254646 11.9712932,14.4854939 C12.2028877,14.2785387 12.4254924,14.0618996 12.6385024,13.8361651 C12.7298836,13.7396402 12.8205206,13.6414119 12.9120736,13.5449437 C13.0535542,13.3964657 13.1759685,13.2306132 13.3093187,13.0742428 C13.4633385,12.8939684 13.6016128,12.7022812 13.7379403,12.5094018 C14.0394527,12.0830455 14.3087297,11.6382928 14.5350643,11.1684436 C14.6495772,10.9309355 14.7585934,10.6916105 14.8550705,10.4466076 C14.8582769,10.4419517 14.8625711,10.4379203 14.8646896,10.432867 C15.1276111,9.7620188 15.2961168,9.06783433 15.3858376,8.35559402 C15.4171569,8.10746821 15.4373684,7.85786614 15.4502511,7.60837763 C15.4778212,7.07286132 15.4420208,6.53598584 15.3435824,6.00873268 Z M5.75679496,10.4870345 C5.62899861,10.5211021 5.49868298,10.5406342 5.3684246,10.5593146 C5.26765329,10.5737933 5.20203742,10.5188877 5.16453446,10.4297441 L5.16556507,9.60525099 C5.17048913,9.5243404 5.1372804,9.43758153 5.20329706,9.36620987 C5.23599048,9.33089311 5.27309265,9.30659155 5.32313476,9.29438398 C5.46982574,9.25810197 5.61840617,9.2291445 5.75198542,9.15095932 C5.99790178,9.00679652 6.15100547,8.79881372 6.21891159,8.52774905 C6.22944677,8.48505097 6.23952391,8.44212577 6.24965829,8.39925735 C5.65905823,8.39812176 5.0686872,8.39715652 4.47814439,8.39641838 C4.4270144,8.39630483 4.376686,8.39454467 4.32687291,8.38103118 C4.17634575,8.34015004 4.06108856,8.20535583 4.06091679,8.05290325 C4.05977167,7.17657059 4.06160387,6.30012437 4.06223369,5.42373493 C4.0498663,5.28371702 4.0623482,5.15244314 4.18230042,5.0523979 C4.24745824,4.99823039 4.31902877,4.9654687 4.40468439,4.9654687 C5.27297813,4.96529836 6.14127187,4.96592294 7.00956562,4.96501447 C7.23939292,4.96461701 7.42965603,5.19207513 7.35608152,5.41436633 C7.37383102,5.45638306 7.37051014,5.5008413 7.37051014,5.54473174 C7.37068191,6.49964704 7.37617853,7.4549598 7.36873519,8.40993187 C7.36392565,9.04364632 7.11245542,9.57663419 6.6398036,10.0088387 C6.61506882,10.0312665 6.59125015,10.0547164 6.56708793,10.0776553 C6.32225945,10.2618475 6.05727669,10.4072595 5.75679496,10.4870345 Z M10.5604948,10.4261102 C10.549441,10.4290575 10.5384093,10.4320858 10.5274006,10.4351949 L10.5086205,10.4456423 C10.3405729,10.4923149 10.1709793,10.5309817 9.99766412,10.5557943 C9.86540177,10.5748721 9.7654893,10.50157 9.76388612,10.371091 C9.76256922,10.2796195 9.76188214,10.1879776 9.76113781,10.0964492 L9.76594735,9.60473997 C9.76520302,9.56857152 9.76388612,9.53263018 9.76394338,9.49663207 C9.7641724,9.37075222 9.81347019,9.31766352 9.97292934,9.28189252 C10.175159,9.23646903 10.3653649,9.17242191 10.5227628,9.02905403 C10.711709,8.856899 10.807041,8.64193234 10.8503841,8.39908701 L9.21399538,8.39602093 C9.15462046,8.39590737 9.09524554,8.39675906 9.03581337,8.39573703 C8.81308586,8.39215993 8.66055474,8.24095649 8.66055474,8.02116359 C8.66084102,7.155619 8.6620434,6.29018798 8.66261597,5.42458662 C8.66261597,5.41624005 8.66169987,5.40789348 8.6611273,5.3996037 C8.64395037,5.23761218 8.69141595,5.10491881 8.83804967,5.01492352 C8.89501981,4.97972032 8.95697127,4.96529836 9.02252988,4.96529836 C9.88504072,4.96484413 10.7474943,4.96558226 11.6101769,4.96456023 C11.8398897,4.96427633 12.0300383,5.19167768 11.9565783,5.41402565 C11.9740988,5.45604238 11.9708924,5.50033028 11.9708924,5.54422073 C11.9708924,6.50083941 11.971465,7.45745809 11.9706061,8.41419032 C11.9698618,9.26871971 11.424208,10.0685138 10.619927,10.3968121 C10.5996582,10.405329 10.5803055,10.4163442 10.5604948,10.4261102 Z"/>
    <linearGradient id="multi-account-y" x1="63.506%" x2="0%" y1="50%" y2="50%">
      <stop offset="0%" stop-color="#FFF"/>
      <stop offset="100%" stop-opacity="0"/>
    </linearGradient>
  </defs>
  <g fill="none" fill-rule="evenodd">
    <mask id="multi-account-c" fill="#fff">
      <use xlink:href="#multi-account-a"/>
    </mask>
    <use fill="url(#multi-account-b)" xlink:href="#multi-account-a"/>
    <g mask="url(#multi-account-c)">
      <g transform="translate(35 18)">
        <g transform="translate(.609 2.232)">
          <g stroke-linecap="round" stroke-linejoin="round">
            <use fill="#000" filter="url(#multi-account-d)" xlink:href="#multi-account-e"/>
            <use fill="#FFF" stroke="#3070CD" stroke-width="1.522" xlink:href="#multi-account-e"/>
          </g>
          <path stroke="#3070CD" stroke-linecap="square" stroke-width="1.522" d="M52.6599081,0.304368499 L52.6599081,401.461931"/>
          <path fill="#3070CD" d="M28.004113,230.102517 C17.9174318,230.102517 9.74056104,221.926294 9.74056104,211.840413 C9.74056104,201.754531 17.9174318,193.578308 28.004113,193.578308 C38.0907942,193.578308 46.2676649,201.754531 46.2676649,211.840413 C46.2676649,221.926294 38.0907942,230.102517 28.004113,230.102517 Z M24.2447956,203.318115 L18.8723544,206.83781 L22.5871609,209.822578 L28.0039564,206.466415 L24.2447956,203.318115 Z M18.872337,212.807661 L24.2447782,216.327356 L28.004113,213.178881 L22.5871435,209.822543 L18.872337,212.807661 Z M28.0040434,213.178829 L31.7633782,216.327304 L37.1358194,212.807609 L33.4211869,209.822666 L28.0040434,213.178829 Z M37.135889,206.837792 L31.7634477,203.318097 L28.004113,206.466398 L33.4210825,209.822561 L37.135889,206.837792 Z M28.0151581,213.85617 L24.2448652,216.995395 L22.6314108,215.938457 L22.6314108,217.123324 L28.0151581,220.362728 L33.3989053,217.123324 L33.3989053,215.938457 L31.785451,216.995395 L28.0151581,213.85617 Z" opacity=".123"/>
          <ellipse cx="28.296" cy="162.337" fill="#3070CD" opacity=".12" rx="18.264" ry="18.262"/>
          <g transform="translate(19.344 154.716)">
            <mask id="multi-account-g" fill="#fff">
              <use xlink:href="#multi-account-f"/>
            </mask>
            <use fill="#FFF" fill-rule="nonzero" opacity="0" xlink:href="#multi-account-f"/>
            <g fill="#FFF" mask="url(#multi-account-g)" opacity=".499">
              <rect width="19" height="19" transform="translate(0 -1.33)"/>
            </g>
            <use fill="#FFF" fill-rule="nonzero" xlink:href="#multi-account-h"/>
          </g>
          <ellipse cx="28.296" cy="113.125" fill="#3070CD" opacity=".122" rx="18.264" ry="18.262"/>
          <g transform="translate(19.344 105.503)">
            <mask id="multi-account-j" fill="#fff">
              <use xlink:href="#multi-account-i"/>
            </mask>
            <use fill="#FFF" fill-rule="nonzero" opacity=".496" xlink:href="#multi-account-i"/>
            <g fill="#FFF" mask="url(#multi-account-j)" opacity="0">
              <rect width="19" height="19" transform="translate(0 -1.33)"/>
            </g>
            <use fill="#FFF" fill-rule="nonzero" xlink:href="#multi-account-k"/>
          </g>
          <ellipse cx="27.575" cy="63.484" fill="#3070CD" rx="18.264" ry="18.262"/>
          <g transform="translate(18.622 54.533)">
            <g transform="translate(0 1.33)">
              <mask id="multi-account-m" fill="#fff">
                <use xlink:href="#multi-account-l"/>
              </mask>
              <use fill="#FFF" fill-rule="nonzero" opacity=".496" xlink:href="#multi-account-l"/>
              <g fill="#FFF" mask="url(#multi-account-m)" opacity=".499">
                <rect width="19" height="19" transform="translate(0 -1.33)"/>
              </g>
            </g>
            <use fill="#FFF" fill-rule="nonzero" xlink:href="#multi-account-n"/>
          </g>
          <g transform="translate(21.307 18.262)">
            <mask id="multi-account-p" fill="#fff">
              <use xlink:href="#multi-account-o"/>
            </mask>
            <use fill="#6D86DF" fill-rule="nonzero" xlink:href="#multi-account-o"/>
            <g fill="#FFF" mask="url(#multi-account-p)" opacity=".6">
              <rect width="21.913" height="21.913" transform="translate(-4.308 -4.348)"/>
            </g>
          </g>
          <g transform="translate(29.264 166.258)">
            <ellipse cx="9.311" cy="9.31" fill="#42C299" rx="9.311" ry="9.31"/>
            <g fill="#FFF" stroke="#42C299" stroke-width=".822" transform="translate(3.99 3.99)">
              <path d="M10.6413662,9.62713974 C10.6413662,6.8287595 8.25921525,4.56022409 5.32068311,4.56022409 C2.38215097,4.56022409 0,6.8287595 0,9.62713974 C0,12.42552 10.6413662,12.42552 10.6413662,9.62713974 Z"/>
              <ellipse cx="5.321" cy="3.04" rx="3.192" ry="3.04"/>
            </g>
          </g>
          <g transform="translate(29.264 66.503)">
            <ellipse cx="9.311" cy="9.31" fill="#D54B3D" rx="9.311" ry="9.31"/>
            <g fill="#FFF" stroke="#D54B3D" stroke-width=".822" transform="translate(3.99 3.99)">
              <path d="M10.6413662,9.62713974 C10.6413662,6.8287595 8.25921525,4.56022409 5.32068311,4.56022409 C2.38215097,4.56022409 0,6.8287595 0,9.62713974 C0,12.42552 10.6413662,12.42552 10.6413662,9.62713974 Z"/>
              <ellipse cx="5.321" cy="3.04" rx="3.192" ry="3.04"/>
            </g>
            <ellipse cx="9.311" cy="109.065" fill="#FFF" opacity=".262" rx="9.311" ry="9.31"/>
          </g>
          <g transform="translate(29.264 117.046)">
            <ellipse cx="9.311" cy="9.31" fill="#F4C921" rx="9.311" ry="9.31"/>
            <g fill="#FFF" stroke="#F4C921" stroke-width=".822" transform="translate(3.99 3.99)">
              <path d="M10.6413662,9.62713974 C10.6413662,6.8287595 8.25921525,4.56022409 5.32068311,4.56022409 C2.38215097,4.56022409 0,6.8287595 0,9.62713974 C0,12.42552 10.6413662,12.42552 10.6413662,9.62713974 Z"/>
              <ellipse cx="5.321" cy="3.04" rx="3.192" ry="3.04"/>
            </g>
            <ellipse cx="9.311" cy="9.31" fill="#FFF" opacity=".262" rx="9.311" ry="9.31"/>
          </g>
          <g transform="translate(54.537 2.66)">
            <mask id="multi-account-r" fill="#fff">
              <use xlink:href="#multi-account-q"/>
            </mask>
            <use fill="#FFF" xlink:href="#multi-account-q"/>
            <rect width="126.526" height="16.905" x="-21.269" y="104.703" fill="#FCE8E6" mask="url(#multi-account-r)" rx="8.453"/>
            <rect width="263.959" height="24.54" x="140.16" y="20.177" fill="#F6F6F6" rx="3.272"/>
            <use fill="#C4C4C4" fill-rule="nonzero" transform="translate(152.158 28.357)" xlink:href="#multi-account-s"/>
            <rect width="58.355" height="20.722" x="21.269" y="64.349" fill="#FFF" stroke="#C1C0C0" stroke-width="1.091" rx="10.361"/>
            <polygon fill="#D8D8D8" points="50.719 70.892 66.535 70.892 66.535 78.527 50.719 78.527"/>
            <path fill="#FB908B" d="M33.9427909,73.2036299 L33.9427909,69.2565027 L36.4099409,69.2565027 L36.4099409,73.2036299 L40.3573811,73.2036299 L40.3573811,75.6705845 L36.4099409,75.6705845 L36.4099409,79.6177117 L33.9427909,79.6177117 L33.9427909,75.6705845 L29.9953508,75.6705845 L29.9953508,73.2036299 L33.9427909,73.2036299 Z"/>
            <ellipse cx="32.995" cy="32.447" fill="#D54B3D" rx="12.271" ry="12.27"/>
            <g transform="translate(26.178 26.176)">
              <g transform="translate(0 .938)">
                <mask id="multi-account-u" fill="#fff">
                  <use xlink:href="#multi-account-t"/>
                </mask>
                <use fill="#FFF" fill-rule="nonzero" opacity=".496" xlink:href="#multi-account-t"/>
                <g fill="#FFF" mask="url(#multi-account-u)" opacity=".499">
                  <rect width="12.976" height="12.976" transform="translate(0 -.938)"/>
                </g>
              </g>
              <use fill="#FFF" fill-rule="nonzero" xlink:href="#multi-account-v"/>
            </g>
            <path fill="#858585" d="M58.7108279,30.2092132 L56.9596788,36.5102939 L55.1382282,36.5102939 L52.6968452,27.2887326 L54.6972454,27.2887326 L56.1480149,33.9668557 L56.1991433,33.9668557 L57.9247281,27.2887326 L59.5544471,27.2887326 L61.2800319,33.9668557 L61.3311603,33.9668557 L62.7883209,27.2887326 L64.788721,27.2887326 L62.340947,36.5102939 L60.5194964,36.5102939 L58.7683474,30.2092132 L58.7108279,30.2092132 Z M68.8981693,36.6317143 C66.763557,36.6317143 65.4278265,35.264137 65.4278265,32.9891018 C65.4278265,30.7396287 66.7827301,29.3528798 68.8981693,29.3528798 C71.0199995,29.3528798 72.3685121,30.7332382 72.3685121,32.9891018 C72.3685121,35.2705275 71.0327816,36.6317143 68.8981693,36.6317143 Z M68.8981693,35.1938409 C69.8823917,35.1938409 70.4703688,34.3886319 70.4703688,32.9891018 C70.4703688,31.6023528 69.8760007,30.7843626 68.8981693,30.7843626 C67.9139468,30.7843626 67.3195787,31.6087433 67.3195787,32.9891018 C67.3195787,34.3886319 67.9139468,35.1938409 68.8981693,35.1938409 Z M73.3655166,36.5102939 L73.3655166,29.4743002 L75.1677941,29.4743002 L75.1677941,30.7332382 L75.2061404,30.7332382 C75.4426095,29.8641236 76.0497597,29.391223 76.8805968,29.391223 C77.0978927,29.391223 77.2896243,29.4167852 77.4238365,29.4615191 L77.4238365,31.1102805 C77.2640601,31.0463751 77.0084179,31.0016412 76.7336025,31.0016412 C75.7877264,31.0016412 75.2317047,31.5895717 75.2317047,32.5737161 L75.2317047,36.5102939 L73.3655166,36.5102939 Z M80.1592079,32.3180942 L82.5941998,29.4743002 L84.7160301,29.4743002 L82.0062228,32.4970295 L84.8438512,36.5102939 L82.6964567,36.5102939 L80.6385371,33.621766 L80.1336437,34.1649627 L80.1336437,36.5102939 L78.2674557,36.5102939 L78.2674557,26.8477848 L80.1336437,26.8477848 L80.1336437,32.3180942 L80.1592079,32.3180942 Z M96.6033921,32.6376216 C96.6033921,35.1491071 95.082321,36.6700576 92.513117,36.6700576 C89.7585723,36.6700576 88.0713339,34.867923 88.0713339,31.8707558 C88.0713339,28.9183225 89.7585723,27.1289689 92.4683796,27.1289689 C94.6221651,27.1289689 96.245493,28.400688 96.5203084,30.2667282 L94.5838188,30.2667282 C94.3026123,29.3017554 93.5165126,28.726606 92.4747707,28.726606 C90.9536996,28.726606 90.0397788,29.8832953 90.0397788,31.8451936 C90.0397788,33.8454352 91.0112191,35.06603 92.5450723,35.06603 C93.8041101,35.06603 94.6796846,34.2927736 94.7180309,33.1488655 L94.724422,33.0018829 L92.7176307,33.0018829 L92.7176307,31.5959622 L96.6033921,31.5959622 L96.6033921,32.6376216 Z M97.7409999,36.5102939 L97.7409999,29.4743002 L99.5432773,29.4743002 L99.5432773,30.7524098 L99.5816236,30.7524098 C99.8820032,29.9024669 100.64893,29.3720514 101.588415,29.3720514 C102.598202,29.3720514 103.314,29.8896858 103.550469,30.8099248 L103.588815,30.8099248 C103.908368,29.9280291 104.751987,29.3720514 105.774556,29.3720514 C107.155024,29.3720514 108.081727,30.311462 108.081727,31.7301637 L108.081727,36.5102939 L106.215539,36.5102939 L106.215539,32.1966738 C106.215539,31.372293 105.80012,30.9185641 105.039584,30.9185641 C104.304613,30.9185641 103.812502,31.4553702 103.812502,32.2541887 L103.812502,36.5102939 L102.010224,36.5102939 L102.010224,32.1263777 C102.010224,31.372293 101.575633,30.9185641 100.853444,30.9185641 C100.118472,30.9185641 99.6071879,31.4809324 99.6071879,32.2797509 L99.6071879,36.5102939 L97.7409999,36.5102939 Z M112.005834,35.2321842 C112.868627,35.2321842 113.558861,34.6953782 113.558861,33.9285124 L113.558861,33.410878 L112.082527,33.5131267 C111.302818,33.5642511 110.8874,33.8709974 110.8874,34.3886319 C110.8874,34.9062663 111.328382,35.2321842 112.005834,35.2321842 Z M111.398684,36.593371 C110.04378,36.593371 109.027603,35.7434281 109.027603,34.4844901 C109.027603,33.2063804 110.005434,32.4842484 111.801321,32.3756091 L113.558861,32.2669698 L113.558861,31.8004598 C113.558861,31.1230616 113.092314,30.7524098 112.325387,30.7524098 C111.647935,30.7524098 111.174997,31.1102805 111.085522,31.6215244 L109.379111,31.6215244 C109.430239,30.2795093 110.64454,29.3528798 112.40208,29.3528798 C114.210748,29.3528798 115.393093,30.2795093 115.393093,31.6854299 L115.393093,36.5102939 L113.590816,36.5102939 L113.590816,35.4239007 L113.55247,35.4239007 C113.169006,36.1588137 112.299823,36.593371 111.398684,36.593371 Z M116.677695,36.5102939 L116.677695,29.4743002 L118.543883,29.4743002 L118.543883,36.5102939 L116.677695,36.5102939 Z M117.610789,28.7074344 C117.061159,28.7074344 116.607394,28.2856582 116.607394,27.7296805 C116.607394,27.1737028 117.061159,26.7583171 117.610789,26.7583171 C118.166811,26.7583171 118.620576,27.1737028 118.620576,27.7296805 C118.620576,28.2856582 118.166811,28.7074344 117.610789,28.7074344 Z M119.892396,36.5102939 L119.892396,26.8477848 L121.758584,26.8477848 L121.758584,36.5102939 L119.892396,36.5102939 Z"/>
            <rect width="38.721" height="7.635" x="156.521" y="94.342" fill="#D8D8D8"/>
            <rect width="205.059" height="7.635" x="219.239" y="94.342" fill="#D8D8D8"/>
            <rect width="38.721" height="7.635" x="156.521" y="178.867" fill="#D8D8D8"/>
            <rect width="205.059" height="7.635" x="219.239" y="178.867" fill="#D8D8D8"/>
            <rect width="26.178" height="7.635" x="25.632" y="109.065" fill="#D93026" opacity=".703"/>
            <rect width="37.631" height="7.635" x="156.521" y="111.247" fill="#D8D8D8"/>
            <rect width="199.06" height="7.635" x="219.239" y="111.247" fill="#D8D8D8"/>
            <rect width="37.631" height="7.635" x="156.521" y="195.772" fill="#D8D8D8"/>
            <rect width="199.06" height="7.635" x="219.239" y="195.772" fill="#D8D8D8"/>
            <polygon fill="#D8D8D8" points="26.178 128.152 57.809 128.152 57.809 135.786 26.178 135.786" opacity=".703"/>
            <rect width="24.542" height="7.635" x="156.521" y="128.152" fill="#D8D8D8"/>
            <rect width="129.798" height="7.635" x="219.239" y="128.152" fill="#D8D8D8"/>
            <polygon fill="#D8D8D8" points="25.632 147.238 47.447 147.238 47.447 154.873 25.632 154.873" opacity=".703"/>
            <rect width="37.631" height="7.635" x="156.521" y="145.057" fill="#D8D8D8"/>
            <rect width="205.059" height="7.635" x="219.239" y="145.057" fill="#D8D8D8"/>
            <polygon fill="#D8D8D8" points="25.632 166.325 47.447 166.325 47.447 173.959 25.632 173.959" opacity=".703"/>
            <rect width="31.631" height="7.635" x="156.521" y="161.962" fill="#D8D8D8"/>
            <rect width="205.059" height="7.635" x="219.239" y="161.962" fill="#D8D8D8"/>
            <rect width="6.545" height="6.544" x="140.705" y="94.887" stroke="#D8D8D8" stroke-width="1.091" rx="1.636"/>
            <rect width="6.545" height="6.544" x="140.705" y="69.802" stroke="#D8D8D8" stroke-width="1.091" rx="1.636"/>
            <g fill="#D8D8D8" transform="translate(179.972 69.257)">
              <ellipse cx=".818" cy=".818" rx="1" ry="1"/>
              <ellipse cx=".818" cy="6.271" rx="1" ry="1"/>
              <ellipse cx=".818" cy="3.545" rx="1" ry="1"/>
            </g>
            <path fill="#D8D8D8" d="M3.94257073,0.683703466 C2.8063832,0.683703466 1.85198567,1.17040763 1.17027316,1.77299373 L1.19299691,0.115881943 L0.284046882,0.104293749 L0.238599381,3.4764583 L3.54490509,3.41851733 L3.53354322,2.49146178 L1.72700505,2.51463817 C2.26101318,2.01634582 3.0336207,1.59917082 3.9539326,1.59917082 C6.06724141,1.59917082 7.20342894,3.52281108 7.20342894,4.9133944 C7.20342894,6.30397772 6.07860328,8.22761798 3.9539326,8.22761798 C2.36327006,8.22761798 1.35206316,7.12673952 0.94303565,6.09539022 L0.102256878,6.44303605 C0.761245645,8.08855965 2.27237506,9.15467353 3.9539326,9.15467353 C6.44218329,9.15467353 8.11237896,6.9645048 8.11237896,4.9133944 C8.08965521,2.8738722 6.41945954,0.683703466 3.94257073,0.683703466 Z" transform="matrix(-1 0 0 1 167.974 68.166)"/>
            <rect width="6.545" height="6.544" x="140.705" y="111.792" stroke="#D8D8D8" stroke-width="1.091" rx="1.636"/>
            <rect width="6.545" height="6.544" x="140.705" y="128.697" stroke="#D8D8D8" stroke-width="1.091" rx="1.636"/>
            <rect width="6.545" height="6.544" x="140.705" y="145.602" stroke="#D8D8D8" stroke-width="1.091" rx="1.636"/>
            <rect width="6.545" height="6.544" x="140.705" y="162.507" stroke="#D8D8D8" stroke-width="1.091" rx="1.636"/>
            <rect width="6.545" height="6.544" x="140.705" y="179.412" stroke="#D8D8D8" stroke-width="1.091" rx="1.636"/>
            <rect width="6.545" height="6.544" x="140.705" y="196.318" stroke="#D8D8D8" stroke-width="1.091" rx="1.636"/>
            <g opacity=".698" transform="translate(27.269 198.499)">
              <mask id="multi-account-x" fill="#fff">
                <use xlink:href="#multi-account-w"/>
              </mask>
              <use fill="#FFF" fill-rule="nonzero" xlink:href="#multi-account-w"/>
              <g fill="#292929" mask="url(#multi-account-x)" opacity=".1">
                <rect width="15.932" height="16.928"/>
              </g>
            </g>
          </g>
        </g>
        <path fill="url(#multi-account-y)" d="M12.1741385,1.01455999 L687.928728,1.01455999 C694.652319,1.01455999 700.102866,6.46510744 700.102866,13.1886985 L700.102866,393.650405 C700.102866,400.373996 694.652319,405.824544 687.928728,405.824544 L12.1741385,405.824544 C5.45054745,405.824544 2.03633277e-14,400.373996 1.95399252e-14,393.650405 L1.77635684e-15,13.1886985 C9.52954417e-16,6.46510744 5.45054745,1.01455999 12.1741385,1.01455999 Z" style="mix-blend-mode:screen"/>
      </g>
    </g>
  </g>
</svg>
