<svg xmlns="http://www.w3.org/2000/svg" xmlns:xlink="http://www.w3.org/1999/xlink" width="84" height="84" viewBox="0 0 84 84">
  <defs>
    <path id="multiaccounts-a" d="M9,10.5 C6.13228846,10.5 3.80769231,8.149575 3.80769231,5.25 C3.80769231,2.350425 6.13228846,0 9,0 C11.8677115,0 14.1923077,2.350425 14.1923077,5.25 C14.1923077,8.149575 11.8677115,10.5 9,10.5 Z M4.67307692,12.25 L13.3269231,12.25 C15.7165962,12.25 17.6538462,14.208775 17.6538462,16.625 L17.6538462,19.25 C17.6538462,20.216525 16.8789808,21 15.9230769,21 L2.07692308,21 C1.12101923,21 0.346153846,20.216525 0.346153846,19.25 L0.346153846,16.625 C0.346153846,14.208775 2.28340385,12.25 4.67307692,12.25 Z"/>
    <path id="multiaccounts-c" d="M9,10.5 C6.13228846,10.5 3.80769231,8.149575 3.80769231,5.25 C3.80769231,2.350425 6.13228846,0 9,0 C11.8677115,0 14.1923077,2.350425 14.1923077,5.25 C14.1923077,8.149575 11.8677115,10.5 9,10.5 Z M4.67307692,12.25 L13.3269231,12.25 C15.7165962,12.25 17.6538462,14.208775 17.6538462,16.625 L17.6538462,19.25 C17.6538462,20.216525 16.8789808,21 15.9230769,21 L2.07692308,21 C1.12101923,21 0.346153846,20.216525 0.346153846,19.25 L0.346153846,16.625 C0.346153846,14.208775 2.28340385,12.25 4.67307692,12.25 Z"/>
  </defs>
  <g fill="none" fill-rule="evenodd" transform="translate(2 12)">
    <g transform="translate(36 16)">
      <circle cx="22.5" cy="22.5" r="22.5" fill="#FFD429"/>
      <g transform="translate(13 12)">
        <mask id="multiaccounts-b" fill="#fff">
          <use xlink:href="#multiaccounts-a"/>
        </mask>
        <use fill="#FFF" fill-rule="nonzero" xlink:href="#multiaccounts-a"/>
        <path fill="#FFF" fill-rule="nonzero" d="M9 7.875C10.4337692 7.875 11.5961538 6.6997 11.5961538 5.25 11.5961538 3.8003 10.4337692 2.625 9 2.625 7.56623077 2.625 6.40384615 3.8003 6.40384615 5.25 6.40384615 6.6997 7.56623077 7.875 9 7.875zM15.0576923 18.375L15.0576923 16.625C15.0576923 15.658475 14.2828269 14.875 13.3269231 14.875L4.67307692 14.875C3.71717308 14.875 2.94230769 15.658475 2.94230769 16.625L2.94230769 18.375 15.0576923 18.375z" mask="url(#multiaccounts-b)"/>
      </g>
    </g>
    <circle cx="22.5" cy="22.5" r="23.5" fill="#3070CD" stroke="#FFF" stroke-width="2"/>
    <g transform="translate(13 12)">
      <mask id="multiaccounts-d" fill="#fff">
        <use xlink:href="#multiaccounts-c"/>
      </mask>
      <use fill="#FFF" fill-rule="nonzero" xlink:href="#multiaccounts-c"/>
      <path fill="#FFF" fill-rule="nonzero" d="M9 7.875C10.4337692 7.875 11.5961538 6.6997 11.5961538 5.25 11.5961538 3.8003 10.4337692 2.625 9 2.625 7.56623077 2.625 6.40384615 3.8003 6.40384615 5.25 6.40384615 6.6997 7.56623077 7.875 9 7.875zM15.0576923 18.375L15.0576923 16.625C15.0576923 15.658475 14.2828269 14.875 13.3269231 14.875L4.67307692 14.875C3.71717308 14.875 2.94230769 15.658475 2.94230769 16.625L2.94230769 18.375 15.0576923 18.375z" mask="url(#multiaccounts-d)"/>
    </g>
  </g>
</svg>
