<svg xmlns="http://www.w3.org/2000/svg" xmlns:xlink="http://www.w3.org/1999/xlink" width="350" height="227" viewBox="0 0 350 227">
  <defs>
    <linearGradient id="notif-app-b" x1="50%" x2="50%" y1="0%" y2="100%">
      <stop offset="0%" stop-color="#FFF"/>
      <stop offset="100%" stop-color="#F5F7FF"/>
    </linearGradient>
    <rect id="notif-app-a" width="350" height="227"/>
    <linearGradient id="notif-app-f" x1="0%" y1="0%" y2="100%">
      <stop offset="0%" stop-color="#96AAFF"/>
      <stop offset="100%" stop-color="#123597"/>
    </linearGradient>
    <rect id="notif-app-e" width="713.6" height="423.04" rx="10.24"/>
    <filter id="notif-app-d" width="110.5%" height="117.7%" x="-5.2%" y="-6.5%" filterUnits="objectBoundingBox">
      <feMorphology in="SourceAlpha" operator="dilate" radius=".96" result="shadowSpreadOuter1"/>
      <feOffset dy="10" in="shadowSpreadOuter1" result="shadowOffsetOuter1"/>
      <feGaussianBlur in="shadowOffsetOuter1" result="shadowBlurOuter1" stdDeviation="10.5"/>
      <feComposite in="shadowBlurOuter1" in2="SourceAlpha" operator="out" result="shadowBlurOuter1"/>
      <feColorMatrix in="shadowBlurOuter1" values="0 0 0 0 0.137254902   0 0 0 0 0.243137255   0 0 0 0 0.470588235  0 0 0 0.2 0"/>
    </filter>
    <path id="notif-app-g" d="M18.8344807,16.4478293 L1.29837226,16.4478293 C0.618375475,16.4478293 0.0457642866,15.879311 0.0457642866,15.1641006 L0.0457642866,2.1804661 C0.0457642866,1.48357498 0.600500276,0.896737426 1.29837226,0.896737426 L18.8344135,0.896737426 C19.5143431,0.896737426 20.0869543,1.46525568 20.0869543,2.1804661 L20.0869543,15.1641006 C20.0869543,15.879311 19.5322183,16.4478293 18.8343463,16.4478293 L18.8344807,16.4478293 Z"/>
    <path id="notif-app-i" d="M0.0553738864,3.44836103 C0.0784196801,3.23827549 0.155403038,3.03820762 0.278477882,2.86854817 C0.690010674,2.30009879 1.49526826,2.17179479 2.06781225,2.59348313 L10.0663593,8.55345519 L18.1186663,2.52013705 C18.6734023,2.09831097 19.4607175,2.2267527 19.8723175,2.81352139 C20.0910535,3.11572103 20.1581191,3.48520624 20.0870215,3.82845215 L20.0870215,16.622351 C20.0870215,17.319311 19.5322855,17.8877604 18.8344135,17.8877604 L17.5818727,17.8877604 L17.5818727,6.10204306 L10.0485513,11.7076812 L2.55098024,6.1300041 L2.55098024,17.8878293 L1.29837226,17.8878293 C0.600500276,17.8878293 0.0457642866,17.3193799 0.0457642866,16.6041006 L0.0457642866,3.60221563 C0.0457642866,3.5475332 0.0489898865,3.49636311 0.0553066864,3.4484299 L0.0553738864,3.44836103 Z"/>
    <path id="notif-app-j" d="M9.88797465,9.51646227 L13.373814,13.0023017 C13.8160076,13.4444953 13.8160076,14.1614328 13.373814,14.6036264 C12.9316204,15.04582 12.2146829,15.04582 11.7724893,14.6036264 L8.06055565,10.8916927 C7.33213534,11.2361266 6.5191029,11.4285701 5.66153779,11.4285701 C2.53475681,11.4285701 0,8.87019751 0,5.71428503 C0,2.55837255 2.53475681,0 5.66153779,0 C8.78831877,0 11.3230756,2.55837255 11.3230756,5.71428503 C11.3230756,7.17427498 10.7805926,8.50638076 9.88797465,9.51646227 Z M5.66153779,9.14285605 C7.53760637,9.14285605 9.05846046,7.60783252 9.05846046,5.71428503 C9.05846046,3.82073755 7.53760637,2.28571401 5.66153779,2.28571401 C3.7854692,2.28571401 2.26461511,3.82073755 2.26461511,5.71428503 C2.26461511,7.60783252 3.7854692,9.14285605 5.66153779,9.14285605 Z"/>
    <polygon id="notif-app-l" points=".16 .64 647.097 .64 647.097 417.92 .16 417.92"/>
    <polygon id="notif-app-n" points="0 0 808.671 0 808.671 521.6 0 521.6"/>
    <path id="notif-app-p" d="M7.86543485,7.56991362 L10.6382618,10.3427406 C10.9900067,10.6944855 10.9900067,11.2647767 10.6382618,11.6165217 C10.2865169,11.9682666 9.71622565,11.9682666 9.36448071,11.6165217 L6.41180601,8.66384696 C5.83238073,8.93782854 5.18565034,9.09090855 4.50349624,9.09090855 C2.01628394,9.09090855 0,7.05583935 0,4.54545427 C0,2.0350692 2.01628394,0 4.50349624,0 C6.99070853,0 9.00699247,2.0350692 9.00699247,4.54545427 C9.00699247,5.70680998 8.57547188,6.76643964 7.86543485,7.56991362 Z M4.50349624,7.27272684 C5.99582361,7.27272684 7.20559398,6.05168532 7.20559398,4.54545427 C7.20559398,3.03922323 5.99582361,1.81818171 4.50349624,1.81818171 C3.01116886,1.81818171 1.80139849,3.03922323 1.80139849,4.54545427 C1.80139849,6.05168532 3.01116886,7.27272684 4.50349624,7.27272684 Z"/>
    <path id="notif-app-q" d="M18.0035464,15.7221886 L1.24109104,15.7221886 C0.591094159,15.7221886 0.0437452706,15.178752 0.0437452706,14.4950951 L0.0437452706,2.0842689 C0.0437452706,1.41812303 0.574007572,0.857175415 1.24109104,0.857175415 L18.0034821,0.857175415 C18.6534148,0.857175415 19.2007637,1.40061194 19.2007637,2.0842689 L19.2007637,14.4950951 C19.2007637,15.178752 18.6705014,15.7221886 18.0034179,15.7221886 L18.0035464,15.7221886 Z"/>
    <path id="notif-app-s" d="M0.0529309168,3.2962272 C0.0749599826,3.09541015 0.14854701,2.90416882 0.266192073,2.74199436 C0.659568976,2.19862367 1.42930043,2.07598016 1.97658508,2.47906457 L9.62225447,8.17609625 L17.3193121,2.40895435 C17.8495744,2.00573827 18.602155,2.12851345 18.9955962,2.68939524 C19.204682,2.97826253 19.2687888,3.33144689 19.2008279,3.65954957 L19.2008279,15.8890108 C19.2008279,16.5552225 18.6705656,17.0985932 18.0034821,17.0985932 L16.8062006,17.0985932 L16.8062006,5.83283483 L9.60523211,11.191165 L2.4384368,5.8595623 L2.4384368,17.098659 L1.24109104,17.098659 C0.574007572,17.098659 0.0437452706,16.5552883 0.0437452706,15.8715655 L0.0437452706,3.44329409 C0.0437452706,3.39102412 0.0468285644,3.34211154 0.0528666815,3.29629303 L0.0529309168,3.2962272 Z"/>
    <path id="notif-app-u" d="M11.5199986,1.42108547e-14 L141.279992,1.42108547e-14 C147.642312,1.30421156e-14 152.799991,5.15767907 152.799991,11.5199986 L152.799991,98.2399819 C152.799991,104.602301 147.642312,109.759981 141.279992,109.759981 L11.5199986,109.759981 C5.15767907,109.759981 -4.54991109e-15,104.602301 -5.32907052e-15,98.2399819 L0,11.5199986 C-7.79159428e-16,5.15767907 5.15767907,1.71559507e-14 11.5199986,1.59872116e-14 Z"/>
    <filter id="notif-app-t" width="149%" height="168.3%" x="-24.5%" y="-25%" filterUnits="objectBoundingBox">
      <feMorphology in="SourceAlpha" operator="dilate" radius=".96" result="shadowSpreadOuter1"/>
      <feOffset dy="10" in="shadowSpreadOuter1" result="shadowOffsetOuter1"/>
      <feGaussianBlur in="shadowOffsetOuter1" result="shadowBlurOuter1" stdDeviation="10.5"/>
      <feComposite in="shadowBlurOuter1" in2="SourceAlpha" operator="out" result="shadowBlurOuter1"/>
      <feColorMatrix in="shadowBlurOuter1" values="0 0 0 0 0.137254902   0 0 0 0 0.243137255   0 0 0 0 0.470588235  0 0 0 0.2 0"/>
    </filter>
    <path id="notif-app-v" d="M121.967883,32.853287 C121.765015,32.7547056 121.599279,32.5885968 121.506297,32.3776406 C121.352192,32.0282459 121.427777,31.6235462 121.698072,31.3486827 C123.036829,29.9874199 123.32865,27.973653 123.610931,26.0261097 C124.028971,23.1419416 124.500581,19.9000712 128.704712,19.4728222 L128.704712,18.9494422 C128.704712,18.4251127 129.14281,18 129.683156,18 C130.223502,18 130.6616,18.4251127 130.6616,18.9494422 L130.6616,19.4721101 C132.26452,19.6325873 133.329323,20.1960749 134.056577,20.9908579 L135.415591,19.6572809 C136.009461,19.0745265 136.964335,19.0779733 137.553945,19.6649998 C137.556501,19.6675449 137.559048,19.6700993 137.561586,19.6726628 C138.141449,20.2584186 138.134582,21.2012793 137.546248,21.7786013 L135.418933,23.8660987 C135.586005,24.5756062 135.693621,25.3113211 135.797943,26.0251602 C136.082426,27.9719914 136.376449,29.9852836 137.726457,31.3458343 C137.998465,31.6202231 138.075517,32.0256349 137.921901,32.3757417 C137.768286,32.7263233 137.413844,32.9537147 137.021488,32.9537147 L132.861143,32.9537147 C132.838883,34.6368384 131.423074,36 129.683156,36 C127.943237,36 126.527184,34.6368384 126.505169,32.9537147 L126.157979,32.9537147 L123.576439,35.4869357 C122.982569,36.06969 122.027696,36.0662433 121.438086,35.4792168 C121.435529,35.4766716 121.432982,35.4741172 121.430444,35.4715537 C120.850581,34.885798 120.857449,33.9429372 121.445782,33.3656153 L121.967883,32.853287 Z M129.685932,34.0517841 C130.286341,34.0517841 130.774229,33.5828982 130.79402,33 L129.685932,33 L128.577844,33 C128.597635,33.5828982 129.085523,34.0517841 129.685932,34.0517841 Z M125.191275,29.7645719 C125.191275,29.7645719 132.336581,22.6576596 132.336581,22.6576596 C131.80857,22.0799614 131.002267,21.7961271 129.685932,21.7961271 C126.713685,21.7961271 126.36945,23.274369 125.927594,26.3496519 C125.768686,27.4545728 125.597998,28.6424074 125.191275,29.7645719 Z M129.685932,30.7169278 L134.645532,30.7169278 C133.915924,29.3357267 133.397881,25.8625276 133.397881,25.8625276 C133.397881,25.8625276 128.526679,30.7169278 128.526679,30.7169278 C128.526679,30.7169278 128.913097,30.7169278 129.685932,30.7169278 Z"/>
    <linearGradient id="notif-app-w" x1="63.506%" x2="0%" y1="50%" y2="50%">
      <stop offset="0%" stop-color="#FFF"/>
      <stop offset="100%" stop-opacity="0"/>
    </linearGradient>
  </defs>
  <g fill="none" fill-rule="evenodd">
    <mask id="notif-app-c" fill="#fff">
      <use xlink:href="#notif-app-a"/>
    </mask>
    <use fill="url(#notif-app-b)" xlink:href="#notif-app-a"/>
    <g mask="url(#notif-app-c)">
      <g transform="translate(34 23)">
        <g transform="translate(.64 1.28)">
          <g stroke-linecap="round" stroke-linejoin="round">
            <use fill="#000" filter="url(#notif-app-d)" xlink:href="#notif-app-e"/>
            <use fill="#FFF" stroke="url(#notif-app-f)" stroke-width="1.92" xlink:href="#notif-app-e"/>
          </g>
          <path stroke="#6D86DF" stroke-linecap="square" stroke-width="1.92" d="M55.3599934,2.87999966 L55.3599934,422.07995"/>
          <path fill="#5A77DD" d="M29.4399965,190.079977 C18.8361306,190.079977 10.2399988,181.483846 10.2399988,170.87998 C10.2399988,160.276114 18.8361306,151.679982 29.4399965,151.679982 C40.0438624,151.679982 48.6399942,160.276114 48.6399942,170.87998 C48.6399942,181.483846 40.0438624,190.079977 29.4399965,190.079977 Z M29.4391125,161.279981 C24.1380296,161.279981 19.8399976,165.686784 19.8399976,171.123231 C19.8399976,175.472026 22.5904316,179.160979 26.4052076,180.46314 C26.8855169,180.553173 27.0605499,180.249235 27.0605499,179.988199 C27.0605499,179.754958 27.0522992,179.1356 27.0475845,178.314423 C24.3773003,178.909006 23.8138945,176.994739 23.8138945,176.994739 C23.377196,175.858142 22.7477845,175.554808 22.7477845,175.554808 C21.8761557,174.944515 22.8137902,174.9566 22.8137902,174.9566 C23.7773556,175.026089 24.2841851,175.971137 24.2841851,175.971137 C25.1404912,177.475118 26.5313256,177.040662 27.07823,176.789293 C27.1654518,176.153017 27.4129732,175.719165 27.6876041,175.473234 C25.5559735,175.224887 23.3147263,174.380144 23.3147263,170.608409 C23.3147263,169.534051 23.6889551,168.65547 24.3030439,167.967228 C24.2040353,167.718276 23.8745961,166.717636 24.3967484,165.362301 C24.3967484,165.362301 25.2029609,165.097639 27.0369764,166.3714 C27.8025247,166.152662 28.6240599,166.043896 29.4402912,166.040271 C30.2553437,166.043896 31.0768789,166.152662 31.8436059,166.3714 C33.6764428,165.097639 34.4808873,165.362301 34.4808873,165.362301 C35.0048075,166.717636 34.6753683,167.718276 34.5763598,167.967228 C35.1916272,168.65547 35.5634986,169.534051 35.5634986,170.608409 C35.5634986,174.389812 33.3187154,175.221866 31.1800129,175.465379 C31.5247748,175.769318 31.8318192,176.369943 31.8318192,177.288405 C31.8318192,178.603859 31.8200324,179.665529 31.8200324,179.988199 C31.8200324,180.251652 31.9927081,180.558007 32.4800894,180.461931 C36.2919187,179.157353 39.0399953,175.470817 39.0399953,171.123231 C39.0399953,165.686784 34.741374,161.279981 29.4391125,161.279981 Z" opacity=".123"/>
          <path fill="#5A77DD" d="M29.4399965,138.239984 C18.8361306,138.239984 10.2399988,129.643852 10.2399988,119.039986 C10.2399988,108.43612 18.8361306,99.8399881 29.4399965,99.8399881 C40.0438624,99.8399881 48.6399942,108.43612 48.6399942,119.039986 C48.6399942,129.643852 40.0438624,138.239984 29.4399965,138.239984 Z M26.1505569,110.730097 L19.8399976,121.790064 L23.094132,127.359985 L28.4413626,117.807506 L26.1505569,110.730097 Z M39.0369692,121.794109 L39.0399953,121.789053 L39.0329343,121.789053 L32.6457122,110.729086 L26.1505569,110.719987 L31.6379998,120.185515 L38.9895593,121.789053 L28.0893189,121.763777 L23.1092628,127.353918 L35.8705936,127.305388 L39.0349517,121.797142 L39.0389866,121.798153 L39.0369692,121.794109 Z" opacity=".155"/>
          <circle cx="29.44" cy="67.2" r="19.2" fill="#5A77DD"/>
          <g transform="translate(19.2 57.6)">
            <g transform="translate(0 1.44)">
              <mask id="notif-app-h" fill="#fff">
                <use xlink:href="#notif-app-g"/>
              </mask>
              <use fill="#FFF" fill-rule="nonzero" opacity=".496" xlink:href="#notif-app-g"/>
              <g fill="#FFF" mask="url(#notif-app-h)" opacity=".499">
                <rect width="20" height="20" transform="translate(0 -1.44)"/>
              </g>
            </g>
            <use fill="#FFF" fill-rule="nonzero" xlink:href="#notif-app-i"/>
          </g>
          <g transform="translate(22.4 19.2)">
            <mask id="notif-app-k" fill="#fff">
              <use xlink:href="#notif-app-j"/>
            </mask>
            <use fill="#6D86DF" fill-rule="nonzero" xlink:href="#notif-app-j"/>
            <g fill="#FFF" mask="url(#notif-app-k)" opacity=".6">
              <rect width="23.04" height="23.04" transform="translate(-4.53 -4.571)"/>
            </g>
          </g>
          <g opacity=".51" transform="translate(56.16 1.92)">
            <mask id="notif-app-m" fill="#fff">
              <use xlink:href="#notif-app-l"/>
            </mask>
            <use fill="#FFF" xlink:href="#notif-app-l"/>
            <g mask="url(#notif-app-m)">
              <g transform="translate(0 .8)">
                <mask id="notif-app-o" fill="#fff">
                  <use xlink:href="#notif-app-n"/>
                </mask>
                <use fill="#FFF" xlink:href="#notif-app-n"/>
                <rect width="185.6" height="24.8" x="-31.2" y="153.6" fill="#FCE8E6" mask="url(#notif-app-o)" rx="12.4"/>
              </g>
            </g>
            <rect width="387.2" height="36" x="205.6" y="30.4" fill="#F6F6F6" mask="url(#notif-app-m)" rx="4.8"/>
            <g mask="url(#notif-app-m)">
              <use fill="#C4C4C4" fill-rule="nonzero" transform="translate(223.2 42.4)" xlink:href="#notif-app-p"/>
            </g>
            <rect width="85.6" height="30.4" x="31.2" y="95.2" fill="#FFF" stroke="#C1C0C0" stroke-width="1.6" mask="url(#notif-app-m)" rx="15.2"/>
            <polygon fill="#D8D8D8" points="74.4 104.8 97.6 104.8 97.6 116 74.4 116" mask="url(#notif-app-m)"/>
            <path fill="#FB908B" d="M49.7904732,108.19047 L49.7904732,102.399994 L53.4095206,102.399994 L53.4095206,108.19047 L59.1999965,108.19047 L59.1999965,111.809517 L53.4095206,111.809517 L53.4095206,117.599993 L49.7904732,117.599993 L49.7904732,111.809517 L43.9999974,111.809517 L43.9999974,108.19047 L49.7904732,108.19047 Z" mask="url(#notif-app-m)"/>
            <circle cx="48.4" cy="48.4" r="18" fill="#D54B3D" mask="url(#notif-app-m)"/>
            <g mask="url(#notif-app-m)">
              <g transform="translate(38.4 39.2)">
                <g transform="translate(0 1.376)">
                  <mask id="notif-app-r" fill="#fff">
                    <use xlink:href="#notif-app-q"/>
                  </mask>
                  <use fill="#FFF" fill-rule="nonzero" opacity=".496" xlink:href="#notif-app-q"/>
                  <g fill="#FFF" mask="url(#notif-app-r)" opacity=".499">
                    <rect width="18.951" height="18.951" transform="translate(0 -1.376)"/>
                  </g>
                </g>
                <use fill="#FFF" fill-rule="nonzero" xlink:href="#notif-app-s"/>
              </g>
            </g>
            <text fill="#858585" font-family="SFUIDisplay-Bold, SF UI Display" font-size="19.2" font-weight="bold" mask="url(#notif-app-m)">
              <tspan x="80.8" y="54.8">Gmail</tspan>
            </text>
            <rect width="56.8" height="11.2" x="229.6" y="139.2" fill="#D8D8D8" mask="url(#notif-app-m)"/>
            <rect width="38.4" height="11.2" x="37.6" y="160.8" fill="#D93026" mask="url(#notif-app-m)" opacity=".703"/>
            <rect width="55.2" height="11.2" x="229.6" y="164" fill="#D8D8D8" mask="url(#notif-app-m)"/>
            <polygon fill="#D8D8D8" points="38.4 188.8 84.8 188.8 84.8 200 38.4 200" mask="url(#notif-app-m)" opacity=".703"/>
            <rect width="36" height="11.2" x="229.6" y="188.8" fill="#D8D8D8" mask="url(#notif-app-m)"/>
            <rect width="9.6" height="9.6" x="206.4" y="140" stroke="#D8D8D8" stroke-width="1.6" mask="url(#notif-app-m)" rx="2.4"/>
            <rect width="9.6" height="9.6" x="206.4" y="103.2" stroke="#D8D8D8" stroke-width="1.6" mask="url(#notif-app-m)" rx="2.4"/>
            <g fill="#D8D8D8" mask="url(#notif-app-m)">
              <path d="M5.78333299,1.00299994 C4.11666642,1.00299994 2.7166665,1.7169999 1.71666656,2.60099984 L1.7499999,0.16999999 L0.416666642,0.152999991 L0.349999979,5.0999997 L5.19999969,5.0149997 L5.18333302,3.65499978 L2.53333318,3.68899978 C3.31666647,2.95799982 4.44999973,2.34599986 5.79999965,2.34599986 C8.89999947,2.34599986 10.566666,5.16799969 10.566666,7.20799957 C10.566666,9.24799945 8.91666614,12.0699993 5.79999965,12.0699993 C3.46666646,12.0699993 1.98333322,10.4549994 1.38333325,8.94199947 L0.149999991,9.45199944 C1.1166666,11.8659993 3.33333313,13.4299992 5.79999965,13.4299992 C9.44999944,13.4299992 11.8999993,10.2169994 11.8999993,7.20799957 C11.866666,4.21599975 9.41666611,1.00299994 5.78333299,1.00299994 Z" transform="matrix(-1 0 0 1 246.4 100.8)"/>
            </g>
            <rect width="9.6" height="9.6" x="206.4" y="164.8" stroke="#D8D8D8" stroke-width="1.6" mask="url(#notif-app-m)" rx="2.4"/>
            <rect width="9.6" height="9.6" x="206.4" y="189.6" stroke="#D8D8D8" stroke-width="1.6" mask="url(#notif-app-m)" rx="2.4"/>
          </g>
          <g transform="translate(68.8 46.4)">
            <g stroke-linecap="round" stroke-linejoin="round">
              <use fill="#000" filter="url(#notif-app-t)" xlink:href="#notif-app-u"/>
              <use fill="#FFF" stroke="url(#notif-app-f)" stroke-width="1.92" xlink:href="#notif-app-u"/>
            </g>
            <path stroke="#8A9FF6" stroke-linecap="square" stroke-width=".64" d="M20.3199988,74.7199976 L152.239996,74.7199976" opacity=".395"/>
            <path fill="#3070CD" d="M24.8974957,28.4974987 C24.8974957,31.9362483 22.814996,34.018748 19.2974964,34.018748 C15.5262468,34.018748 13.2162471,31.5512483 13.2162471,27.4474988 C13.2162471,23.4049993 15.5262468,20.9549996 19.2362464,20.9549996 C22.184996,20.9549996 24.4074958,22.6962494 24.7837457,25.2512491 L22.1324961,25.2512491 C21.7474961,23.9299992 20.6712462,23.1424993 19.2449964,23.1424993 C17.1624966,23.1424993 15.9112468,24.7262491 15.9112468,27.4124988 C15.9112468,30.1512485 17.2412466,31.8224983 19.3412464,31.8224983 C21.0649962,31.8224983 22.263746,30.7637484 22.316246,29.1974986 L22.324996,28.9962486 L19.5774964,28.9962486 L19.5774964,27.0712488 L24.8974957,27.0712488 L24.8974957,28.4974987 Z M26.4549955,33.799998 L26.4549955,24.1662492 L28.9224952,24.1662492 L28.9224952,25.916249 L28.9749952,25.916249 C29.3862452,24.7524991 30.4362451,24.0262492 31.7224949,24.0262492 C33.1049947,24.0262492 34.0849946,24.7349991 34.4087446,25.994999 L34.4612446,25.994999 C34.8987445,24.7874991 36.0537444,24.0262492 37.4537442,24.0262492 C39.343744,24.0262492 40.6124938,25.3124991 40.6124938,27.2549988 L40.6124938,33.799998 L38.0574942,33.799998 L38.0574942,27.8937487 C38.0574942,26.7649989 37.4887442,26.143749 36.4474943,26.143749 C35.4412445,26.143749 34.7674945,26.8787489 34.7674945,27.9724987 L34.7674945,33.799998 L32.2999948,33.799998 L32.2999948,27.7974988 C32.2999948,26.7649989 31.7049949,26.143749 30.716245,26.143749 C29.7099951,26.143749 29.0099952,26.9137489 29.0099952,28.0074987 L29.0099952,33.799998 L26.4549955,33.799998 Z M45.9849932,32.0499983 C47.1662431,32.0499983 48.111243,31.3149983 48.111243,30.2649985 L48.111243,29.5562486 L46.0899932,29.6962485 C45.0224933,29.7662485 44.4537434,30.1862485 44.4537434,30.8949984 C44.4537434,31.6037483 45.0574933,32.0499983 45.9849932,32.0499983 Z M45.1537433,33.913748 C43.2987435,33.913748 41.9074937,32.7499982 41.9074937,31.0262484 C41.9074937,29.2762486 43.2462435,28.2874987 45.7049932,28.1387487 L48.111243,27.9899987 L48.111243,27.3512488 C48.111243,26.4237489 47.472493,25.916249 46.4224932,25.916249 C45.4949933,25.916249 44.8474933,26.4062489 44.7249934,27.1062488 L42.3887436,27.1062488 C42.4587436,25.2687491 44.1212434,23.9999992 46.5274931,23.9999992 C49.0037428,23.9999992 50.6224927,25.2687491 50.6224927,27.1937488 L50.6224927,33.799998 L48.1549929,33.799998 L48.1549929,32.3124982 L48.102493,32.3124982 C47.577493,33.3187481 46.3874932,33.913748 45.1537433,33.913748 Z M52.3812424,33.799998 L52.3812424,24.1662492 L54.9362421,24.1662492 L54.9362421,33.799998 L52.3812424,33.799998 Z M53.6587423,23.1162493 C52.9062424,23.1162493 52.2849925,22.5387494 52.2849925,21.7774995 C52.2849925,21.0162496 52.9062424,20.4474996 53.6587423,20.4474996 C54.4199922,20.4474996 55.0412421,21.0162496 55.0412421,21.7774995 C55.0412421,22.5387494 54.4199922,23.1162493 53.6587423,23.1162493 Z M56.7824919,33.799998 L56.7824919,20.5699996 L59.3374916,20.5699996 L59.3374916,33.799998 L56.7824919,33.799998 Z"/>
            <path fill="#3070CD" d="M13.2687492,54.1578098 C13.2687492,53.3046849 14.0421867,52.7046849 15.1390616,52.7046849 C16.165624,52.7046849 16.943749,53.3187474 16.9765615,54.1484348 L16.193749,54.1484348 C16.1421865,53.6749973 15.7296866,53.3796849 15.1109366,53.3796849 C14.4874991,53.3796849 14.0703117,53.6749973 14.0703117,54.1156223 C14.0703117,54.4578098 14.3421866,54.6874973 14.9234366,54.8328098 L15.6921866,55.0249973 C16.7140615,55.2828097 17.0796865,55.6390597 17.0796865,56.3749972 C17.0796865,57.2374971 16.249999,57.8468721 15.0828116,57.8468721 C13.9953117,57.8468721 13.2078117,57.2562471 13.1281242,56.3796847 L13.9484367,56.3796847 C14.0328117,56.8953096 14.4499991,57.1718721 15.1390616,57.1718721 C15.8281241,57.1718721 16.259374,56.8859346 16.259374,56.4312472 C16.259374,56.0749972 16.0484365,55.8874972 15.4718741,55.7374972 L14.5859366,55.5078097 C13.6999992,55.2781222 13.2687492,54.8328098 13.2687492,54.1578098 Z M22.0859362,52.7468724 L22.0859362,57.7999971 L21.3171862,57.7999971 L21.3171862,56.9656221 L21.2984362,56.9656221 C20.9843737,57.5468721 20.4640613,57.8468721 19.6906238,57.8468721 C18.5843739,57.8468721 17.9421864,57.1343721 17.9421864,55.9859347 L17.9421864,52.7468724 L18.7578114,52.7468724 L18.7578114,55.8453097 C18.7578114,56.6749972 19.1468739,57.1203096 19.9390613,57.1203096 C20.7687488,57.1203096 21.2703112,56.5484347 21.2703112,55.6812472 L21.2703112,52.7468724 L22.0859362,52.7468724 Z M25.620311,52.6999974 C26.9093734,52.6999974 27.7859358,53.7312473 27.7859358,55.2734347 C27.7859358,56.8156221 26.9140609,57.8468721 25.639061,57.8468721 C24.9218735,57.8468721 24.345311,57.5328096 24.0265611,56.9796846 L24.0078111,56.9796846 L24.0078111,59.487497 L23.1921861,59.487497 L23.1921861,52.7468724 L23.9656236,52.7468724 L23.9656236,53.5671848 L23.9843736,53.5671848 C24.2796861,53.0421849 24.9218735,52.6999974 25.620311,52.6999974 Z M25.470311,57.1203096 C26.3609359,57.1203096 26.9515609,56.3937472 26.9515609,55.2734347 C26.9515609,54.1578098 26.3609359,53.4265599 25.470311,53.4265599 C24.598436,53.4265599 24.0031236,54.1765598 24.0031236,55.2734347 C24.0031236,56.3749972 24.598436,57.1203096 25.470311,57.1203096 Z M31.0718731,52.6999974 C32.3609356,52.6999974 33.237498,53.7312473 33.237498,55.2734347 C33.237498,56.8156221 32.3656231,57.8468721 31.0906231,57.8468721 C30.3734357,57.8468721 29.7968732,57.5328096 29.4781232,56.9796846 L29.4593732,56.9796846 L29.4593732,59.487497 L28.6437483,59.487497 L28.6437483,52.7468724 L29.4171857,52.7468724 L29.4171857,53.5671848 L29.4359357,53.5671848 C29.7312482,53.0421849 30.3734357,52.6999974 31.0718731,52.6999974 Z M30.9218732,57.1203096 C31.8124981,57.1203096 32.4031231,56.3937472 32.4031231,55.2734347 C32.4031231,54.1578098 31.8124981,53.4265599 30.9218732,53.4265599 C30.0499982,53.4265599 29.4546857,54.1765598 29.4546857,55.2734347 C29.4546857,56.3749972 30.0499982,57.1203096 30.9218732,57.1203096 Z M36.1765603,57.8468721 C34.7562479,57.8468721 33.846873,56.8390596 33.846873,55.2734347 C33.846873,53.7031223 34.7562479,52.6999974 36.1765603,52.6999974 C37.5968728,52.6999974 38.5062477,53.7031223 38.5062477,55.2734347 C38.5062477,56.8390596 37.5968728,57.8468721 36.1765603,57.8468721 Z M36.1765603,57.1203096 C37.1187478,57.1203096 37.6765603,56.4312472 37.6765603,55.2734347 C37.6765603,54.1109348 37.1187478,53.4265599 36.1765603,53.4265599 C35.2343729,53.4265599 34.6765604,54.1156223 34.6765604,55.2734347 C34.6765604,56.4312472 35.2390604,57.1203096 36.1765603,57.1203096 Z M39.3640602,57.7999971 L39.3640602,52.7468724 L40.1328101,52.7468724 L40.1328101,53.5671848 L40.1515601,53.5671848 C40.3015601,53.0374974 40.7843726,52.6999974 41.3749975,52.6999974 C41.52031,52.6999974 41.642185,52.7140599 41.7124975,52.7281224 L41.7124975,53.5296848 C41.6468725,53.5062473 41.4687475,53.4828098 41.267185,53.4828098 C40.6109351,53.4828098 40.1796851,53.9609348 40.1796851,54.6734348 L40.1796851,57.7999971 L39.3640602,57.7999971 Z M42.673435,51.60781 L43.4890599,51.60781 L43.4890599,52.7468724 L44.4734348,52.7468724 L44.4734348,53.4218724 L43.4890599,53.4218724 L43.4890599,56.4546847 C43.4890599,56.9187471 43.6859349,57.1296846 44.1171849,57.1296846 C44.2156224,57.1296846 44.4124974,57.1156221 44.4687473,57.1062471 L44.4687473,57.7953096 C44.3703099,57.8187471 44.1359349,57.8374971 43.9437474,57.8374971 C43.0296849,57.8374971 42.673435,57.4578096 42.673435,56.4874972 L42.673435,53.4218724 L41.97031,53.4218724 L41.97031,52.7468724 L42.673435,52.7468724 L42.673435,51.60781 Z M48.9921846,53.6984348 C48.3640596,53.6984348 47.9937471,54.1859348 47.9937471,55.0062473 C47.9937471,55.8218722 48.3687471,56.3187472 48.9828096,56.3187472 C49.624997,56.3187472 50.037497,55.8078097 50.037497,55.0062473 C50.037497,54.2046848 49.6296845,53.6984348 48.9921846,53.6984348 Z M49.1562471,51.073435 C51.3359344,51.073435 52.9156218,52.4562474 52.9156218,54.5234348 C52.9156218,56.0234347 52.2499969,57.0218721 51.153122,57.0218721 C50.618747,57.0218721 50.159372,56.7031222 50.103122,56.2343722 L50.065622,56.2343722 C49.8640595,56.7078097 49.4281221,56.9796846 48.8749971,56.9796846 C47.8999971,56.9796846 47.2437472,56.1781222 47.2437472,54.9874973 C47.2437472,53.8484348 47.9140596,53.0515599 48.8749971,53.0515599 C49.3765596,53.0515599 49.831247,53.3140599 50.009372,53.7124973 L50.046872,53.7124973 L50.046872,53.1406224 L50.7546845,53.1406224 L50.7546845,55.8921847 C50.7546845,56.1968722 50.9234345,56.4124972 51.2843719,56.4124972 C51.8421844,56.4124972 52.2546844,55.7281222 52.2546844,54.5140598 C52.2546844,52.8124974 50.9609345,51.66406 49.0953096,51.66406 C47.2718722,51.66406 45.9453098,53.0515599 45.9453098,55.0109348 C45.9453098,57.1343721 47.3609347,58.3015596 49.2453096,58.3015596 C49.8734345,58.3015596 50.5109345,58.2124971 50.815622,58.0765596 L50.815622,58.6671845 C50.403122,58.812497 49.840622,58.896872 49.2359346,58.896872 C46.9484347,58.896872 45.2843723,57.5046846 45.2843723,54.9828098 C45.2843723,52.6437474 46.8781222,51.073435 49.1562471,51.073435 Z M55.8171842,57.0734346 C56.7031216,57.0734346 57.3031216,56.3374972 57.3031216,55.2546847 C57.3031216,54.1671848 56.7031216,53.4265599 55.8171842,53.4265599 C54.9359342,53.4265599 54.3593718,54.1484348 54.3593718,55.2546847 C54.3593718,56.3562472 54.9359342,57.0734346 55.8171842,57.0734346 Z M55.8312467,59.6046845 C54.6874967,59.6046845 53.8578093,59.0515595 53.7406218,58.2124971 L54.5890592,58.2124971 C54.7109342,58.634372 55.2124967,58.896872 55.8781217,58.896872 C56.7499966,58.896872 57.3031216,58.4421846 57.3031216,57.7249971 L57.3031216,56.9328096 L57.2843716,56.9328096 C56.9656216,57.4812471 56.3703091,57.7999971 55.6624967,57.7999971 C54.3828093,57.7999971 53.5249968,56.7828097 53.5249968,55.2546847 C53.5249968,53.7124973 54.3828093,52.6999974 55.6812467,52.6999974 C56.3937466,52.6999974 56.9890591,53.0140599 57.3265591,53.5671848 L57.3406216,53.5671848 L57.3406216,52.7468724 L58.1187465,52.7468724 L58.1187465,57.6593721 C58.1187465,58.868747 57.2515591,59.6046845 55.8312467,59.6046845 Z M61.2406213,53.4171849 C60.4484339,53.4171849 59.8765589,53.9937473 59.8203089,54.8468723 L62.5999963,54.8468723 C62.5812463,53.9890598 62.0374963,53.4171849 61.2406213,53.4171849 Z M62.5812463,56.3562472 L63.3874962,56.3562472 C63.2468712,57.2234346 62.3703088,57.8468721 61.2921838,57.8468721 C59.8718714,57.8468721 58.976559,56.8578096 58.976559,55.2921847 C58.976559,53.7265598 59.8765589,52.6999974 61.2546838,52.6999974 C62.6046838,52.6999974 63.4484337,53.6515598 63.4484337,55.1796847 L63.4484337,55.4984347 L59.8203089,55.4984347 L59.8203089,55.5453097 C59.8203089,56.5062472 60.4109339,57.1296846 61.3109338,57.1296846 C61.9437463,57.1296846 62.4359338,56.8296846 62.5812463,56.3562472 Z M64.5734337,51.60781 L65.3890586,51.60781 L65.3890586,52.7468724 L66.3734335,52.7468724 L66.3734335,53.4218724 L65.3890586,53.4218724 L65.3890586,56.4546847 C65.3890586,56.9187471 65.5859336,57.1296846 66.0171836,57.1296846 C66.1156211,57.1296846 66.312496,57.1156221 66.368746,57.1062471 L66.368746,57.7953096 C66.2703085,57.8187471 66.0359336,57.8374971 65.8437461,57.8374971 C64.9296836,57.8374971 64.5734337,57.4578096 64.5734337,56.4874972 L64.5734337,53.4218724 L63.8703087,53.4218724 L63.8703087,52.7468724 L64.5734337,52.7468724 L64.5734337,51.60781 Z M67.193746,54.1578098 C67.193746,53.3046849 67.9671834,52.7046849 69.0640584,52.7046849 C70.0906208,52.7046849 70.8687458,53.3187474 70.9015583,54.1484348 L70.1187458,54.1484348 C70.0671833,53.6749973 69.6546833,53.3796849 69.0359334,53.3796849 C68.4124959,53.3796849 67.9953084,53.6749973 67.9953084,54.1156223 C67.9953084,54.4578098 68.2671834,54.6874973 68.8484334,54.8328098 L69.6171834,55.0249973 C70.6390583,55.2828097 71.0046833,55.6390597 71.0046833,56.3749972 C71.0046833,57.2374971 70.1749958,57.8468721 69.0078084,57.8468721 C67.9203085,57.8468721 67.1328085,57.2562471 67.053121,56.3796847 L67.8734335,56.3796847 C67.9578084,56.8953096 68.3749959,57.1718721 69.0640584,57.1718721 C69.7531208,57.1718721 70.1843708,56.8859346 70.1843708,56.4312472 C70.1843708,56.0749972 69.9734333,55.8874972 69.3968709,55.7374972 L68.5109334,55.5078097 C67.624996,55.2781222 67.193746,54.8328098 67.193746,54.1578098 Z M72.1578082,51.60781 L72.9734332,51.60781 L72.9734332,52.7468724 L73.9578081,52.7468724 L73.9578081,53.4218724 L72.9734332,53.4218724 L72.9734332,56.4546847 C72.9734332,56.9187471 73.1703081,57.1296846 73.6015581,57.1296846 C73.6999956,57.1296846 73.8968706,57.1156221 73.9531206,57.1062471 L73.9531206,57.7953096 C73.8546831,57.8187471 73.6203081,57.8374971 73.4281206,57.8374971 C72.5140582,57.8374971 72.1578082,57.4578096 72.1578082,56.4874972 L72.1578082,53.4218724 L71.4546832,53.4218724 L71.4546832,52.7468724 L72.1578082,52.7468724 L72.1578082,51.60781 Z M76.5124954,57.1390596 C77.3374954,57.1390596 77.9421829,56.6046847 77.9421829,55.8781222 L77.9421829,55.4703097 L76.6203079,55.5546847 C75.860933,55.6015597 75.467183,55.8781222 75.467183,56.3656222 C75.467183,56.8343721 75.8749955,57.1390596 76.5124954,57.1390596 Z M76.3390579,57.8468721 C75.3124955,57.8468721 74.6328081,57.2562471 74.6328081,56.3609347 C74.6328081,55.4937472 75.298433,54.9828098 76.5265579,54.9078098 L77.9421829,54.8234348 L77.9421829,54.4015598 C77.9421829,53.7734348 77.5296829,53.4265599 76.7843704,53.4265599 C76.198433,53.4265599 75.7624955,53.7265598 75.664058,54.2046848 L74.8812455,54.2046848 C74.904683,53.3515599 75.7343705,52.6999974 76.7937454,52.6999974 C77.9890579,52.6999974 78.7578078,53.3374974 78.7578078,54.3312473 L78.7578078,57.7999971 L77.9843704,57.7999971 L77.9843704,56.9234346 L77.9656204,56.9234346 C77.6796829,57.4859346 77.0468704,57.8468721 76.3390579,57.8468721 Z M80.1078077,51.60781 L80.9234327,51.60781 L80.9234327,52.7468724 L81.9078076,52.7468724 L81.9078076,53.4218724 L80.9234327,53.4218724 L80.9234327,56.4546847 C80.9234327,56.9187471 81.1203077,57.1296846 81.5515576,57.1296846 C81.6499951,57.1296846 81.8468701,57.1156221 81.9031201,57.1062471 L81.9031201,57.7953096 C81.8046826,57.8187471 81.5703076,57.8374971 81.3781201,57.8374971 C80.4640577,57.8374971 80.1078077,57.4578096 80.1078077,56.4874972 L80.1078077,53.4218724 L79.4046828,53.4218724 L79.4046828,52.7468724 L80.1078077,52.7468724 L80.1078077,51.60781 Z M82.8593701,57.7999971 L82.8593701,52.7468724 L83.674995,52.7468724 L83.674995,57.7999971 L82.8593701,57.7999971 Z M83.2671825,51.9312474 C82.9859326,51.9312474 82.7515576,51.6968725 82.7515576,51.4156225 C82.7515576,51.129685 82.9859326,50.8999975 83.2671825,50.8999975 C83.55312,50.8999975 83.7828075,51.129685 83.7828075,51.4156225 C83.7828075,51.6968725 83.55312,51.9312474 83.2671825,51.9312474 Z M86.9093698,57.8468721 C85.4890574,57.8468721 84.5796825,56.8390596 84.5796825,55.2734347 C84.5796825,53.7031223 85.4890574,52.6999974 86.9093698,52.6999974 C88.3296822,52.6999974 89.2390572,53.7031223 89.2390572,55.2734347 C89.2390572,56.8390596 88.3296822,57.8468721 86.9093698,57.8468721 Z M86.9093698,57.1203096 C87.8515573,57.1203096 88.4093697,56.4312472 88.4093697,55.2734347 C88.4093697,54.1109348 87.8515573,53.4265599 86.9093698,53.4265599 C85.9671824,53.4265599 85.4093699,54.1156223 85.4093699,55.2734347 C85.4093699,56.4312472 85.9718699,57.1203096 86.9093698,57.1203096 Z M90.0968696,57.7999971 L90.0968696,52.7468724 L90.8656196,52.7468724 L90.8656196,53.5671848 L90.8843696,53.5671848 C91.2031196,52.9953099 91.704682,52.6999974 92.4874945,52.6999974 C93.5984319,52.6999974 94.2406194,53.4124974 94.2406194,54.5609348 L94.2406194,57.7999971 L93.4249944,57.7999971 L93.4249944,54.7015598 C93.4249944,53.8765598 93.0406195,53.4265599 92.2437445,53.4265599 C91.4140571,53.4265599 90.9124946,53.9984348 90.9124946,54.8656223 L90.9124946,57.7999971 L90.0968696,57.7999971 Z M95.9890568,57.8468721 C95.6890568,57.8468721 95.4546818,57.6124971 95.4546818,57.3124971 C95.4546818,57.0078096 95.6890568,56.7781222 95.9890568,56.7781222 C96.2937443,56.7781222 96.5234317,57.0078096 96.5234317,57.3124971 C96.5234317,57.6124971 96.2937443,57.8468721 95.9890568,57.8468721 Z M101.937494,54.3921848 L101.135931,54.3921848 C101.032806,53.8531223 100.582807,53.4265599 99.8234316,53.4265599 C98.9421816,53.4265599 98.3421816,54.1578098 98.3421816,55.2734347 C98.3421816,56.4218722 98.9515566,57.1203096 99.8328065,57.1203096 C100.535932,57.1203096 101.004681,56.7921847 101.145306,56.1828097 L101.946869,56.1828097 C101.810931,57.1671846 100.981244,57.8468721 99.828119,57.8468721 C98.4406191,57.8468721 97.5124942,56.8624971 97.5124942,55.2734347 C97.5124942,53.7218723 98.4359316,52.6999974 99.8187441,52.6999974 C101.070306,52.6999974 101.834369,53.5062473 101.937494,54.3921848 Z M104.810931,57.8468721 C103.390619,57.8468721 102.481244,56.8390596 102.481244,55.2734347 C102.481244,53.7031223 103.390619,52.6999974 104.810931,52.6999974 C106.231244,52.6999974 107.140619,53.7031223 107.140619,55.2734347 C107.140619,56.8390596 106.231244,57.8468721 104.810931,57.8468721 Z M104.810931,57.1203096 C105.753119,57.1203096 106.310931,56.4312472 106.310931,55.2734347 C106.310931,54.1109348 105.753119,53.4265599 104.810931,53.4265599 C103.868744,53.4265599 103.310931,54.1156223 103.310931,55.2734347 C103.310931,56.4312472 103.873431,57.1203096 104.810931,57.1203096 Z M107.998431,57.7999971 L107.998431,52.7468724 L108.767181,52.7468724 L108.767181,53.5671848 L108.785931,53.5671848 C109.024994,53.0281224 109.564056,52.6999974 110.220306,52.6999974 C110.904681,52.6999974 111.415618,53.0468724 111.635931,53.6562473 L111.654681,53.6562473 C111.940618,53.0562474 112.535931,52.6999974 113.243743,52.6999974 C114.242181,52.6999974 114.889056,53.3468724 114.889056,54.3499973 L114.889056,57.7999971 L114.073431,57.7999971 L114.073431,54.5374973 C114.073431,53.8390598 113.684368,53.4265599 113.009368,53.4265599 C112.334368,53.4265599 111.851556,53.9281223 111.851556,54.6218723 L111.851556,57.7999971 L111.035931,57.7999971 L111.035931,54.4390598 C111.035931,53.8296848 110.618743,53.4265599 109.985931,53.4265599 C109.310931,53.4265599 108.814056,53.9562473 108.814056,54.6640598 L108.814056,57.7999971 L107.998431,57.7999971 Z" opacity=".578"/>
            <path fill="#3070CD" d="M39.7554664,95.7199979 L39.1789039,93.9715605 L36.6898416,93.9715605 L36.1132791,95.7199979 L34.8664042,95.7199979 L37.266404,88.9559358 L38.6304664,88.9559358 L41.0304663,95.7199979 L39.7554664,95.7199979 Z M37.9179665,90.1512482 L36.9710915,93.038748 L38.8929664,93.038748 L37.950779,90.1512482 L37.9179665,90.1512482 Z M43.5710912,95.7762479 C42.2914037,95.7762479 41.4382788,94.7496854 41.4382788,93.1559355 C41.4382788,91.5668731 42.2960912,90.5403107 43.5664037,90.5403107 C44.3070286,90.5403107 44.8835911,90.8918732 45.1601536,91.4590606 L45.1882786,91.4590606 L45.1882786,88.6418733 L46.355466,88.6418733 L46.355466,95.7199979 L45.2117161,95.7199979 L45.2117161,94.8481229 L45.1882786,94.8481229 C44.9117161,95.4199979 44.3210911,95.7762479 43.5710912,95.7762479 Z M43.9132786,91.5106231 C43.1398412,91.5106231 42.6335912,92.1574981 42.6335912,93.160623 C42.6335912,94.1684355 43.1398412,94.8059354 43.9132786,94.8059354 C44.6867161,94.8059354 45.1929661,94.154373 45.1929661,93.160623 C45.1929661,92.1715606 44.6820286,91.5106231 43.9132786,91.5106231 Z M49.2945283,95.7762479 C48.0148409,95.7762479 47.1617159,94.7496854 47.1617159,93.1559355 C47.1617159,91.5668731 48.0195284,90.5403107 49.2898408,90.5403107 C50.0304658,90.5403107 50.6070282,90.8918732 50.8835907,91.4590606 L50.9117157,91.4590606 L50.9117157,88.6418733 L52.0789031,88.6418733 L52.0789031,95.7199979 L50.9351532,95.7199979 L50.9351532,94.8481229 L50.9117157,94.8481229 C50.6351532,95.4199979 50.0445283,95.7762479 49.2945283,95.7762479 Z M49.6367158,91.5106231 C48.8632783,91.5106231 48.3570284,92.1574981 48.3570284,93.160623 C48.3570284,94.1684355 48.8632783,94.8059354 49.6367158,94.8059354 C50.4101532,94.8059354 50.9164032,94.154373 50.9164032,93.160623 C50.9164032,92.1715606 50.4054657,91.5106231 49.6367158,91.5106231 Z M57.0992153,94.8809354 C57.8070278,94.8809354 58.3460903,94.4403104 58.3460903,93.816873 L58.3460903,93.4278105 L57.1742153,93.5028105 C56.5367154,93.544998 56.1992154,93.788748 56.1992154,94.2059355 C56.1992154,94.6184354 56.5554654,94.8809354 57.0992153,94.8809354 Z M56.7570279,95.7762479 C55.7492154,95.7762479 55.0273405,95.1621854 55.0273405,94.2528105 C55.0273405,93.338748 55.7257779,92.8184355 57.0148404,92.738748 L58.3460903,92.6590605 L58.3460903,92.2840606 C58.3460903,91.7403106 57.9804653,91.4449981 57.3523403,91.4449981 C56.8226529,91.4449981 56.4429654,91.7215606 56.3632779,92.1340606 L55.285153,92.1340606 C55.313278,91.1965606 56.1851529,90.5262482 57.3898403,90.5262482 C58.6695278,90.5262482 59.4992152,91.1918731 59.4992152,92.2090606 L59.4992152,95.7199979 L58.3789028,95.7199979 L58.3789028,94.8949979 L58.3507778,94.8949979 C58.0695278,95.4434354 57.4367153,95.7762479 56.7570279,95.7762479 Z M62.6257775,95.7199979 L62.6257775,90.5965607 L63.74609,90.5965607 L63.74609,91.4871856 L63.7695274,91.4871856 C64.0742149,90.8637482 64.5898399,90.5356232 65.3773399,90.5356232 C66.5117148,90.5356232 67.1585897,91.2528106 67.1585897,92.4387481 L67.1585897,95.7199979 L65.9914023,95.7199979 L65.9914023,92.6684355 C65.9914023,91.9371856 65.6445273,91.5246856 64.9414024,91.5246856 C64.2242149,91.5246856 63.7929649,92.0309356 63.7929649,92.7809355 L63.7929649,95.7199979 L62.6257775,95.7199979 Z M70.3226521,91.4356231 C69.6382771,91.4356231 69.1414021,91.9324981 69.0898396,92.663748 L71.5179645,92.663748 C71.494527,91.9231231 71.016402,91.4356231 70.3226521,91.4356231 Z M71.522652,94.1965605 L72.6195269,94.1965605 C72.4695269,95.1434354 71.560152,95.7949979 70.3648396,95.7949979 C68.8507771,95.7949979 67.9132772,94.7918729 67.9132772,93.179373 C67.9132772,91.5668731 68.8554646,90.5262482 70.3226521,90.5262482 C71.757027,90.5262482 72.6664019,91.5059356 72.6664019,93.057498 L72.6664019,93.441873 L69.0804646,93.441873 L69.0804646,93.5121855 C69.0804646,94.3371854 69.6054646,94.8856229 70.3882771,94.8856229 C70.950777,94.8856229 71.3867145,94.6184354 71.522652,94.1965605 Z M80.3539015,90.5965607 L78.961714,95.7199979 L77.7382766,95.7199979 L76.7164017,91.9559356 L76.6882767,91.9559356 L75.6710892,95.7199979 L74.4570268,95.7199979 L73.0648394,90.5965607 L74.2320268,90.5965607 L75.1132768,94.5528104 L75.1367143,94.5528104 L76.1539017,90.5965607 L77.2742141,90.5965607 L78.2914016,94.5528104 L78.3148391,94.5528104 L79.2007765,90.5965607 L80.3539015,90.5965607 Z M84.9570262,94.8809354 C85.6648386,94.8809354 86.2039011,94.4403104 86.2039011,93.816873 L86.2039011,93.4278105 L85.0320262,93.5028105 C84.3945262,93.544998 84.0570262,93.788748 84.0570262,94.2059355 C84.0570262,94.6184354 84.4132762,94.8809354 84.9570262,94.8809354 Z M84.6148387,95.7762479 C83.6070263,95.7762479 82.8851513,95.1621854 82.8851513,94.2528105 C82.8851513,93.338748 83.5835888,92.8184355 84.8726512,92.738748 L86.2039011,92.6590605 L86.2039011,92.2840606 C86.2039011,91.7403106 85.8382761,91.4449981 85.2101512,91.4449981 C84.6804637,91.4449981 84.3007762,91.7215606 84.2210887,92.1340606 L83.1429638,92.1340606 C83.1710888,91.1965606 84.0429637,90.5262482 85.2476512,90.5262482 C86.5273386,90.5262482 87.357026,91.1918731 87.357026,92.2090606 L87.357026,95.7199979 L86.2367136,95.7199979 L86.2367136,94.8949979 L86.2085886,94.8949979 C85.9273386,95.4434354 85.2945262,95.7762479 84.6148387,95.7762479 Z M92.8226507,92.4106231 L91.7210883,92.4106231 C91.6367133,91.8715606 91.2335883,91.4778106 90.5773384,91.4778106 C89.8085884,91.4778106 89.3070259,92.1246856 89.3070259,93.1559355 C89.3070259,94.219998 89.8132759,94.8434354 90.5820259,94.8434354 C91.2054633,94.8434354 91.6179633,94.5199979 91.7257758,93.938748 L92.8273382,93.938748 C92.7289007,95.0590604 91.8523383,95.7949979 90.5726509,95.7949979 C89.0867134,95.7949979 88.1210885,94.7918729 88.1210885,93.1559355 C88.1210885,91.5528106 89.0820259,90.5262482 90.5632759,90.5262482 C91.9039008,90.5262482 92.7429632,91.3559356 92.8226507,92.4106231 Z M98.0351504,92.4106231 L96.933588,92.4106231 C96.849213,91.8715606 96.446088,91.4778106 95.789838,91.4778106 C95.0210881,91.4778106 94.5195256,92.1246856 94.5195256,93.1559355 C94.5195256,94.219998 95.0257756,94.8434354 95.7945255,94.8434354 C96.417963,94.8434354 96.830463,94.5199979 96.9382755,93.938748 L98.0398379,93.938748 C97.9414004,95.0590604 97.064838,95.7949979 95.7851505,95.7949979 C94.2992131,95.7949979 93.3335882,94.7918729 93.3335882,93.1559355 C93.3335882,91.5528106 94.2945256,90.5262482 95.7757755,90.5262482 C97.1164005,90.5262482 97.9554629,91.3559356 98.0351504,92.4106231 Z M101.011713,95.7949979 C99.5023378,95.7949979 98.5460879,94.7918729 98.5460879,93.1559355 C98.5460879,91.5387481 99.5117128,90.5262482 101.011713,90.5262482 C102.521088,90.5262482 103.482025,91.5340606 103.482025,93.1559355 C103.482025,94.7918729 102.530463,95.7949979 101.011713,95.7949979 Z M101.011713,94.8621854 C101.817963,94.8621854 102.296088,94.2340605 102.296088,93.160623 C102.296088,92.0871856 101.813275,91.4590606 101.011713,91.4590606 C100.214838,91.4590606 99.7320253,92.0918731 99.7320253,93.160623 C99.7320253,94.2340605 100.214838,94.8621854 101.011713,94.8621854 Z M108.769525,90.5965607 L108.769525,95.7199979 L107.649212,95.7199979 L107.649212,94.8246854 L107.621087,94.8246854 C107.339837,95.4481229 106.8289,95.7856229 106.050775,95.7856229 C104.93515,95.7856229 104.236713,95.0637479 104.236713,93.882498 L104.236713,90.5965607 L105.4039,90.5965607 L105.4039,93.648123 C105.4039,94.3934354 105.764837,94.7965604 106.4539,94.7965604 C107.1664,94.7965604 107.602337,94.2949979 107.602337,93.535623 L107.602337,90.5965607 L108.769525,90.5965607 Z M109.763275,95.7199979 L109.763275,90.5965607 L110.883587,90.5965607 L110.883587,91.4871856 L110.907025,91.4871856 C111.211712,90.8637482 111.727337,90.5356232 112.514837,90.5356232 C113.649212,90.5356232 114.296087,91.2528106 114.296087,92.4387481 L114.296087,95.7199979 L113.1289,95.7199979 L113.1289,92.6684355 C113.1289,91.9371856 112.782025,91.5246856 112.0789,91.5246856 C111.361712,91.5246856 110.930462,92.0309356 110.930462,92.7809355 L110.930462,95.7199979 L109.763275,95.7199979 Z M115.594524,89.4528107 L116.761712,89.4528107 L116.761712,90.5965607 L117.732024,90.5965607 L117.732024,91.5012481 L116.761712,91.5012481 L116.761712,94.201248 C116.761712,94.6231229 116.958587,94.8246854 117.380462,94.8246854 C117.492962,94.8246854 117.652337,94.8106229 117.727337,94.8012479 L117.727337,95.6965604 C117.600774,95.7246854 117.361712,95.7434354 117.113274,95.7434354 C116.025774,95.7434354 115.594524,95.3496854 115.594524,94.3606229 L115.594524,91.5012481 L114.896087,91.5012481 L114.896087,90.5965607 L115.594524,90.5965607 L115.594524,89.4528107 Z" opacity=".66"/>
            <use fill="#3070CD" fill-rule="nonzero" xlink:href="#notif-app-v"/>
          </g>
        </g>
        <path fill="url(#notif-app-w)" d="M12.7999985,0 L723.519914,0 C730.589158,6.14889002e-14 736.319912,5.73075452 736.319912,12.7999985 L736.319912,412.799951 C736.319912,419.869195 730.589158,425.599949 723.519914,425.599949 L12.7999985,425.599949 C5.73075452,425.599949 2.64208954e-15,419.869195 1.77635684e-15,412.799951 L-1.77635684e-15,12.7999985 C-2.64208954e-15,5.73075452 5.73075452,1.29859905e-15 12.7999985,0 Z" style="mix-blend-mode:screen"/>
      </g>
    </g>
  </g>
</svg>
