<?xml version="1.0" encoding="UTF-8"?>
<svg width="70px" height="9px" viewBox="0 0 70 9" version="1.1" xmlns="http://www.w3.org/2000/svg" xmlns:xlink="http://www.w3.org/1999/xlink">
    <!-- Generator: Sketch 52.4 (67378) - http://www.bohemiancoding.com/sketch -->
    <title>product-hunt-logo</title>
    <desc>Created with Sketch.</desc>
    <g id="Symbols" stroke="none" stroke-width="1" fill="none" fill-rule="evenodd">
        <g id="footer" transform="translate(-1021.000000, -351.000000)" fill="#FFFFFF">
            <g id="producthunt" transform="translate(986.000000, 351.000000)">
                <g id="product-hunt" transform="translate(35.099999, 0.000000)">
                    <g id="product-hunt-logo">
                        <path d="M5.30034381,3.06983114 C5.30034381,2.42633114 4.80263768,2.03574615 4.15625715,2.03574615 L2.42325909,2.03574615 L2.42325909,4.09221614 L4.15625715,4.09221614 C4.80263768,4.09221614 5.30034381,3.70163114 5.30034381,3.06983114 Z M0.782446993,8.39996112 L0.782446993,0.599961153 L4.38682013,0.599961153 C6.06244714,0.599961153 6.97499012,1.72569615 6.97499012,3.06983114 C6.97499012,4.40226613 6.05116907,5.52800113 4.38682013,5.52800113 L2.42325909,5.52800113 L2.42325909,8.39996112 L0.782446993,8.39996112 Z" id="Fill-5"></path>
                        <path d="M7.97324643,8.40000012 L7.97324643,2.71341014 L9.43998397,2.71341014 L9.43998397,3.46035764 C9.84452344,2.97773264 10.5266996,2.57593514 11.2200557,2.57593514 L11.2200557,4.00002014 C11.115611,3.97710764 10.9886101,3.96589514 10.8155162,3.96589514 C10.3300689,3.96589514 9.68270765,4.24133264 9.43998397,4.59779263 L9.43998397,8.40000012 L7.97324643,8.40000012 Z" id="Fill-7"></path>
                        <path d="M16.1556824,5.48213713 C16.1556824,4.62062713 15.6466982,3.87377714 14.7227791,3.87377714 C13.8092554,3.87377714 13.3011539,4.62062713 13.3011539,5.48213713 C13.3011539,6.35534713 13.8092554,7.10170962 14.7227791,7.10170962 C15.6466982,7.10170962 16.1556824,6.35534713 16.1556824,5.48213713 M11.7760646,5.48213713 C11.7760646,3.90838964 12.8853363,2.57595464 14.7227791,2.57595464 C16.5715,2.57595464 17.6807717,3.90838964 17.6807717,5.48213713 C17.6807717,7.05588462 16.5715,8.40001962 14.7227791,8.40001962 C12.8853363,8.40001962 11.7760646,7.05588462 11.7760646,5.48213713" id="Fill-9"></path>
                        <path d="M22.6182716,6.46988037 L22.6182716,4.50564538 C22.3755479,4.13797289 21.8440076,3.87374789 21.3584621,3.87374789 C20.515549,3.87374789 19.9378176,4.52855788 19.9378176,5.48210788 C19.9378176,6.44696788 20.515549,7.10168037 21.3584621,7.10168037 C21.8440076,7.10168037 22.3755479,6.83745537 22.6182716,6.46988037 Z M22.6182716,8.39999037 L22.6182716,7.54979037 C22.1789172,8.10115287 21.5786297,8.39999037 20.8965516,8.39999037 C19.4984632,8.39999037 18.4240064,7.34309037 18.4240064,5.48210788 C18.4240064,3.67874789 19.4759071,2.57592539 20.8965516,2.57592539 C21.5550928,2.57592539 22.1789172,2.85146039 22.6182716,3.42573539 L22.6182716,0.599990403 L24.0972679,0.599990403 L24.0972679,8.39999037 L22.6182716,8.39999037 Z" id="Fill-11"></path>
                        <path d="M29.3235943,8.40000012 L29.3235943,7.56140262 C28.9425916,7.97490012 28.2726743,8.40000012 27.3600332,8.40000012 C26.1351367,8.40000012 25.5574053,7.73358762 25.5574053,6.65367762 L25.5574053,2.71341014 L27.0242409,2.71341014 L27.0242409,6.07940263 C27.0242409,6.84916512 27.4287804,7.10169012 28.0525067,7.10169012 C28.618862,7.10169012 29.0695925,6.79164012 29.3235943,6.46989012 L29.3235943,2.71341014 L30.7913125,2.71341014 L30.7913125,8.40000012 L29.3235943,8.40000012 Z" id="Fill-13"></path>
                        <path d="M31.8930132,5.48213713 C31.8930132,3.78212714 33.1405639,2.57595464 34.8510058,2.57595464 C35.9950925,2.57595464 36.6884486,3.06979214 37.0581732,3.57542714 L36.0985565,4.47096463 C35.8331786,4.08047714 35.4286392,3.87377714 34.9206357,3.87377714 C34.0305508,3.87377714 33.4068244,4.51727713 33.4068244,5.48213713 C33.4068244,6.44699713 34.0305508,7.10170962 34.9206357,7.10170962 C35.4286392,7.10170962 35.8331786,6.87209712 36.0985565,6.49282212 L37.0581732,7.38884712 C36.6884486,7.89448212 35.9950925,8.40001962 34.8510058,8.40001962 C33.1405639,8.40001962 31.8930132,7.19384712 31.8930132,5.48213713" id="Fill-15"></path>
                        <path d="M38.319846,6.87208737 L38.319846,3.98881739 L37.3959269,3.98881739 L37.3959269,2.71341989 L38.319846,2.71341989 L38.319846,1.1971974 L39.7875642,1.1971974 L39.7875642,2.71341989 L40.9193921,2.71341989 L40.9193921,3.98881739 L39.7875642,3.98881739 L39.7875642,6.48159987 C39.7875642,6.83747487 39.9719362,7.10169987 40.2955677,7.10169987 C40.5148527,7.10169987 40.7236441,7.02126237 40.8036693,6.92961237 L41.1160228,8.04364737 C40.896836,8.23913487 40.5034765,8.40000987 39.8910283,8.40000987 C38.8626644,8.40000987 38.319846,7.87155987 38.319846,6.87208737" id="Fill-17"></path>
                        <polygon id="Fill-19" points="50.3187809 8.40000012 50.3187809 5.03410513 46.6787103 5.03410513 46.6787103 8.40000012 45.0387808 8.40000012 45.0387808 0.600000153 46.6787103 0.600000153 46.6787103 3.60953264 50.3187809 3.60953264 50.3187809 0.600000153 51.9708711 0.600000153 51.9708711 8.40000012"></polygon>
                        <path d="M57.2216758,8.40000012 L57.2216758,7.56140262 C56.8406731,7.97490012 56.1707558,8.40000012 55.2581147,8.40000012 C54.0332182,8.40000012 53.4554868,7.73358762 53.4554868,6.65367762 L53.4554868,2.71341014 L54.9222244,2.71341014 L54.9222244,6.07940263 C54.9222244,6.84916512 55.3268619,7.10169012 55.9505882,7.10169012 C56.5169435,7.10169012 56.967674,6.79164012 57.2216758,6.46989012 L57.2216758,2.71341014 L58.689394,2.71341014 L58.689394,8.40000012 L57.2216758,8.40000012 Z" id="Fill-21"></path>
                        <path d="M63.9147593,8.40000012 L63.9147593,4.90784263 C63.9147593,4.13798264 63.5111024,3.87375764 62.8863954,3.87375764 C62.3087621,3.87375764 61.8702903,4.19550764 61.6154059,4.51725763 L61.6154059,8.40000012 L60.1485703,8.40000012 L60.1485703,2.71341014 L61.6154059,2.71341014 L61.6154059,3.42574514 C61.9738524,3.01234514 62.6672086,2.57593514 63.5685716,2.57593514 C64.8047461,2.57593514 65.3937556,3.26487014 65.3937556,4.34468264 L65.3937556,8.40000012 L63.9147593,8.40000012 Z" id="Fill-23"></path>
                        <path d="M67.1427685,6.87208737 L67.1427685,3.98881739 L66.2188494,3.98881739 L66.2188494,2.71341989 L67.1427685,2.71341989 L67.1427685,1.1971974 L68.6104867,1.1971974 L68.6104867,2.71341989 L69.7423146,2.71341989 L69.7423146,3.98881739 L68.6104867,3.98881739 L68.6104867,6.48159987 C68.6104867,6.83747487 68.7948587,7.10169987 69.1184902,7.10169987 C69.3377752,7.10169987 69.5465666,7.02126237 69.6274745,6.92961237 L69.9389453,8.04364737 C69.7196604,8.23913487 69.326399,8.40000987 68.7139508,8.40000987 C67.6855869,8.40000987 67.1427685,7.87155987 67.1427685,6.87208737" id="Fill-25"></path>
                    </g>
                </g>
            </g>
        </g>
    </g>
</svg>