<?xml version="1.0" encoding="UTF-8"?>
<svg width="27px" height="17px" viewBox="0 0 27 17" version="1.1" xmlns="http://www.w3.org/2000/svg" xmlns:xlink="http://www.w3.org/1999/xlink">
    <!-- Generator: Sketch 52.5 (67469) - http://www.bohemiancoding.com/sketch -->
    <title>quote</title>
    <desc>Created with Sketch.</desc>
    <g id="Website" stroke="none" stroke-width="1" fill="none" fill-rule="evenodd">
        <g id="Web-—-Landing-Page" transform="translate(-900.000000, -4021.000000)" fill="#EDEDED" fill-rule="nonzero">
            <g id="Group-13" transform="translate(874.000000, 3995.000000)">
                <g id="bubble-testimony">
                    <path d="M52.6384697,36.3797378 C52.2527554,33.8297378 50.057151,32.0124964 47.5648433,31.8952551 C48.1879202,29.6090482 49.701107,28.7004275 51.5406675,28.1728413 C51.7186895,28.1142206 51.6890191,27.9383585 51.6890191,27.9383585 L51.3923158,26.1211171 C51.3923158,26.1211171 51.3626455,25.9745654 51.1252829,26.0038757 C44.7758323,26.707324 40.4736345,31.4849102 41.2747334,37.2883585 C42.0164917,41.3038757 45.1912169,42.857324 48.1285796,42.4469792 C51.0659422,41.9780137 53.0835246,39.281462 52.6384697,36.3797378 Z M32.3736345,31.8952551 C32.9670411,29.6090482 34.5395686,28.7004275 36.3494587,28.1728413 C36.5274807,28.1142206 36.4978103,27.9383585 36.4978103,27.9383585 L36.2307774,26.1211171 C36.2307774,26.1211171 36.201107,25.9745654 35.9637444,26.0038757 C29.6142939,26.6780137 25.3417664,31.4555999 26.0835246,37.2590482 C26.8549532,41.3038757 30.0593488,42.857324 32.9670411,42.4469792 C35.9044037,41.9780137 37.9219862,39.281462 37.4472609,36.3797378 C37.0615466,33.8004275 34.8956125,31.9831861 32.3736345,31.8952551 Z" id="quote"></path>
                </g>
            </g>
        </g>
    </g>
</svg>