<?xml version="1.0" encoding="UTF-8"?>
<svg width="24px" height="20px" viewBox="0 0 24 20" version="1.1" xmlns="http://www.w3.org/2000/svg" xmlns:xlink="http://www.w3.org/1999/xlink">
    <!-- Generator: Sketch 52.5 (67469) - http://www.bohemiancoding.com/sketch -->
    <title>twitter</title>
    <desc>Created with Sketch.</desc>
    <g id="Symbols" stroke="none" stroke-width="1" fill="none" fill-rule="evenodd">
        <g id="fan-tweet-blue3" transform="translate(-240.000000, -35.000000)" fill="#1DA1F2">
            <g id="Twitter_Bird" transform="translate(240.000000, 35.000000)">
                <path d="M7.54781888,20 C16.6050289,20 21.557717,12.3061401 21.557717,5.63455217 C21.557717,5.41602023 21.5533761,5.1984743 21.5438163,4.98191191 C22.505265,4.26922632 23.3409537,3.37984505 24,2.36741672 C23.1177513,2.76953323 22.1683027,3.04023643 21.1722924,3.16229912 C22.1889426,2.53722103 22.9694297,1.54841907 23.3375937,0.3696317 C22.3862242,0.947950885 21.332614,1.36827894 20.2108429,1.59517632 C19.3122742,0.613756262 18.0330616,0 16.6165682,0 C13.8973414,0 11.6921993,2.26110549 11.6921993,5.04835726 C11.6921993,5.44456676 11.7353992,5.82994993 11.8198808,6.1995808 C7.7273614,5.98843324 4.09852428,3.97932804 1.67018141,0.924326167 C1.24729666,1.67048094 1.0034551,2.53722103 1.0034551,3.46203938 C1.0034551,5.21373193 1.87274298,6.76018228 3.1946756,7.66482118 C2.38682851,7.63922773 1.62794061,7.41183652 0.964573497,7.03334555 C0.963848665,7.05452918 0.963848665,7.07518182 0.963848665,7.09782217 C0.963848665,9.54300441 2.66114604,11.5845944 4.91428814,12.0472493 C4.50052419,12.1629136 4.06515945,12.2249285 3.61587551,12.2249285 C3.29907236,12.2249285 2.9904292,12.1929565 2.69042684,12.1338749 C3.31731235,14.140027 5.1350897,15.5998517 7.29031182,15.6407044 C5.60501444,16.9952007 3.48195393,17.8018954 1.17457184,17.8018954 C0.777607092,17.8018954 0.385443949,17.7787431 0,17.732004 C2.17922211,19.1642682 4.76692736,20 7.54807338,20" id="twitter"></path>
            </g>
        </g>
    </g>
</svg>