<svg xmlns="http://www.w3.org/2000/svg" width="152" height="32" viewBox="0 0 152 32">
  <g fill="none" fill-rule="evenodd" opacity=".6" transform="translate(9)">
    <g transform="translate(.629 .516)">
      <rect width="31.451" height="30.967" fill="#3070CD"/>
      <path fill="#FFF" d="M14.6771352,17.5480474 L9.22562784,7.53533798 L11.7417082,7.53533798 L14.8868086,13.8319903 C14.8868086,13.9352141 14.9916452,14.0384379 15.0964819,14.1416617 C15.2013186,14.2448855 15.2013186,14.3481093 15.3061553,14.5545569 C15.3061553,14.5545569 15.410992,14.6577807 15.410992,14.6577807 C15.410992,14.6577807 15.410992,14.7610045 15.410992,14.7610045 C15.5158286,14.9674522 15.5158286,15.070676 15.6206653,15.2771236 C15.725502,15.3803474 15.725502,15.586795 15.8303387,15.6900188 C15.9351754,15.3803474 16.1448487,15.1738998 16.2496854,14.7610045 C16.3545221,14.4513331 16.5641954,14.1416617 16.7738688,13.8319903 L19.9189692,7.53533798 L22.2253762,7.53533798 L16.7738688,17.6512712 L16.7738688,24.0511473 L14.6771352,24.0511473 L14.6771352,17.5480474 Z"/>
    </g>
    <g fill="#3070CD" transform="translate(38.744 10.706)">
      <path d="M5.92445314,0.696514353 C7.25082325,0.696514353 8.40034401,1.04477153 9.28459074,1.74128588 L8.40034401,2.78605741 C7.60452194,2.26367165 6.80869988,1.91541447 5.83602847,1.91541447 C4.33280901,1.91541447 3.18328826,2.69899312 2.56431554,4.17908612 C2.21061684,5.04972906 2.0337675,6.18156488 2.0337675,7.66165789 C2.0337675,8.79349371 2.21061684,9.75120095 2.47589086,10.4477153 C3.18328825,12.1019369 4.33280901,12.8855155 6.10130249,12.8855155 C7.0739739,12.8855155 7.95822064,12.6243227 8.7540427,12.0148726 L9.63828944,13.1467084 C8.48876868,13.8432228 7.25082325,14.1914799 5.92445314,14.1914799 C4.33280901,14.1914799 3.00643891,13.5820299 1.94534282,12.2760655 C0.884246737,11.0571654 0.442123369,9.40294377 0.442123369,7.400465 C0.442123369,5.39798624 0.972671411,3.83082894 2.0337675,2.52486453 C3.00643891,1.39302871 4.33280901,0.696514353 5.92445314,0.696514353 Z"/>
      <path fill-rule="nonzero" d="M10.9646595,9.31587947 C10.9646595,7.74872218 11.3183582,6.52982206 12.1141803,5.65917912 C12.9100024,4.78853618 13.8826738,4.26615041 15.1206192,4.26615041 C16.535414,4.26615041 17.6849347,4.78853618 18.4807568,5.920372 C19.0997295,6.79101494 19.3650036,8.00991506 19.3650036,9.49000806 C19.3650036,11.2312939 18.8344555,12.6243227 17.8617841,13.4949656 C17.1543867,14.1044157 16.27014,14.4526728 15.2090439,14.4526728 C13.8826738,14.4526728 12.9100024,14.0173514 12.1141803,13.0596441 C11.3183582,12.1890012 10.9646595,10.8830368 10.9646595,9.31587947 Z M17.1543867,6.79101494 C16.7122633,6.0074363 16.0932906,5.57211483 15.1206192,5.57211483 C14.1479478,5.57211483 13.5289751,5.920372 13.0868517,6.61688636 C12.733153,7.13927212 12.6447283,8.00991506 12.6447283,9.14175089 C12.6447283,10.6218439 12.8215777,11.6666154 13.2637011,12.2760655 C13.7058244,12.8855155 14.3247971,13.2337727 15.2090439,13.2337727 C16.27014,13.2337727 16.9775374,12.7113869 17.3312361,11.7536797 C17.5080854,11.2312939 17.5965101,10.5347796 17.5965101,9.66413665 C17.6849348,8.35817224 17.5080854,7.400465 17.1543867,6.79101494 Z"/>
      <path d="M22.1945931,6.96514353 C22.1945931,6.0074363 22.1061684,5.22385765 21.8408944,4.61440759 L23.3441139,4.26615041 C23.6093879,4.70147188 23.6978126,5.22385765 23.6978126,5.65917912 L23.6978126,5.74624341 C24.0515113,5.39798624 24.40521,5.04972906 24.935758,4.78853618 C25.5547307,4.440279 26.0852788,4.26615041 26.6158268,4.26615041 C27.4116489,4.26615041 28.1190463,4.61440759 28.5611696,5.22385765 C28.6495943,5.39798624 28.8264436,5.65917912 28.9148683,5.83330771 C29.9759644,4.78853618 30.9486358,4.26615041 32.0097319,4.26615041 C32.7171293,4.26615041 33.336102,4.5273433 33.7782254,4.96266477 C34.2203487,5.48505053 34.4856228,6.09450059 34.4856228,6.79101494 L34.4856228,14.0173514 L32.8939786,14.0173514 L32.8939786,6.87807924 C32.8939786,5.920372 32.4518553,5.48505053 31.6560332,5.48505053 C31.2139098,5.48505053 30.6833618,5.65917912 30.2412384,6.0074363 C30.0643891,6.18156488 29.7106904,6.44275777 29.268567,6.79101494 L29.0917177,6.96514353 L29.0917177,14.0173514 L27.4116489,14.0173514 L27.4116489,7.22633641 C27.4116489,6.61688636 27.3232242,6.18156488 27.1463748,6.0074363 C26.8811008,5.74624341 26.6158268,5.65917912 26.1737034,5.65917912 C25.466306,5.65917912 24.670484,6.09450059 23.6978126,6.96514353 L23.6978126,14.1044157 L22.1945931,14.1044157 L22.1945931,6.96514353 Z"/>
      <path fill-rule="nonzero" d="M37.2267876.348257177L38.8184318 0C38.9952811.696514353 39.0837058 1.480093 39.0837058 2.43780024L39.0837058 4.61440759C39.0837058 5.13679336 39.0837058 5.48505053 39.0837058 5.65917912 39.9679525 4.78853618 40.9406239 4.35321471 41.9132954 4.35321471 43.0628161 4.35321471 44.0354875 4.78853618 44.6544602 5.65917912 45.3618576 6.52982206 45.7155563 7.74872218 45.7155563 9.22881518 45.7155563 10.7959725 45.3618576 12.0148726 44.6544602 12.9725798 43.9470629 13.9302871 42.9743914 14.3656085 41.8248707 14.3656085 41.2943226 14.3656085 40.8521993 14.2785442 40.3216512 14.0173514 39.7911032 13.7561585 39.4374045 13.4949656 39.1721305 13.1467084 39.0837058 13.5820299 38.9952811 13.9302871 38.9068564 14.1914799L37.403637 14.1914799C37.5804863 13.7561585 37.668911 12.9725798 37.668911 11.7536797L37.668911 2.61192882C37.5804863 1.56715729 37.4920617.783578647 37.2267876.348257177zM39.7911032 6.26862918C39.5258292 6.44275777 39.2605551 6.70395065 39.0837058 6.96514353L39.0837058 11.9278083C39.7026785 12.7113869 40.4985006 13.0596441 41.471172 13.0596441 42.2669941 13.0596441 42.8859668 12.7984512 43.2396655 12.1890012 43.6817888 11.4924868 43.9470629 10.5347796 43.9470629 9.14175089 43.9470629 7.92285077 43.7702135 7.05220783 43.3280901 6.52982206 42.9743914 6.0074363 42.3554187 5.74624341 41.471172 5.74624341 40.9406239 5.65917912 40.3216512 5.83330771 39.7911032 6.26862918zM48.0145978 1.56715729C48.0145978 1.21890012 48.1030225.957707236 48.3682965.696514353 48.6335706.435321471 48.8988446.348257177 49.2525433.348257177 49.606242.348257177 49.871516.435321471 50.13679.696514353 50.402064.957707236 50.4904887 1.21890012 50.4904887 1.56715729 50.4904887 1.91541447 50.402064 2.17660735 50.13679 2.43780024 49.871516 2.69899312 49.606242 2.78605741 49.2525433 2.78605741 48.8988446 2.78605741 48.6335706 2.69899312 48.3682965 2.43780024 48.1030225 2.17660735 48.0145978 1.91541447 48.0145978 1.56715729zM48.3682965 14.1044157L48.3682965 4.5273433 49.9599407 4.26615041 49.9599407 14.1044157 48.3682965 14.1044157z"/>
      <path d="M53.4085029,6.96514353 C53.4085029,6.26862918 53.4085029,5.83330771 53.3200783,5.65917912 C53.3200783,5.39798624 53.1432289,5.13679336 52.9663796,4.70147188 L54.469599,4.26615041 C54.7348731,4.78853618 54.8232977,5.22385765 54.8232977,5.74624341 C55.7959691,4.78853618 56.8570652,4.26615041 57.9181613,4.26615041 C58.4487093,4.26615041 58.8908327,4.35321471 59.3329561,4.61440759 C59.7750795,4.87560047 60.1287782,5.22385765 60.3056275,5.65917912 C60.4824768,6.0074363 60.5709015,6.35569347 60.5709015,6.79101494 L60.5709015,14.1044157 L59.0676821,14.1044157 L59.0676821,7.57459359 C59.0676821,6.79101494 58.9792574,6.26862918 58.7139834,6.0074363 C58.4487093,5.74624341 58.0950107,5.57211483 57.6528873,5.57211483 C57.2991886,5.57211483 56.7686405,5.74624341 56.2380925,6.0074363 C55.7075445,6.26862918 55.2654211,6.61688636 54.9117224,6.96514353 L54.9117224,14.1044157 L53.4085029,14.1044157 L53.4085029,6.96514353 Z"/>
      <path fill-rule="nonzero" d="M64.1078885,6.61688636 L63.3120664,5.57211483 C64.6384365,4.70147188 65.9648066,4.26615041 67.3796014,4.26615041 C68.7943962,4.26615041 69.6786429,4.78853618 70.1207663,5.74624341 C70.2976156,6.09450059 70.2976156,6.61688636 70.2976156,7.400465 L70.2976156,7.92285077 L70.209191,11.0571654 C70.209191,11.1442297 70.209191,11.3183582 70.209191,11.4924868 C70.209191,12.0148726 70.209191,12.3631298 70.2976156,12.6243227 C70.3860403,12.9725798 70.6513143,13.2337727 71.005013,13.4079013 L70.209191,14.4526728 C69.5017936,14.1914799 69.0596702,13.7561585 68.8828209,13.0596441 C67.9985741,13.9302871 67.0259027,14.3656085 66.0532313,14.3656085 C65.0805599,14.3656085 64.2847378,14.1044157 63.6657651,13.5820299 C63.1352171,13.1467084 62.869943,12.4501941 62.869943,11.5795511 C62.869943,10.4477153 63.3120664,9.66413665 64.1963131,9.05468659 C65.0805599,8.44523653 66.40693,8.18404365 67.9985741,8.18404365 C68.2638481,8.18404365 68.4406975,8.18404365 68.7059715,8.18404365 L68.7059715,7.4875293 C68.7059715,6.70395065 68.6175468,6.18156488 68.3522728,6.0074363 C67.9985741,5.65917912 67.6448754,5.48505053 67.0259027,5.48505053 C66.4953547,5.48505053 65.8763819,5.65917912 65.1689846,5.920372 C64.9037105,6.09450059 64.5500118,6.35569347 64.1078885,6.61688636 Z M68.7943962,11.7536797 L68.8828209,9.22881518 C68.4406975,9.22881518 68.1754235,9.22881518 68.0869988,9.22881518 C66.672204,9.22881518 65.7879573,9.49000806 65.2574092,10.0123938 C64.9037105,10.360651 64.7268612,10.8830368 64.7268612,11.5795511 C64.7268612,12.7113869 65.2574092,13.320837 66.40693,13.320837 C67.4680261,13.2337727 68.2638481,12.7113869 68.7943962,11.7536797 Z"/>
      <path d="M75.337822,4.5273433 L77.8137129,4.5273433 L77.3715895,5.74624341 L75.337822,5.74624341 L75.337822,11.9278083 C75.337822,12.4501941 75.4262467,12.7984512 75.6030961,13.0596441 C75.7799454,13.2337727 76.1336441,13.4079013 76.5757675,13.4079013 C76.9294662,13.4079013 77.2831649,13.320837 77.5484389,13.2337727 L77.7252882,14.1914799 C77.1947402,14.4526728 76.6641921,14.5397371 76.0452194,14.5397371 C74.542,14.5397371 73.8346026,13.8432228 73.8346026,12.3631298 L73.8346026,5.74624341 L72.5082325,5.74624341 L72.5082325,4.5273433 L73.7461779,4.5273433 L73.7461779,4.35321471 C73.7461779,4.17908612 73.8346026,3.48257177 73.9230273,2.35073594 L73.9230273,2.08954306 L75.5146714,1.74128588 C75.337822,2.78605741 75.337822,3.74376465 75.337822,4.5273433 Z"/>
      <path fill-rule="nonzero" d="M79.405357,9.31587947 C79.405357,7.74872218 79.7590557,6.52982206 80.5548778,5.65917912 C81.2622752,4.78853618 82.3233713,4.26615041 83.5613167,4.26615041 C84.9761115,4.26615041 86.1256322,4.78853618 86.9214543,5.920372 C87.540427,6.79101494 87.805701,8.00991506 87.805701,9.49000806 C87.805701,11.2312939 87.275153,12.6243227 86.3024816,13.4949656 C85.5950842,14.1044157 84.7108375,14.4526728 83.6497414,14.4526728 C82.3233713,14.4526728 81.3506999,14.0173514 80.5548778,13.0596441 C79.8474804,12.1890012 79.405357,10.8830368 79.405357,9.31587947 Z M85.6835089,6.79101494 C85.2413855,6.0074363 84.6224128,5.57211483 83.6497414,5.57211483 C82.67707,5.57211483 82.0580972,5.920372 81.6159739,6.61688636 C81.2622752,7.13927212 81.1738505,8.00991506 81.1738505,9.14175089 C81.1738505,10.6218439 81.3506998,11.6666154 81.7928232,12.2760655 C82.2349466,12.8855155 82.8539193,13.2337727 83.738166,13.2337727 C84.7992621,13.2337727 85.5066595,12.7113869 85.8603582,11.7536797 C86.0372076,11.2312939 86.1256322,10.5347796 86.1256322,9.66413665 C86.1256322,8.35817224 85.9487829,7.400465 85.6835089,6.79101494 Z"/>
      <path d="M90.7237153,6.79101494 C90.7237153,5.920372 90.6352906,5.22385765 90.3700166,4.70147188 L91.873236,4.26615041 C92.13851,4.78853618 92.2269347,5.22385765 92.2269347,5.74624341 L92.2269347,5.920372 C93.0227568,4.87560047 93.9070035,4.35321471 94.9680996,4.35321471 C95.144949,4.35321471 95.3217983,4.35321471 95.4986476,4.440279 L94.8796749,6.09450059 C94.7028256,6.0074363 94.5259762,6.0074363 94.4375516,6.0074363 C94.0838529,6.0074363 93.6417295,6.09450059 93.2880308,6.35569347 C92.9343321,6.61688636 92.5806334,6.87807924 92.4037841,7.22633641 C92.3153594,7.4875293 92.2269347,7.83578647 92.2269347,8.27110794 L92.2269347,14.2785442 L90.7237153,14.2785442 L90.7237153,6.79101494 Z"/>
    </g>
  </g>
</svg>
